<svg width="390" height="420" viewBox="0 0 390 420" fill="none" xmlns="http://www.w3.org/2000/svg">
<path d="M280.34 72.625C281.259 -2.24279 188.766 15.002 142.404 32.9829C55.7138 74.5136 25.387 148.773 21.0599 180.711C15.9346 313.672 127.801 370.55 184.375 382.368C254.883 402.121 327.313 383.261 354.714 371.362C401.908 340.948 377.03 310.616 376.333 305.33C375.777 301.101 343.987 264.329 328.161 246.472C277.454 192.922 275.152 108.262 280.34 72.625Z" fill="url(#paint0_linear_201_3)"/>
<path d="M363.438 126.734C289.506 43.5547 197.678 35.3628 161.005 41.6642C-0.942171 64.3495 11.3799 174.445 37.7843 226.657C83.5519 313.077 180.075 358.987 222.615 371.14C282.465 384.103 329.7 326.13 345.836 295.523C393.95 214.504 377.619 149.239 363.438 126.734Z" stroke="white" stroke-width="2"/>
<defs>
<linearGradient id="paint0_linear_201_3" x1="170.169" y1="22.4106" x2="335.049" y2="36.6452" gradientUnits="userSpaceOnUse">
<stop stopColor="#2C1579"/>
<stop offset="1" stopColor="#752184"/>
</linearGradient>
</defs>
</svg>
