<svg width="475" height="182" viewBox="0 0 475 182" fill="none" xmlns="http://www.w3.org/2000/svg">
<path d="M469.321 62.4847C484.521 119.285 461.655 152.151 448.321 161.485C244.321 219.485 63.3214 133.985 26.3214 119.485C-3.27859 107.885 -2.01193 84.9847 2.3214 74.9847C7.12141 42.5847 34.9881 19.1514 48.3214 11.4848C76.7214 -9.31524 123.155 2.81809 142.821 11.4848C152.021 15.8848 187.988 30.6514 204.821 37.4848C231.621 49.0848 279.321 36.3181 299.821 28.4848C327.021 15.2848 369.488 6.98472 387.321 4.4847C442.521 2.4847 464.988 42.318 469.321 62.4847Z" fill="url(#paint0_linear_104_13)"/>
<defs>
<linearGradient id="paint0_linear_104_13" x1="237.174" y1="6.49934e-06" x2="404" y2="106" gradientUnits="userSpaceOnUse">
<stop stopColor="#2C1579"/>
<stop offset="1" stopColor="#752184"/>
</linearGradient>
</defs>
</svg>
