<svg width="200" height="73" viewBox="0 0 200 73" fill="none" xmlns="http://www.w3.org/2000/svg">
<path d="M197.017 22.2382C204.305 44.8724 195.259 58.4626 189.825 62.4284C105.31 88.9598 28.1057 57.3516 12.3717 52.0894C-0.21543 47.8796 -0.0558776 38.639 1.59729 34.5449C3.083 21.4241 14.3764 11.5545 19.8374 8.25976C31.397 -0.557835 51.0441 3.60455 59.4227 6.78794C63.3478 8.41634 78.6533 13.8021 85.8153 16.2914C97.2296 20.5448 117.004 14.6613 125.464 11.1879C136.644 5.44915 154.299 1.44567 161.728 0.161266C184.819 -1.50378 194.875 14.1855 197.017 22.2382Z" fill="url(#paint0_linear_104_3)"/>
<defs>
<linearGradient id="paint0_linear_104_3" x1="98.7603" y1="0.69399" x2="168.898" y2="43.1894" gradientUnits="userSpaceOnUse">
<stop stopColor="#2C1579"/>
<stop offset="1" stopColor="#752184"/>
</linearGradient>
</defs>
</svg>
