<svg id="Group_9" data-name="Group 9" xmlns="http://www.w3.org/2000/svg" width="17.764" height="17.781" viewBox="0 0 17.764 17.781">
  <path id="Path_23535" data-name="Path 23535" d="M50.4,183.781c-.337-.045-.676-.079-1.011-.137a8.667,8.667,0,0,1-4.788-2.507,8.511,8.511,0,0,1-2.4-4.563,8.843,8.843,0,0,1,6.586-10.3,8.725,8.725,0,0,1,7.152,1.289.69.69,0,1,1-.737,1.167,7.925,7.925,0,0,0-1.954-.959,7.323,7.323,0,0,0-6.666,1.029,7.465,7.465,0,0,0-1.9,10.237,7.482,7.482,0,0,0,9.908,2.393,2.816,2.816,0,0,1,.323-.168.688.688,0,0,1,.859.327.665.665,0,0,1-.243.9,11.153,11.153,0,0,1-1.171.6,8.52,8.52,0,0,1-2.783.671,1,1,0,0,0-.135.027Z" transform="translate(-42.043 -166)" fill="#0c9eda"/>
  <path id="Path_23536" data-name="Path 23536" d="M63.04,182.763a1.888,1.888,0,0,1-1.373-.517q-1.789-1.693-3.576-3.39a.7.7,0,1,1,.97-.99q1.739,1.645,3.475,3.295c.314.3.521.288.789-.047l7.043-8.761a1.011,1.011,0,0,1,.509-.424.7.7,0,0,1,.731.235.682.682,0,0,1,.06.765,1.429,1.429,0,0,1-.13.183l-7.206,8.963A1.745,1.745,0,0,1,63.04,182.763Z" transform="translate(-53.998 -170.469)" fill="#0c9eda"/>
  <path id="Path_23537" data-name="Path 23537" d="M106.442,193.967a9.066,9.066,0,0,1-1.475,4.956.7.7,0,0,1-.993.241.685.685,0,0,1-.188-.963,7.922,7.922,0,0,0,1.052-2.4,7.487,7.487,0,0,0-.007-3.571.716.716,0,0,1,.144-.7.657.657,0,0,1,.66-.212.665.665,0,0,1,.527.517A8.747,8.747,0,0,1,106.442,193.967Z" transform="translate(-88.679 -185.147)" fill="#0c9eda"/>
</svg>
