<svg xmlns="http://www.w3.org/2000/svg" width="72" height="72" viewBox="0 0 72 72">
  <g id="Group_15142" data-name="Group 15142" transform="translate(-685 -6289)">
    <g id="Group_13252" data-name="Group 13252" transform="translate(0 3207)">
      <g id="Group_7545" data-name="Group 7545" transform="translate(-10 -10)">
        <g id="Rectangle_7392" data-name="Rectangle 7392" transform="translate(695 3092)" fill="#024" stroke="#002951" stroke-width="1">
          <rect width="72" height="72" rx="10" stroke="none"/>
          <rect x="0.5" y="0.5" width="71" height="71" rx="9.5" fill="none"/>
        </g>
        <path id="Subtraction_1" data-name="Subtraction 1" d="M59.5,56.815h0V54.948a.689.689,0,0,0,.129.01h.01c.278,0,.572-.005.955-.005h1.113l.592,0a2.8,2.8,0,0,0,2.827-2.818c0-.2,0-.406,0-.62v-.271h-2.49l-.248,0a.923.923,0,0,1-.971-.973c0-1.007,0-2.028,0-3.016V39.292a.957.957,0,0,1,1.1-1.1H65.04a10.173,10.173,0,0,0-9.709-9.322c-.165-.007-.332-.011-.5-.011A10.266,10.266,0,0,0,44.66,38.193H46.4c.363,0,.662,0,.94,0a.92.92,0,0,1,.956.955c0,3.559,0,7.3,0,11.132a.918.918,0,0,1-.954.958c-.633,0-1.291.006-1.955.006-.547,0-1.117,0-1.694,0a.925.925,0,0,1-.961-.953c0-.138,0-.274,0-.405v-.009c0-.06,0-.118,0-.174-.137-.018-.273-.031-.4-.044a4.812,4.812,0,0,1-.81-.125,3.086,3.086,0,0,1-2.164-2.336,8.952,8.952,0,0,1,0-5A3.043,3.043,0,0,1,41.65,39.84a4.782,4.782,0,0,1,.713-.089c.117-.009.239-.018.362-.031a12.068,12.068,0,0,1,4.887-10.29A11.522,11.522,0,0,1,54.771,27c.233,0,.471.006.708.019a11.788,11.788,0,0,1,8.362,4,12.019,12.019,0,0,1,3.14,8.708c.117.011.233.02.345.027a5.357,5.357,0,0,1,.716.082,2.766,2.766,0,0,1,2.08,1.763,8.59,8.59,0,0,1,.37,1.333c.044.2.088.4.138.6.018.07.032.143.045.212l.016.084v1.732c-.006.029-.011.058-.017.088-.013.07-.027.14-.044.208-.051.2-.1.405-.14.6a8.434,8.434,0,0,1-.378,1.354,2.827,2.827,0,0,1-2.231,1.8,4.636,4.636,0,0,1-.611.051c-.094,0-.191.008-.289.014q0,.411,0,.817c0,.541,0,1.074,0,1.608a4.639,4.639,0,0,1-4.7,4.712h-.132q-.591,0-1.182,0c-.5,0-.92,0-1.314-.008h-.022a.732.732,0,0,0-.134.01Zm3.785-16.742v9.3H65.1v-9.3Zm-18.678,0v9.3h1.818v-9.3Zm-2.26,1.544a1.384,1.384,0,0,0-.213.014c-.617.1-.851.59-1,1.06a6.633,6.633,0,0,0-.218,2.721,6.777,6.777,0,0,0,.379,1.64,1.027,1.027,0,0,0,1.054.742,2.248,2.248,0,0,0,.371-.034V41.627c-.065,0-.13,0-.193,0S42.407,41.617,42.347,41.617Zm25.081-.011h0a1.646,1.646,0,0,0-.427.061V47.76a2.215,2.215,0,0,0,.349.031,1.123,1.123,0,0,0,1.1-.763,3.041,3.041,0,0,0,.2-.581,7.149,7.149,0,0,0-.261-4.176.974.974,0,0,0-.958-.664Z" transform="translate(676 3085)" fill="#fff" stroke="rgba(0,0,0,0)" stroke-width="1"/>
      </g>
      <g id="Rectangle_7395" data-name="Rectangle 7395" transform="translate(718 3128)" fill="none" stroke="#0c9eda" stroke-width="2">
        <rect width="8" height="6" rx="3" stroke="none"/>
        <rect x="1" y="1" width="6" height="4" rx="2" fill="none"/>
      </g>
    </g>
  </g>
</svg>
