<svg xmlns="http://www.w3.org/2000/svg" width="72" height="72" viewBox="0 0 72 72">
  <g id="Group_15140" data-name="Group 15140" transform="translate(-924 -5989)">
    <g id="Group_13251" data-name="Group 13251" transform="translate(0 3197)">
      <g id="Rectangle_7390" data-name="Rectangle 7390" transform="translate(924 2792)" fill="#024" stroke="#002951" stroke-width="1">
        <rect width="72" height="72" rx="10" stroke="none"/>
        <rect x="0.5" y="0.5" width="71" height="71" rx="9.5" fill="none"/>
      </g>
      <g id="Group_4406" data-name="Group 4406" transform="translate(706.569 2389.543)">
        <path id="Path_4448" data-name="Path 4448" d="M272.1,450.711a3.764,3.764,0,0,1-.818,1.812,3.275,3.275,0,0,1-2.164,1.119,5.915,5.915,0,0,1-.625.025q-15.222,0-30.446.005a3.45,3.45,0,0,1-2.925-1.324,3.284,3.284,0,0,1-.675-2.055c-.007-1.961-.023-3.922,0-5.883a5.454,5.454,0,0,1,5.179-5.428,38.629,38.629,0,0,1,4.59.048,1.243,1.243,0,0,0,1.356-.6,5.113,5.113,0,0,1,4.343-2.284c2.3-.027,4.61-.052,6.912.018a5.161,5.161,0,0,1,4.383,2.613c.177.284.331.4.66.3a2.178,2.178,0,0,1,.653-.089c1.592,0,3.192-.086,4.773.049a5.394,5.394,0,0,1,4.726,4.557,2.753,2.753,0,0,0,.074.28Zm-12.282.732c.006-.126.014-.211.014-.3,0-3.123.009-6.247,0-9.37a3.287,3.287,0,0,0-3.451-3.436q-3.1-.015-6.21,0a3.754,3.754,0,0,0-1.015.123,3.263,3.263,0,0,0-2.439,3.345q-.009,4.648,0,9.3c0,.106.013.212.022.334Zm-15.312,0v-9.423c0-.834,0-.847-.864-.857q-1.8-.02-3.6,0a3.49,3.49,0,0,0-.87.112,3.285,3.285,0,0,0-2.519,3.325c-.009,1.849,0,3.7,0,5.547,0,.911.406,1.314,1.327,1.314q3.067,0,6.135,0C244.227,451.46,244.345,451.449,244.5,451.441Zm17.533-.033a.572.572,0,0,0,.137.047c2.229,0,4.458.009,6.686-.007a1.041,1.041,0,0,0,1.026-1.083c.011-1.984.038-3.968-.008-5.951a3.182,3.182,0,0,0-2.979-3.2c-.971-.1-1.956-.051-2.935-.051-.538,0-1.075.038-1.613.054-.242.007-.324.107-.323.364.011,3.135.008,6.27.009,9.4Z" fill="#fff"/>
        <path id="Path_4449" data-name="Path 4449" d="M259.813,429.012a6.546,6.546,0,1,1-6.532-6.555A6.575,6.575,0,0,1,259.813,429.012Zm-6.527-4.348a4.34,4.34,0,1,0,4.32,4.362A4.336,4.336,0,0,0,253.286,424.664Z" fill="#0c9eda"/>
        <path id="Path_4450" data-name="Path 4450" d="M241.79,428.542a4.9,4.9,0,1,1-4.894,4.887A4.918,4.918,0,0,1,241.79,428.542Zm-2.67,5.026a2.681,2.681,0,1,0,2.33-2.789A2.662,2.662,0,0,0,239.12,433.568Z" fill="#fff"/>
        <path id="Path_4451" data-name="Path 4451" d="M269.639,433.443a4.9,4.9,0,1,1-4.88-4.9A4.926,4.926,0,0,1,269.639,433.443Zm-4.956-2.688a2.689,2.689,0,1,0,2.742,2.631A2.706,2.706,0,0,0,264.683,430.755Z" fill="#fff"/>
      </g>
    </g>
  </g>
</svg>
