<svg xmlns="http://www.w3.org/2000/svg" width="72" height="72" viewBox="0 0 72 72">
  <g id="Group_15141" data-name="Group 15141" transform="translate(-1390 -5989)">
    <g id="Group_13249" data-name="Group 13249" transform="translate(0 3197)">
      <g id="Rectangle_7391" data-name="Rectangle 7391" transform="translate(1390 2792)" fill="#024" stroke="#002951" stroke-width="1">
        <rect width="72" height="72" rx="10" stroke="none"/>
        <rect x="0.5" y="0.5" width="71" height="71" rx="9.5" fill="none"/>
      </g>
      <g id="Group_4407" data-name="Group 4407" transform="translate(1105.495 2389.188)">
        <path id="Path_4452" data-name="Path 4452" d="M333.565,423.679q-12.716,0-25.43,0a2.649,2.649,0,0,0-.5.025,2.594,2.594,0,0,0-2.265,2.72V451.7a2.61,2.61,0,0,0,2.822,2.805h25.338a2.608,2.608,0,0,0,2.79-2.776q0-12.638,0-25.278A2.621,2.621,0,0,0,333.565,423.679Zm1.207,28.026a1.09,1.09,0,0,1-1.253,1.249H308.184a1.09,1.09,0,0,1-1.255-1.245V432.567h27.844Zm0-20.727H306.932l0-1.433c0-1.115,0-2.222.008-3.329a1.032,1.032,0,0,1,.98-.98c.077-.006.154,0,.231,0h25.326c.91,0,1.3.387,1.3,1.294Z" fill="#fff"/>
        <path id="Path_4453" data-name="Path 4453" d="M322.528,439.105,321.46,441.6q-1.663,3.877-3.317,7.758a1.333,1.333,0,0,0-.1.658.721.721,0,0,0,.657.582.789.789,0,0,0,.828-.55q2.711-6.32,5.418-12.643a2.022,2.022,0,0,0,.085-.271c.008-.029.016-.059.024-.086l-.01-.071a1.356,1.356,0,0,0-.023-.134.775.775,0,0,0-.671-.6c-.029,0-.058,0-.086,0a.772.772,0,0,0-.719.5Q323.032,437.922,322.528,439.105Z" transform="translate(-0.673 -0.668)" fill="#0c9eda"/>
        <path id="Path_4454" data-name="Path 4454" d="M316.374,447.4a.755.755,0,0,0-.307-.8q-.9-.721-1.8-1.439l-1.967-1.579.238-.2c.07-.059.132-.111.194-.161l1-.794q1.169-.933,2.334-1.87a.774.774,0,0,0,.161-1.129.748.748,0,0,0-.587-.29.844.844,0,0,0-.525.2c-1.7,1.352-3.189,2.541-4.542,3.634a.752.752,0,0,0,0,1.213c1.38,1.115,2.984,2.409,4.572,3.643a1.042,1.042,0,0,0,.666.149A.657.657,0,0,0,316.374,447.4Z" transform="translate(-0.26 -0.822)" fill="#0c9eda"/>
        <path id="Path_4455" data-name="Path 4455" d="M327.366,448.007a.857.857,0,0,0,.632-.2q2.254-1.791,4.5-3.6a.766.766,0,0,0,0-1.273q-2.241-1.806-4.5-3.6a.879.879,0,0,0-.544-.2.87.87,0,0,0-.087,0,.751.751,0,0,0-.5.294.779.779,0,0,0,.181,1.128c.278.227.559.45.839.673l2.911,2.331-.241.2c-.068.057-.125.105-.183.151l-1.045.836q-1.142.913-2.284,1.83a.772.772,0,0,0-.177,1.127A.739.739,0,0,0,327.366,448.007Z" transform="translate(-1.134 -0.822)" fill="#0c9eda"/>
        <path id="Path_4456" data-name="Path 4456" d="M332.865,427.545q-.927,0-1.853,0H327.6a.8.8,0,0,0-.9.772.729.729,0,0,0,.207.532.946.946,0,0,0,.681.25q2.633,0,5.267,0a.942.942,0,0,0,.68-.251.724.724,0,0,0,.205-.533A.787.787,0,0,0,332.865,427.545Z" transform="translate(-1.134 -0.206)" fill="#fff"/>
        <path id="Path_4457" data-name="Path 4457" d="M310.059,427.4a.914.914,0,1,1-.9.921A.925.925,0,0,1,310.059,427.4Z" transform="translate(-0.201 -0.198)" fill="#fff"/>
        <path id="Path_4458" data-name="Path 4458" d="M314.852,428.324a.914.914,0,1,1-.895-.925A.925.925,0,0,1,314.852,428.324Z" transform="translate(-0.407 -0.198)" fill="#fff"/>
        <path id="Path_4459" data-name="Path 4459" d="M317.815,427.4a.914.914,0,1,1-.925.895A.924.924,0,0,1,317.815,427.4Z" transform="translate(-0.613 -0.198)" fill="#fff"/>
      </g>
    </g>
  </g>
</svg>
