<svg xmlns="http://www.w3.org/2000/svg" width="72" height="72" viewBox="0 0 72 72">
  <g id="Group_15139" data-name="Group 15139" transform="translate(-454 -5989)">
    <rect id="Rectangle_7389" data-name="Rectangle 7389" width="72" height="72" rx="10" transform="translate(454 5989)" fill="#024"/>
    <g id="Group_4405" data-name="Group 4405" transform="translate(311.162 5589.577)">
      <path id="Path_4446" data-name="Path 4446" d="M186.662,430.63a11.272,11.272,0,0,1,7.989,4.924,10.925,10.925,0,0,1,1.911,7.079A11.3,11.3,0,0,1,186.5,453.1a10.99,10.99,0,0,1-8.219-2.375,11.211,11.211,0,0,1-4.233-7.483c-.635,0-1.263,0-1.89,0-.7,0-.974-.236-1.064-.937-.056-.432-.091-.868-.165-1.3-.02-.118-.15-.218-.23-.325-.006-.008-.021-.01-.031-.014-.362-.14-.741-.422-1.08-.381s-.622.4-.91.645c-.913.777-1.224.7-2.013-.125-.865-.9-1.766-1.775-2.652-2.661a.9.9,0,0,1-.1-1.438c.269-.345.549-.681.8-1.038a.581.581,0,0,0,.05-.393,2.315,2.315,0,0,0-.175-.447c-.28-.674-.28-.672-1.02-.754-.342-.038-.685-.074-1.024-.133a.783.783,0,0,1-.7-.809q-.012-2.309,0-4.618a.777.777,0,0,1,.711-.8c.5-.08,1-.119,1.5-.206a.531.531,0,0,0,.34-.251,2.3,2.3,0,0,0,.4-1.074c-.035-.324-.4-.616-.637-.914-.789-1.014-.784-1.121.127-2.032l2.681-2.681a.874.874,0,0,1,1.361-.1c.364.28.718.574,1.093.839.09.064.242.042.365.058.009,0,.02-.012.031-.014.814-.181,1.318-.606,1.222-1.522a1.745,1.745,0,0,1,.038-.341c.082-.835.331-1.064,1.157-1.064q2.067,0,4.135,0c.661,0,.935.238,1.027.9.061.444.094.891.17,1.332.02.118.15.218.23.325.006.008.021.009.032.013.361.142.738.426,1.078.386s.613-.409.912-.641c1-.775,1.115-.769,2.007.123s1.8,1.8,2.7,2.7a.872.872,0,0,1,.074,1.363c-.275.354-.563.7-.819,1.065a.558.558,0,0,0-.051.393c.032.165.151.314.183.479.107.548.461.719.976.725a6.782,6.782,0,0,1,.991.118.821.821,0,0,1,.773.923C186.665,429.287,186.662,429.942,186.662,430.63Zm-1.377,1.584a9.653,9.653,0,1,0,9.651,9.647A9.668,9.668,0,0,0,185.285,432.214ZM180.7,422.159c-.324.252-.684.518-1.027.8a.964.964,0,0,1-1.089.143c-.621-.27-1.242-.54-1.876-.777a1.03,1.03,0,0,1-.73-.976c-.032-.419-.1-.835-.152-1.255h-3.144c-.054.445-.115.875-.156,1.307a.986.986,0,0,1-.677.9c-.642.248-1.277.515-1.907.791a.978.978,0,0,1-1.118-.149c-.34-.287-.7-.549-1.014-.792l-2.231,2.234c.245.316.5.667.782,1a.98.98,0,0,1,.163,1.117c-.276.631-.547,1.264-.792,1.907a1,1,0,0,1-.929.693c-.43.04-.857.1-1.286.158v3.141c.446.054.876.116,1.308.158a.981.981,0,0,1,.9.679c.246.642.515,1.276.792,1.906a.983.983,0,0,1-.15,1.119c-.286.341-.55.7-.789,1.006l2.233,2.235c.307-.238.652-.485.973-.761a1.006,1.006,0,0,1,1.175-.169q.91.408,1.845.762a1.033,1.033,0,0,1,.726.98c.032.419.1.835.153,1.253h1.238c.12-.776.19-1.543.365-2.286s.45-1.453.681-2.177a6.31,6.31,0,1,1-1.279-12.555A6.19,6.19,0,0,1,178.264,426a6.3,6.3,0,0,1,2.243,5.622,11.716,11.716,0,0,1,4.483-1.064v-1.295c-.444-.053-.874-.112-1.306-.154a.981.981,0,0,1-.9-.676c-.246-.643-.515-1.277-.791-1.907a.976.976,0,0,1,.147-1.118c.286-.341.55-.7.8-1.019Zm-1.79,8.717a4.729,4.729,0,0,0-4.91-4.707,4.626,4.626,0,0,0-4.371,5.219,4.676,4.676,0,0,0,6.515,3.666,1.289,1.289,0,0,0,.339-.276,18,18,0,0,1,1.423-1.446,2.267,2.267,0,0,0,.84-1.4C178.808,431.58,178.852,431.227,178.906,430.876Z" fill="#fff"/>
      <path id="Path_4447" data-name="Path 4447" d="M188.606,439.065c.432,0,.806-.005,1.179,0a1.172,1.172,0,0,1,1.2,1.2q.012,1.224,0,2.45a1.048,1.048,0,0,1-1.063,1.071c-.649.01-1.3.008-1.948,0a.712.712,0,0,1-.764-.782c0-1.555.01-3.109-.005-4.664a3.063,3.063,0,0,0-6.121-.174c-.042,1.947-.017,3.9-.012,5.844a.7.7,0,0,0,.764.72c1.063.005,2.125,0,3.188,0a.721.721,0,0,1,.754.573.7.7,0,0,1-.662.835c-1.171.015-2.343.037-3.512-.008a2.092,2.092,0,0,1-1.952-2.044c0-.087,0-.175,0-.3h-1.156a1.08,1.08,0,0,1-1.207-1.2c0-.758,0-1.516,0-2.274a1.181,1.181,0,0,1,1.26-1.252c.354,0,.706,0,1.108,0a4.621,4.621,0,0,1,1.79-4.3,4.288,4.288,0,0,1,2.958-.891,4.381,4.381,0,0,1,3.229,1.671A4.745,4.745,0,0,1,188.606,439.065Zm-8.98,3.293v-1.853h-.909v1.853Zm9.015-1.863v1.852h.909V440.5Z" transform="translate(1.15 1.031)" fill="#0c9eda"/>
    </g>
  </g>
</svg>
