<svg xmlns="http://www.w3.org/2000/svg" width="72" height="72" viewBox="0 0 72 72">
  <g id="Group_15143" data-name="Group 15143" transform="translate(-1154 -6293)">
    <g id="Group_15136" data-name="Group 15136">
      <g id="Group_13253" data-name="Group 13253" transform="translate(0 3185)">
        <g id="Rectangle_7393" data-name="Rectangle 7393" transform="translate(1154 3108)" fill="#024" stroke="#002951" stroke-width="1">
          <rect width="72" height="72" rx="10" stroke="none"/>
          <rect x="0.5" y="0.5" width="71" height="71" rx="9.5" fill="none"/>
        </g>
        <path id="Path_4461" data-name="Path 4461" d="M428.733,459.027V451.9a1.319,1.319,0,0,1,1.4-.845c2.052.027,4.106.009,6.159.01.918,0,1.328.413,1.33,1.34q0,2.393,0,4.786v.423c.675,0,1.3.011,1.931-.01a.442.442,0,0,0,.286-.223q1.176-2.123,2.332-4.258a2.06,2.06,0,0,0,.088-.213c-.122-.064-.228-.123-.338-.177a13.239,13.239,0,0,1,8.8-24.792c.287.064.384-.019.5-.243.887-1.641,1.791-3.272,2.675-4.914a1.968,1.968,0,0,1,.883-.947h11.135a1.419,1.419,0,0,1,.827,1.5c-.03,1.991-.01,3.982-.011,5.974,0,.9-.414,1.307-1.319,1.308q-3.117,0-6.234,0c-.923,0-1.337-.412-1.338-1.333q0-2.393,0-4.786v-.432c-.619,0-1.2.014-1.775-.006a.46.46,0,0,0-.483.294c-.731,1.361-1.477,2.713-2.218,4.067-.058.107-.11.216-.155.308,4.891,2.589,7.728,6.528,7.723,12.121s-2.832,9.533-7.736,12.108q1.234,2.256,2.473,4.511a.283.283,0,0,0,.188.141c.651.011,1.3.006,1.983.006v-.445q0-2.413,0-4.824a1.136,1.136,0,0,1,1.278-1.28q3.173,0,6.345,0a1.127,1.127,0,0,1,1.267,1.283q0,3.1,0,6.2a1.147,1.147,0,0,1-1.3,1.3c-3.377,0-6.753-.006-10.13.006a1.339,1.339,0,0,1-1.307-.78c-.923-1.72-1.87-3.427-2.8-5.143a.319.319,0,0,0-.427-.2,13.117,13.117,0,0,1-6.027.006.36.36,0,0,0-.489.214c-.922,1.707-1.865,3.4-2.78,5.113a1.364,1.364,0,0,1-1.34.789c-3.3-.015-6.606-.02-9.908,0A1.426,1.426,0,0,1,428.733,459.027Zm18.99-23.9a5.719,5.719,0,1,0,5.731,5.725A5.7,5.7,0,0,0,447.723,435.122Zm-4.713-.685c.015-.01.067-.041.117-.075a7.935,7.935,0,0,1,12.468,5.35c.04.243.15.266.342.264.841,0,1.683,0,2.523,0a1.507,1.507,0,0,0,.24-.038,11.029,11.029,0,0,0-17.881-7.687Zm-3.815-.5a10.9,10.9,0,0,0-1.52,11.383c1.607,3.585,5.87,6.649,8.96,6.417V448.73a8,8,0,0,1-5.3-12.647Zm19.433,8.259c-.9,0-1.76.018-2.624-.01-.338-.011-.46.094-.537.421a7.719,7.719,0,0,1-4.785,5.6,18.8,18.8,0,0,1-1.8.552v2.982A10.877,10.877,0,0,0,458.628,442.2Zm1.471-18.123v4.285h4.39v-4.285ZM435.372,457.6v-4.285h-4.39V457.6ZM460.1,457.6h4.4v-4.284h-4.4Z" transform="translate(741.915 2702.811)" fill="#fff"/>
      </g>
      <g id="Path_23556" data-name="Path 23556" transform="translate(1181.973 6321.177)" fill="none">
        <path d="M7.995-.509A7.888,7.888,0,0,1,15.6,7.718a8.04,8.04,0,0,1-8.187,7.907A7.888,7.888,0,0,1-.348,7.478,8.038,8.038,0,0,1,7.995-.509Z" stroke="none"/>
        <path d="M 7.626528739929199 1.882636070251465 C 6.157218933105469 1.882636070251465 4.762668609619141 2.471776008605957 3.699748992919922 3.541525840759277 C 2.63749885559082 4.610626220703125 2.052489280700684 6.008735656738281 2.052489280700684 7.478325843811035 C 2.052489280700684 9.048325538635254 2.609858512878418 10.50711631774902 3.621938705444336 11.58596611022949 C 4.61375904083252 12.64322566986084 5.960978507995605 13.22548580169678 7.41542911529541 13.22548580169678 C 8.963318824768066 13.22548580169678 10.42034912109375 12.65108585357666 11.5181188583374 11.60810565948486 C 12.60411834716797 10.57629585266113 13.20220947265625 9.19489574432373 13.20220947265625 7.718385696411133 C 13.20220947265625 6.126875877380371 12.67733860015869 4.671276092529297 11.72428894042969 3.619746208190918 C 10.76327896118164 2.559435844421387 9.435009002685547 1.9608154296875 7.883139133453369 1.888615608215332 C 7.797828674316406 1.884645462036133 7.711488723754883 1.882636070251465 7.626528739929199 1.882636070251465 M 7.62652587890625 -0.517364501953125 C 7.748791694641113 -0.517364501953125 7.871200084686279 -0.5145368576049805 7.99462890625 -0.508793830871582 C 12.53902912139893 -0.2973642349243164 15.60220909118652 3.248846054077148 15.60220909118652 7.718385696411133 C 15.60220909118652 12.1879358291626 11.84844875335693 15.62548542022705 7.41542911529541 15.62548542022705 C 2.98240852355957 15.62548542022705 -0.3475112915039062 11.9478759765625 -0.3475112915039062 7.478325843811035 C -0.3475112915039062 3.130181312561035 3.247201919555664 -0.517364501953125 7.62652587890625 -0.517364501953125 Z" stroke="none" fill="#0c9eda"/>
      </g>
    </g>
  </g>
</svg>
