<svg xmlns="http://www.w3.org/2000/svg" xmlns:xlink="http://www.w3.org/1999/xlink" width="98" height="98" viewBox="0 0 98 98">
  <defs>
    <clipPath id="clip-path">
      <rect id="Rectangle_8263" data-name="Rectangle 8263" width="38.873" height="55.438" fill="none" stroke="#f2fafd" stroke-width="0.5"/>
    </clipPath>
  </defs>
  <g id="Group_15135" data-name="Group 15135" transform="translate(-1409 -5302)">
    <g id="Group_15108" data-name="Group 15108">
      <g id="Ellipse_754" data-name="Ellipse 754" transform="translate(1409 5302)" fill="#f3fcff" stroke="#d6f3ff" stroke-width="1">
        <circle cx="49" cy="49" r="49" stroke="none"/>
        <circle cx="49" cy="49" r="48.5" fill="none"/>
      </g>
      <g id="Group_15099" data-name="Group 15099" transform="translate(1438.564 5323)">
        <g id="Group_15098" data-name="Group 15098" transform="translate(0 0)" clip-path="url(#clip-path)">
          <path id="Path_24878" data-name="Path 24878" d="M18.008,57.5a5.571,5.571,0,0,1-.816-1.027,8.592,8.592,0,0,0-1.817-2.457q-4.392-4.338-8.737-8.724a3.8,3.8,0,0,1-.787-4.739,3.728,3.728,0,0,1,5.629-1.1c1.411,1.233,2.692,2.613,4.027,3.932.218.215.414.451.62.678l.144-.047v-.606q0-10.91,0-21.821a3.8,3.8,0,0,1,2.083-3.638,3.754,3.754,0,0,1,5.488,3.076c.091,2.379.033,4.764.037,7.146,0,1.587,0,3.174,0,4.827,1.062.226,2.112.448,3.162.673,2.344.5,4.711.915,7.025,1.532a6.164,6.164,0,0,1,4.6,6.605c-.266,4.757-.5,9.515-.728,14.274a1.409,1.409,0,0,1-.867,1.414Zm17.776-2.166c.031-.443.064-.836.084-1.231.211-4.144.41-8.289.633-12.433a4.138,4.138,0,0,0-3.458-4.527q-5.054-1.059-10.107-2.123c-.981-.207-1.225-.522-1.226-1.523q0-4.061,0-8.121c0-1.353.014-2.708-.009-4.06A1.6,1.6,0,0,0,19.877,19.7a1.626,1.626,0,0,0-1.439,1.735c-.007,2.491,0,4.981,0,7.471V46.126c0,.145,0,.288,0,.433a1.136,1.136,0,0,1-.676,1.187,1.114,1.114,0,0,1-1.314-.356q-2.909-2.91-5.822-5.817a5.056,5.056,0,0,0-.517-.476,1.654,1.654,0,0,0-1.923,0,1.555,1.555,0,0,0-.573,1.822,2.9,2.9,0,0,0,.64.915c3.029,3.046,6.082,6.067,9.1,9.129a11.559,11.559,0,0,1,1.427,1.94.771.771,0,0,0,.747.443q7.852-.02,15.7-.009h.559" transform="translate(-0.629 -2.063)" stroke="#f2fafd" stroke-width="0.5"/>
          <path id="Path_24879" data-name="Path 24879" d="M19.831,2.158A17.121,17.121,0,0,0,7.356,7.689c-.259.276-.507.565-.786.82A1.055,1.055,0,0,1,5.1,8.547,1.031,1.031,0,0,1,5,7.085,17,17,0,0,1,6.574,5.376,18.915,18.915,0,0,1,22.041.123,18.93,18.93,0,0,1,36.275,8.812,18.919,18.919,0,0,1,39.427,18.4a1.106,1.106,0,0,1-.946,1.291c-.6.074-1.063-.348-1.193-1.06a36.662,36.662,0,0,0-.861-4.5A16.584,16.584,0,0,0,27.783,4.017a16.772,16.772,0,0,0-7.952-1.859" transform="translate(-0.558 0)" stroke="#f2fafd" stroke-width="0.5"/>
          <path id="Path_24880" data-name="Path 24880" d="M6.314,20.15A13.764,13.764,0,0,1,15.968,6.941a13.551,13.551,0,0,1,11.681,1.5,1.091,1.091,0,1,1-1.142,1.83A11.406,11.406,0,0,0,21.232,8.5a11.443,11.443,0,0,0-10.9,5.335,11.223,11.223,0,0,0-1.585,8.957c.041.194.08.388.109.585a1.094,1.094,0,0,1-.817,1.277,1.049,1.049,0,0,1-1.274-.814c-.193-.859-.325-1.734-.448-2.606a7.882,7.882,0,0,1-.008-1.081" transform="translate(-0.741 -0.735)" stroke="#f2fafd" stroke-width="0.5"/>
          <path id="Path_24881" data-name="Path 24881" d="M7.206,35.586a4.9,4.9,0,0,1-.871-.5,18.642,18.642,0,0,1-6.2-11.969A19.39,19.39,0,0,1,2.079,11.993c.313-.624.693-.888,1.195-.83A1.1,1.1,0,0,1,4.085,12.8a24.425,24.425,0,0,0-1.024,2.5C1.1,21.942,2.285,27.866,7.195,32.908a11.262,11.262,0,0,1,.847.909.851.851,0,0,1,.026,1.1,4.743,4.743,0,0,1-.862.667" transform="translate(0 -1.313)" stroke="#f2fafd" stroke-width="0.5"/>
          <path id="Path_24882" data-name="Path 24882" d="M29.855,20.966a8.442,8.442,0,0,1-1.882,5.288,1.087,1.087,0,0,1-1.495.244,1.042,1.042,0,0,1-.247-1.487,8.654,8.654,0,0,0,1.3-2.766,6.447,6.447,0,0,0-6.868-7.756A6.6,6.6,0,0,0,17.3,15.81c-.1.078-.2.152-.309.221a1.1,1.1,0,0,1-1.585-.177,1.051,1.051,0,0,1,.322-1.556,13.144,13.144,0,0,1,2.614-1.485,8.632,8.632,0,0,1,11.516,8.155" transform="translate(-1.788 -1.446)" fill="#0c9eda" stroke="#f2fafd" stroke-width="0.5"/>
          <path id="Path_24883" data-name="Path 24883" d="M37.02,21.436a13.468,13.468,0,0,1-3.815,8.956,1.118,1.118,0,0,1-1.664.217,1.092,1.092,0,0,1,.039-1.634,11.785,11.785,0,0,0,1.109-14.962c-.174-.252-.375-.487-.528-.751a1.044,1.044,0,0,1,.249-1.4,1.03,1.03,0,0,1,1.458.156,14.968,14.968,0,0,1,1.323,1.907,14.332,14.332,0,0,1,1.829,7.515" transform="translate(-3.673 -1.369)" stroke="#f2fafd" stroke-width="0.5"/>
          <path id="Path_24884" data-name="Path 24884" d="M43.025,26.14c-.354,1.131-.653,2.244-1.049,3.321a17.954,17.954,0,0,1-2.465,4.486c-.465.629-1.045.795-1.577.448a1.1,1.1,0,0,1-.214-1.66,18.6,18.6,0,0,0,2.458-4.672c.255-.748.414-1.53.676-2.276a1.024,1.024,0,0,1,1.7-.451,3.72,3.72,0,0,1,.47.8" transform="translate(-4.408 -2.948)" stroke="#f2fafd" stroke-width="0.5"/>
          <path id="Path_24885" data-name="Path 24885" d="M12.177,21.537c.16-.846.281-1.7.489-2.535a1.083,1.083,0,1,1,2.079.563,6.538,6.538,0,0,0,.506,5.123c.216.392.506.743.756,1.116a1.1,1.1,0,0,1-.146,1.624,1.109,1.109,0,0,1-1.569-.305,9.216,9.216,0,0,1-2.114-5.586" transform="translate(-1.434 -2.129)" fill="#0c9eda" stroke="#f2fafd" stroke-width="0.5"/>
          <path id="Path_24886" data-name="Path 24886" d="M15.07,33.705c-.007,1.085-.9,1.612-1.62,1.13a20.981,20.981,0,0,1-2.612-1.992,18.03,18.03,0,0,1-1.853-2.174,1.067,1.067,0,0,1,.1-1.623,1.088,1.088,0,0,1,1.627.358,13.421,13.421,0,0,0,3.736,3.547,2.682,2.682,0,0,1,.618.754" transform="translate(-1.02 -3.392)" stroke="#f2fafd" stroke-width="0.5"/>
          <path id="Path_24887" data-name="Path 24887" d="M29.923,58.4c-.758,0-1.516.011-2.274,0a1.08,1.08,0,1,1-.049-2.15q2.3-.042,4.6,0a1.094,1.094,0,0,1,1.178,1.084c0,.639-.474,1.057-1.237,1.068-.739.012-1.48,0-2.219,0" transform="translate(-3.114 -6.619)" stroke="#f2fafd" stroke-width="0.5"/>
          <path id="Path_24888" data-name="Path 24888" d="M37.009,56.258a1.049,1.049,0,0,1,1.048,1.078,1.027,1.027,0,0,1-1.01,1.055,1,1,0,0,1-1.062-1.044,1.019,1.019,0,0,1,1.024-1.09" transform="translate(-4.237 -6.623)" stroke="#f2fafd" stroke-width="0.5"/>
        </g>
      </g>
    </g>
  </g>
</svg>
