<svg xmlns="http://www.w3.org/2000/svg" xmlns:xlink="http://www.w3.org/1999/xlink" width="98" height="98" viewBox="0 0 98 98">
  <defs>
    <clipPath id="clip-path">
      <rect id="Rectangle_8262" data-name="Rectangle 8262" width="46.147" height="46.175" fill="none"/>
    </clipPath>
  </defs>
  <g id="Group_15134" data-name="Group 15134" transform="translate(-1062 -5302)">
    <g id="Group_15109" data-name="Group 15109">
      <g id="Ellipse_753" data-name="Ellipse 753" transform="translate(1062 5302)" fill="#f3fcff" stroke="#d6f3ff" stroke-width="1">
        <circle cx="49" cy="49" r="49" stroke="none"/>
        <circle cx="49" cy="49" r="48.5" fill="none"/>
      </g>
      <g id="Group_15097" data-name="Group 15097" transform="translate(1088.927 5328)">
        <g id="Group_15096" data-name="Group 15096" transform="translate(0 0)" clip-path="url(#clip-path)">
          <path id="Path_24872" data-name="Path 24872" d="M17.687,61.6V50.9h1.5V63.212a24.274,24.274,0,0,1-3.228-.194,3.669,3.669,0,0,1-2.868-3.533q-.045-4.082.01-8.165a14.4,14.4,0,0,1,.305-1.992h-.6c-1.889,0-3.778,0-5.667,0a5.384,5.384,0,0,0-5.584,5.61,28.854,28.854,0,0,0,.111,3.64A3.54,3.54,0,0,0,4.621,61.5V53.208H6.14v8.4h6.9v1.555h-.49q-3.506,0-7.012,0A5.362,5.362,0,0,1,.013,57.606,31.533,31.533,0,0,1,.1,53.771a6.757,6.757,0,0,1,6.507-5.951c2.429-.072,4.864.03,7.3.037a.648.648,0,0,0,.457-.227,6.877,6.877,0,0,1,5.815-2.912q2.882-.006,5.764,0a6.931,6.931,0,0,1,5.825,2.9.77.77,0,0,0,.546.229c2.575.015,5.16-.132,7.723.046A6.7,6.7,0,0,1,46.1,54.286a27.217,27.217,0,0,1-.089,4.409,5.216,5.216,0,0,1-5.076,4.458c-2.529.031-5.06.009-7.589.009-.077,0-.155-.011-.259-.019v-1.5h6.886V53.194H41.5v8.3a3.586,3.586,0,0,0,2.979-2.912,16.135,16.135,0,0,0,.1-2.631,12.21,12.21,0,0,0-.149-2.434,5.234,5.234,0,0,0-4.946-4.166c-2.174-.075-4.354-.018-6.531-.017a.948.948,0,0,0-.188.032c.572,3.39.238,6.784.267,10.163a3.73,3.73,0,0,1-3.654,3.623c-.8.023-1.6,0-2.433,0V50.894h1.483V61.556a2.388,2.388,0,0,0,3.093-2.472q0-3.627,0-7.253a5.393,5.393,0,0,0-5.573-5.578q-2.882-.007-5.763,0a5.388,5.388,0,0,0-5.572,5.576c0,2.337.064,4.677-.023,7.012a2.5,2.5,0,0,0,3.1,2.753" transform="translate(0 -17.037)"/>
          <path id="Path_24873" data-name="Path 24873" d="M42.947,25.35V23.892c.646-.26.75-.413.751-1.111,0-1.377,0-2.754,0-4.131,0-.683-.277-.958-.966-.961-1.169-.006-2.338-.012-3.506,0-.318,0-.475-.059-.558-.41a14.082,14.082,0,0,0-1.734-4.142c-.057-.093-.1-.194-.173-.323.914-.908,1.824-1.808,2.73-2.712.579-.578.579-.915,0-1.493Q38.054,7.168,36.61,5.725c-.526-.524-.9-.522-1.43.012-.915.916-1.823,1.839-2.659,2.682-1.238-.539-2.39-1.042-3.545-1.542a3.339,3.339,0,0,0-.364-.12c-1.054-.316-1.054-.316-1.054-1.439,0-.945,0-1.889,0-2.834,0-.652-.282-.931-.944-.934q-2.137-.009-4.275,0c-.651,0-.924.29-.927.95,0,1.185-.011,2.37,0,3.555,0,.3-.057.448-.384.524a14.618,14.618,0,0,0-4.5,1.944c-.456-.475-.9-.951-1.36-1.417-.493-.5-.989-1-1.5-1.491a.777.777,0,0,0-1.19,0Q10.888,7.177,9.32,8.768a.761.761,0,0,0,.035,1.216c.833.843,1.675,1.677,2.512,2.515.111.111.217.228.344.363a15.534,15.534,0,0,0-1.967,4.572c-.028.112-.272.24-.418.242-1.169.019-2.337.009-3.506.011-.807,0-1.05.25-1.051,1.069q0,1.993,0,3.987c0,.737.09.875.748,1.155v1.426A2.181,2.181,0,0,1,3.743,23.21q-.053-2.448,0-4.9a2.279,2.279,0,0,1,2.328-2.157c.864-.015,1.729.006,2.594-.014a.525.525,0,0,0,.4-.207c.4-.94.761-1.892,1.159-2.9-.6-.595-1.244-1.235-1.885-1.881a2.318,2.318,0,0,1-.009-3.585Q9.794,6.1,11.258,4.645a2.364,2.364,0,0,1,3.636.014c.557.553,1.12,1.1,1.659,1.669a.423.423,0,0,0,.578.1c.8-.359,1.61-.7,2.429-1.018a.4.4,0,0,0,.316-.443c-.012-.864-.012-1.729,0-2.594A2.3,2.3,0,0,1,22.206.015q2.281-.029,4.564,0a2.3,2.3,0,0,1,2.323,2.364c.009.849.01,1.7,0,2.546a.421.421,0,0,0,.325.485c.836.316,1.65.692,2.482,1.016a.549.549,0,0,0,.476-.084c.607-.57,1.183-1.172,1.776-1.756a2.345,2.345,0,0,1,3.5,0Q39.188,6.1,40.7,7.641a2.288,2.288,0,0,1,.01,3.414c-.66.674-1.342,1.328-1.985,1.962.4,1.024.781,2,1.187,2.97.039.093.256.154.392.156.816.014,1.633,0,2.45.008a2.319,2.319,0,0,1,2.476,2.457c0,1.489.012,2.979,0,4.468a2.253,2.253,0,0,1-2.284,2.274" transform="translate(-1.416 0)"/>
          <path id="Path_24874" data-name="Path 24874" d="M41.419,26.862H39.878A9.225,9.225,0,0,0,36.3,19.621a8.9,8.9,0,0,0-5.988-1.95,9.279,9.279,0,0,0-8.937,9.18H19.859a10.474,10.474,0,0,1,4.8-8.884,10.249,10.249,0,0,1,11.31-.394,10.548,10.548,0,0,1,5.451,9.29" transform="translate(-7.567 -6.12)"/>
          <path id="Path_24875" data-name="Path 24875" d="M34.412,37.8A4.609,4.609,0,1,1,39.04,33.21,4.6,4.6,0,0,1,34.412,37.8m0-1.537a3.072,3.072,0,1,0,.017-6.144,3.072,3.072,0,0,0-.017,6.144" transform="translate(-11.362 -10.889)" fill="#0c9eda"/>
          <path id="Path_24876" data-name="Path 24876" d="M13.29,42.764a4.609,4.609,0,1,1,4.64-4.575,4.605,4.605,0,0,1-4.64,4.575m.02-1.537a3.072,3.072,0,1,0-3.064-3.087,3.063,3.063,0,0,0,3.064,3.087" transform="translate(-3.318 -12.782)"/>
          <path id="Path_24877" data-name="Path 24877" d="M55.515,42.764a4.609,4.609,0,1,1,4.635-4.58,4.606,4.606,0,0,1-4.635,4.58m.024-1.537a3.072,3.072,0,1,0-3.073-3.078,3.063,3.063,0,0,0,3.073,3.078" transform="translate(-19.405 -12.782)"/>
          <rect id="Rectangle_8261" data-name="Rectangle 8261" width="6.085" height="1.48" transform="translate(20.032 44.622)"/>
        </g>
      </g>
    </g>
  </g>
</svg>
