<svg xmlns="http://www.w3.org/2000/svg" width="98" height="98" viewBox="0 0 98 98">
  <g id="Group_15132" data-name="Group 15132" transform="translate(-368 -5302)">
    <g id="Group_15111" data-name="Group 15111">
      <g id="Ellipse_751" data-name="Ellipse 751" transform="translate(368 5302)" fill="#f3fcff" stroke="#d6f3ff" stroke-width="1">
        <circle cx="49" cy="49" r="49" stroke="none"/>
        <circle cx="49" cy="49" r="48.5" fill="none"/>
      </g>
      <g id="Group_15106" data-name="Group 15106" transform="translate(2468.253 4979.19)">
        <path id="Path_24916" data-name="Path 24916" d="M-2053.249,396.1a4.329,4.329,0,0,1-1.615-.328,4.1,4.1,0,0,1-2.624-3.761,5.222,5.222,0,0,1-1.411.2,4.239,4.239,0,0,1-2.945-1.142,4.422,4.422,0,0,1-1.327-2.93,5.448,5.448,0,0,1-1.5.227,3.964,3.964,0,0,1-2.885-1.226,4.216,4.216,0,0,1-.988-4.4,4.09,4.09,0,0,1-3.833-2.794c-.68-1.934-.073-3.6,1.911-5.248l-.458-.443c-.317-.306-.614-.592-.908-.887a1.136,1.136,0,0,1-.4-.771.746.746,0,0,1,.252-.526.722.722,0,0,1,.51-.222,1.187,1.187,0,0,1,.8.406c.293.292.588.592.9.911l.459.467c.231-.243.454-.487.671-.722.469-.511.911-.993,1.4-1.442a4.16,4.16,0,0,1,2.825-1.117,4.1,4.1,0,0,1,3.972,2.968,6.334,6.334,0,0,1,.188,1.214c.017.186.034.378.058.565.12-.007.235-.011.342-.011a4.328,4.328,0,0,1,3.26,1.368,4.409,4.409,0,0,1,1.079,3.441c.184-.017.362-.024.528-.024a4.117,4.117,0,0,1,3.032,1.224,4.227,4.227,0,0,1,1.192,3.5c.145.01.287.018.425.025a8.725,8.725,0,0,1,.882.076,4.082,4.082,0,0,1,2.791,1.8,13.549,13.549,0,0,0,1.136,1.391c.653.7,1.327,1.354,1.961,1.968a2.676,2.676,0,0,0,1.86.776,2.555,2.555,0,0,0,2.523-2.588,2.559,2.559,0,0,0-.783-1.809c-1.428-1.444-2.89-2.9-4.3-4.315q-.985-.982-1.964-1.962l-.074-.073a2.113,2.113,0,0,1-.317-.363.734.734,0,0,1,.092-.977.766.766,0,0,1,.551-.259.836.836,0,0,1,.465.158,2.439,2.439,0,0,1,.356.318l.076.077,1.6,1.6.045.044c1.774,1.772,3.608,3.6,5.414,5.419a2.626,2.626,0,0,0,1.89.864,2.737,2.737,0,0,0,.686-.091,2.535,2.535,0,0,0,1.829-3.085,2.538,2.538,0,0,0-.578-1.075c-.386-.431-.807-.843-1.214-1.241-.168-.165-.342-.335-.513-.507l-2.274-2.275-.038-.038q-1.734-1.734-3.467-3.47l-.052-.052a1.936,1.936,0,0,1-.332-.39.652.652,0,0,1,.12-.915c.015-.012.031-.023.047-.034a1.132,1.132,0,0,1,.566-.12,3.076,3.076,0,0,1,.359.024c.121.014.232.139.339.26.035.04.068.076.1.11q1.1,1.094,2.188,2.189l.014.014c1.394,1.4,2.836,2.842,4.265,4.252a2.674,2.674,0,0,0,1.882.792,2.564,2.564,0,0,0,2.522-2.605,2.568,2.568,0,0,0-.832-1.849l-2.221-2.174-2.858-2.8a1.476,1.476,0,0,1-.557-.955.683.683,0,0,1,.225-.5.733.733,0,0,1,.52-.251,1.436,1.436,0,0,1,.934.563c.571.6,1.13,1.233,1.671,1.844q.345.39.69.777l.1-.094.1-.094h.034a.092.092,0,0,0,.065-.013c.4-.407.818-.812,1.221-1.2a34.365,34.365,0,0,0,2.65-2.773,12.532,12.532,0,0,0,.21-15.623l-.1-.128c-.378-.51-.371-.961.022-1.27a.8.8,0,0,1,.49-.184.921.921,0,0,1,.738.468l.046.069a28.454,28.454,0,0,1,1.634,2.649,12.588,12.588,0,0,1,1.3,4.54.808.808,0,0,0,.058.2c.012.032.024.063.034.1v2.459c-.06.292-.115.591-.168.88-.118.64-.24,1.3-.419,1.932a14.073,14.073,0,0,1-3.723,6.2c-.672.665-1.334,1.327-2.034,2.028h0l-.906.907q.214.2.424.391c.31.285.6.553.89.833a4.024,4.024,0,0,1,1.133,4.487A3.969,3.969,0,0,1-2032,382.7a.25.25,0,0,0-.07.023c-.02.009-.043.019-.074.03a4.184,4.184,0,0,1-.984,4.373,3.956,3.956,0,0,1-2.887,1.237,5.36,5.36,0,0,1-1.493-.228,6.705,6.705,0,0,1-1.543,3.083,3.442,3.442,0,0,1-2.567.983,7.309,7.309,0,0,1-1.593-.194,4.113,4.113,0,0,1-2.607,3.757,4.1,4.1,0,0,1-4.531-.869A4.336,4.336,0,0,1-2053.249,396.1Zm7.154-6.418a5.815,5.815,0,0,1-1.983,2.911,12.641,12.641,0,0,0-1.115,1.165,2.575,2.575,0,0,0,1.743.729,2.675,2.675,0,0,0,.877-.154,2.407,2.407,0,0,0,1.7-2.116,2.624,2.624,0,0,0-1.22-2.535Zm-4.083-3.471a2.366,2.366,0,0,0-1.614.628c-1.182,1.094-2.349,2.263-3.469,3.473a2.32,2.32,0,0,0-.355,2.69,2.383,2.383,0,0,0,2.108,1.476h.052a2.427,2.427,0,0,0,1.835-.629l.346-.338c1.013-.99,2.061-2.014,3.045-3.064a2.494,2.494,0,0,0-.089-3.44A2.6,2.6,0,0,0-2050.178,386.21Zm-5.088-4.747c-.071.034-.168.07-.281.11a3,3,0,0,0-1.028.545c-1.43,1.336-2.881,2.782-4.315,4.3a2.5,2.5,0,0,0,.139,3.478,2.606,2.606,0,0,0,1.813.746,2.393,2.393,0,0,0,1.67-.664c1.5-1.435,2.935-2.873,4.266-4.272a2.346,2.346,0,0,0,.4-2.735,2.64,2.64,0,0,0-2.668-1.5Zm-4.443-4.779a2.276,2.276,0,0,0-1.571.618c-1.7,1.61-3.427,3.338-5.287,5.283a2.3,2.3,0,0,0-.338,2.74,2.424,2.424,0,0,0,2.312,1.435h.009a2.251,2.251,0,0,0,1.649-.631l.348-.343c1.593-1.571,3.24-3.2,4.822-4.832a2.49,2.49,0,0,0-.046-3.443,2.627,2.627,0,0,0-1.9-.827Zm-4.753-4.75a2.307,2.307,0,0,0-1.578.61c-1.434,1.345-2.909,2.819-4.383,4.381a2.31,2.31,0,0,0-.344,2.74,2.448,2.448,0,0,0,2.312,1.445c.017.031.033.062.048.094l.019.038c.163-.076.34-.142.51-.207a3.046,3.046,0,0,0,1.029-.539c1.421-1.329,2.886-2.788,4.355-4.334a2.5,2.5,0,0,0-.108-3.442A2.628,2.628,0,0,0-2064.462,371.934Z"/>
        <path id="Path_24917" data-name="Path 24917" d="M-2073.878,370.948a.9.9,0,0,1-.656-.314,13.775,13.775,0,0,1-2.523-3.874,14.167,14.167,0,0,1,.6-12.6,14.017,14.017,0,0,1,10.231-7.15,16.209,16.209,0,0,1,2.4-.186,13.938,13.938,0,0,1,10.077,4.339q.381.379.764.764l-1.134,1.131a14.992,14.992,0,0,0-6.143-4.082,12.9,12.9,0,0,0-3.713-.552,12.607,12.607,0,0,0-12.574,11.262,12.413,12.413,0,0,0,3.039,9.7l.061.069c.039.043.078.087.114.133a.805.805,0,0,1-.005,1.139c-.016.016-.034.032-.052.047A.753.753,0,0,1-2073.878,370.948Z"/>
        <path id="Path_24918" data-name="Path 24918" d="M-2037.856,369.164a.805.805,0,0,1-.449-.147,2.8,2.8,0,0,1-.421-.364l-.1-.1-5.571-5.383-1.974-1.908-1.087,1.086-.005.005c-.947.946-1.842,1.84-2.754,2.757a5.878,5.878,0,0,1-4.287,1.844c-.108,0-.219,0-.328-.008a5.73,5.73,0,0,1-3.9-1.746,2.374,2.374,0,0,1,0-3.357c.029-.029.059-.058.09-.086,1.727-1.74,3.489-3.5,5.194-5.2l.964-.962a3.411,3.411,0,0,1,.307-.256q.086-.064.176-.138l-.041-.041,1.151-1.12.123.123c.044-.075.081-.148.116-.219a1.52,1.52,0,0,1,.2-.336l.144-.14c.385-.369.77-.754,1.143-1.126a29.864,29.864,0,0,1,3.121-2.836,13.7,13.7,0,0,1,8.264-2.7,14.114,14.114,0,0,1,8.056,2.495l.086.058a2.146,2.146,0,0,1,.3.227.753.753,0,0,1,.141,1.015.724.724,0,0,1-.627.372,1.008,1.008,0,0,1-.4-.092,2.114,2.114,0,0,1-.394-.246c-.061-.044-.123-.09-.187-.132a12.654,12.654,0,0,0-6.965-2.09,12.465,12.465,0,0,0-8.768,3.57c-2.641,2.586-5.3,5.244-7.87,7.814l-3,3a1.085,1.085,0,0,0-.412.76,1.138,1.138,0,0,0,.486.758,4.275,4.275,0,0,0,5.785-.153c1.019-.98,2.032-2,3.011-2.987.44-.443.894-.9,1.343-1.349.35-.348.586-.489.816-.489s.457.135.8.465l8,7.718.062.06a1.93,1.93,0,0,1,.3.332.742.742,0,0,1-.1,1.018A.754.754,0,0,1-2037.856,369.164Z" fill="#0c9eda"/>
      </g>
    </g>
  </g>
</svg>
