<svg xmlns="http://www.w3.org/2000/svg" xmlns:xlink="http://www.w3.org/1999/xlink" width="98" height="98" viewBox="0 0 98 98">
  <defs>
    <clipPath id="clip-path">
      <rect id="Rectangle_8260" data-name="Rectangle 8260" width="46.639" height="41.919" fill="none" stroke="#f2fafd" stroke-width="0.8"/>
    </clipPath>
  </defs>
  <g id="Group_15133" data-name="Group 15133" transform="translate(-715 -5302)">
    <g id="Group_15110" data-name="Group 15110">
      <g id="Ellipse_752" data-name="Ellipse 752" transform="translate(715 5302)" fill="#f3fcff" stroke="#d6f3ff" stroke-width="1">
        <circle cx="49" cy="49" r="49" stroke="none"/>
        <circle cx="49" cy="49" r="48.5" fill="none"/>
      </g>
      <g id="Group_15095" data-name="Group 15095" transform="translate(740.93 5330)">
        <g id="Group_15094" data-name="Group 15094" transform="translate(0 0)" clip-path="url(#clip-path)">
          <path id="Path_24869" data-name="Path 24869" d="M46.639,37.1c-.073.277-.138.555-.219.829a5.472,5.472,0,0,1-5.376,3.983c-3.582.01-7.164,0-10.746,0q-12.318,0-24.635,0A5.511,5.511,0,0,1,.847,33.483Q5,26.3,9.128,19.116,13.8,11.006,18.477,2.894A5.3,5.3,0,0,1,22.623.044a5.276,5.276,0,0,1,5.495,2.781c1.621,2.764,3.2,5.549,4.8,8.326Q39.256,22.144,45.6,33.133a9.025,9.025,0,0,1,1.043,2.6ZM23.307,39.178q8.766,0,17.533,0a3.039,3.039,0,0,0,2.006-.6,2.788,2.788,0,0,0,.554-3.768Q37.488,24.548,31.573,14.285q-2.866-4.975-5.729-9.95A2.988,2.988,0,0,0,24.27,2.891a2.781,2.781,0,0,0-3.48,1.463Q14.307,15.6,7.826,26.856q-2.309,4.007-4.62,8.012a2.842,2.842,0,0,0-.434,1.959,2.778,2.778,0,0,0,2.955,2.349q8.79,0,17.579,0" transform="translate(0 0)" stroke="#f2fafd" stroke-width="0.8"/>
          <rect id="Rectangle_8259" data-name="Rectangle 8259" width="2.679" height="13.632" transform="translate(21.977 13.682)" fill="#0c9eda" stroke="#f2fafd" stroke-width="0.8"/>
          <path id="Path_24870" data-name="Path 24870" d="M35.569,46.5a1.82,1.82,0,1,1-1.8-1.841,1.83,1.83,0,0,1,1.8,1.841" transform="translate(-10.429 -14.588)" fill="#0c9eda" stroke="#f2fafd" stroke-width="0.8"/>
        </g>
      </g>
    </g>
  </g>
</svg>
