<svg xmlns="http://www.w3.org/2000/svg" xmlns:xlink="http://www.w3.org/1999/xlink" width="56.612" height="67.946" viewBox="0 0 56.612 67.946">
  <defs>
    <clipPath id="clip-path">
      <rect id="Rectangle_8265" data-name="Rectangle 8265" width="56.612" height="67.946" fill="none"/>
    </clipPath>
  </defs>
  <g id="Group_15129" data-name="Group 15129" transform="translate(-759.27 -3340)">
    <g id="Group_15101" data-name="Group 15101" transform="translate(759.27 3340)">
      <g id="Group_15101-2" data-name="Group 15101" transform="translate(0 0)" clip-path="url(#clip-path)">
        <path id="Path_24900" data-name="Path 24900" d="M18.887,0a1.593,1.593,0,0,1,.791,1.547c-.028,2.409.013,4.82-.034,7.228a1.792,1.792,0,0,1-.532,1.183,1.129,1.129,0,0,1-1.077.055,1.512,1.512,0,0,1-.6-1.059c-.056-2.121-.028-4.244-.029-6.366a9.6,9.6,0,0,0-.006-.994A1.621,1.621,0,0,1,18.091,0Z" transform="translate(1.856 0)"/>
        <path id="Path_24901" data-name="Path 24901" d="M33.28,0a1.752,1.752,0,0,1,.7,1.594c-.031,2.365-.011,4.731-.013,7.1,0,.96-.4,1.492-1.112,1.5s-1.147-.546-1.148-1.48c0-2.387.015-4.775-.012-7.162A1.589,1.589,0,0,1,32.484,0Z" transform="translate(3.383 0)"/>
        <path id="Path_24902" data-name="Path 24902" d="M26.082,0a1.652,1.652,0,0,1,.747,1.57c-.024,1.966-.009,3.931-.01,5.9A4.219,4.219,0,0,1,26.8,8a1.092,1.092,0,0,1-1.149,1.04A1.036,1.036,0,0,1,24.578,8c-.029-2.319-.041-4.638.022-6.955.01-.353.446-.7.686-1.041Z" transform="translate(2.621 0)"/>
        <path id="Path_24903" data-name="Path 24903" d="M40.344,0a1.472,1.472,0,0,1,.8,1.528c-.04.593.007,1.191-.012,1.786A1.127,1.127,0,0,1,40,4.516,1.116,1.116,0,0,1,38.881,3.3c-.014-.6.029-1.193-.012-1.785A1.434,1.434,0,0,1,39.68,0Z" transform="translate(4.149 0)"/>
        <path id="Path_24904" data-name="Path 24904" d="M11.693,0A1.436,1.436,0,0,1,12.5,1.518c-.042.614.006,1.235-.015,1.852a1.122,1.122,0,1,1-2.245.01,11.24,11.24,0,0,1,.029-2.243c.071-.409.493-.759.757-1.137Z" transform="translate(1.089 0)"/>
        <path id="Path_24905" data-name="Path 24905" d="M50.955,22.049V18.142q0-5.673,0-11.343a4.831,4.831,0,0,1,.025-.728,1.107,1.107,0,0,1,2.143-.18,3.155,3.155,0,0,1,.092.915c.006,6.081,0,12.161.014,18.242a2.45,2.45,0,0,0,.24,1.07A28.3,28.3,0,1,1,.563,44.6,28.013,28.013,0,0,1,3.11,26.173a2.625,2.625,0,0,0,.269-1.129q.025-8.988.012-17.976c0-.155,0-.31,0-.465.009-.971.4-1.47,1.141-1.471S5.654,5.617,5.654,6.6q0,7.263,0,14.527v.912C11.549,14.725,19.04,10.8,28.305,10.8s16.743,3.916,22.65,11.248M28.308,13.03a26.041,26.041,0,1,0,26.02,26.024A26.034,26.034,0,0,0,28.308,13.03" transform="translate(0 0.548)"/>
        <path id="Path_24906" data-name="Path 24906" d="M10.234,9.455c0-.705-.014-1.41,0-2.114a1.128,1.128,0,1,1,2.25.019q.02,2.18,0,4.361a1.092,1.092,0,0,1-1.131,1.188A1.109,1.109,0,0,1,10.237,11.7c-.017-.749,0-1.5,0-2.247" transform="translate(1.092 0.655)"/>
        <path id="Path_24907" data-name="Path 24907" d="M38.877,9.53c0-.727-.011-1.454,0-2.18a1.128,1.128,0,1,1,2.25,0q.023,2.18,0,4.361a1.127,1.127,0,1,1-2.25,0c-.015-.726,0-1.453,0-2.18" transform="translate(4.15 0.655)"/>
        <path id="Path_24908" data-name="Path 24908" d="M14.035,41.557c.189-1.162.417-2.526.634-3.892.388-2.45.573-1.8-1.091-3.52q-1.205-1.247-2.434-2.473a2.7,2.7,0,0,1,1.668-4.714c1.5-.2,2.992-.456,4.491-.666a1.148,1.148,0,0,0,.954-.724c.7-1.5,1.431-2.994,2.13-4.5a2.529,2.529,0,0,1,4.727.007c.691,1.49,1.417,2.965,2.108,4.455a1.212,1.212,0,0,0,1.028.767c1.6.22,3.186.479,4.778.73a2.469,2.469,0,0,1,2.087,1.756,2.547,2.547,0,0,1-.6,2.714q-1.7,1.785-3.464,3.517a1.446,1.446,0,0,0-.438,1.408q.438,2.451.82,4.912a2.574,2.574,0,0,1-1.073,2.659,2.45,2.45,0,0,1-2.8.067c-1.394-.775-2.8-1.523-4.192-2.3a1.137,1.137,0,0,0-1.233,0c-1.433.8-2.87,1.6-4.324,2.367a2.571,2.571,0,0,1-3.768-2.568m1.667.122c-.025.908.644,1.337,1.372.945,1.433-.772,2.866-1.543,4.284-2.342a2.641,2.641,0,0,1,2.779,0c1.377.773,2.77,1.517,4.152,2.281.357.2.708.361,1.092.086a1.057,1.057,0,0,0,.392-1.132c-.269-1.622-.524-3.246-.813-4.865a2.908,2.908,0,0,1,.853-2.761c1.136-1.123,2.244-2.273,3.368-3.408a1.081,1.081,0,0,0,.353-1.185,1.011,1.011,0,0,0-.939-.658c-1.53-.23-3.056-.482-4.589-.688a2.706,2.706,0,0,1-2.256-1.635c-.7-1.5-1.427-3-2.131-4.5-.185-.395-.418-.715-.895-.7-.453.011-.67.329-.846.7-.7,1.5-1.428,3-2.13,4.5a2.688,2.688,0,0,1-2.208,1.63c-1.548.216-3.092.458-4.637.693-.644.1-1.023.41-.984.939a1.571,1.571,0,0,0,.4.892c1.12,1.183,2.272,2.337,3.422,3.492a2.791,2.791,0,0,1,.82,2.5c-.064.451-.153.9-.227,1.348-.218,1.317-.434,2.634-.638,3.873" transform="translate(5.558 6.539)" fill="#0c9eda"/>
        <path id="Path_24909" data-name="Path 24909" d="M26.424,14.324a21.734,21.734,0,0,1,20.9,17.541,21.318,21.318,0,0,1-1.764,13.992c-.387.8-.928,1.066-1.538.774s-.72-.874-.337-1.687A19.841,19.841,0,0,0,14.429,20.028c-.165.117-.327.246-.5.351a1.043,1.043,0,0,1-1.46-.254.985.985,0,0,1,.285-1.447A36.822,36.822,0,0,1,16.3,16.521a21.7,21.7,0,0,1,10.127-2.2" transform="translate(2.454 3.376)" stroke="#000" stroke-width="0.1"/>
        <path id="Path_24910" data-name="Path 24910" d="M25.852,57.956c-10.345.263-19.916-7.822-21.511-18.749A21.676,21.676,0,0,1,6.327,26.361c.24-.5.562-.866,1.163-.81a1.05,1.05,0,0,1,.765,1.623A21.1,21.1,0,0,0,6.53,32.311,19.816,19.816,0,0,0,21.246,55.26a19.515,19.515,0,0,0,16.289-3.093,2.833,2.833,0,0,1,.912-.452.889.889,0,0,1,1.014.512.961.961,0,0,1-.113,1.14,2.328,2.328,0,0,1-.46.4,22.6,22.6,0,0,1-13.035,4.191" transform="translate(2.284 3.61)" stroke="#000" stroke-width="0.1"/>
      </g>
    </g>
  </g>
</svg>
