<svg xmlns="http://www.w3.org/2000/svg" xmlns:xlink="http://www.w3.org/1999/xlink" width="63.395" height="71.847" viewBox="0 0 63.395 71.847">
  <defs>
    <clipPath id="clip-path">
      <rect id="Rectangle_8266" data-name="Rectangle 8266" width="63.395" height="71.847" fill="none" stroke="#f9f9f9" stroke-width="0.3"/>
    </clipPath>
  </defs>
  <g id="Group_15130" data-name="Group 15130" transform="translate(-1102.561 -3339)">
    <g id="Group_15103" data-name="Group 15103" transform="translate(1099.104 3335.081)">
      <g id="Group_15102" data-name="Group 15102" transform="translate(3.458 3.919)" clip-path="url(#clip-path)">
        <path id="Path_24911" data-name="Path 24911" d="M36.607,0c.786.628.836.9.456,1.783a.753.753,0,0,0,.074.646,7.391,7.391,0,0,1,1.408,7.394L50.217,16.2a7.486,7.486,0,0,1,9.029-2.194c.865-1.1,1.272-1.306,1.854-.952.641.39.638.876-.035,2.189a7.354,7.354,0,0,1-3.881,12.6V43.967l2.334.763a.808.808,0,0,1,.093-.165c.47-.62.964-.768,1.491-.454a1.026,1.026,0,0,1,.3,1.529c-.25.444.016.632.237.894a7.262,7.262,0,0,1-3.322,11.631,7.045,7.045,0,0,1-7.274-1.682c-.274-.25-.536-.514-.85-.817L38.582,62.009c.828,4.062-.14,6.867-2.954,8.685a7.281,7.281,0,0,1-8.234-.253,7.363,7.363,0,0,1-2.555-8.417L13.174,55.655c-3.062,2.938-5.979,3.62-9.031,2.151A7.322,7.322,0,0,1,.021,50.8c.273-3.431,2.337-5.708,6.2-6.806V27.881c-.523-.164-1.041-.3-1.537-.485a7.243,7.243,0,0,1-4.4-8.723c.25-.893.743-1.285,1.4-1.113s.879.751.639,1.663a5.174,5.174,0,0,0,9.791,3.3,4.98,4.98,0,0,0-1.04-5.359L8.432,21.8c-.14.244-.264.5-.426.724a1.011,1.011,0,0,1-1.628.176c-.605-.584-1.181-1.2-1.731-1.837a1.039,1.039,0,0,1,1.538-1.4c.238.218.441.475.711.77L9.361,15.9a4.939,4.939,0,0,0-3.886-.137c-.22.076-.424.195-.641.284a1.064,1.064,0,0,1-1.456-.418,1.041,1.041,0,0,1,.538-1.462,7.139,7.139,0,0,1,5.9-.382c.194.069.383.144.565.213.756-1.083,1.213-1.313,1.828-.942s.614.849-.007,2.176l.925.992,11.721-6.4A7.141,7.141,0,0,1,24.6,5.648,7.172,7.172,0,0,1,30.4.126,1.97,1.97,0,0,0,30.713,0h1.965l2.485.784a4.3,4.3,0,0,1,.323-.432A4.273,4.273,0,0,1,35.907,0ZM55,27.827a7.348,7.348,0,0,1-5.76-9.757L37.548,11.687a7.406,7.406,0,0,1-11.719.006L14.14,18.077a7.256,7.256,0,0,1-.586,6.243A7.306,7.306,0,0,1,8.4,27.836v16.14l2.2.7c.593-.729,1.054-.894,1.6-.58.562.324.615.815.194,1.942a7.324,7.324,0,0,1,2.013,3.605,7.5,7.5,0,0,1-.264,4.133l11.693,6.382c2.535-2.835,5.5-3.585,8.958-2.235.908-1.368,1.335-1.677,1.934-1.272,1.258.851.142,1.664-.118,2.5.3.325.592.651.928,1.02l11.521-6.294c-.075-1.287-.2-2.4-.184-3.5a1.029,1.029,0,0,1,1.194-1.144c.636.073.9.524.889,1.343a8.368,8.368,0,0,0,.12,1.878,5.141,5.141,0,0,0,4.353,3.929,5.2,5.2,0,0,0,5.219-2.693,5.029,5.029,0,0,0-.558-5.673c-.124.209-.245.4-.358.6-.889,1.563-1.772,3.132-2.67,4.69-.549.954-1.256,1.027-2.026.224-.5-.523-1.008-1.043-1.483-1.591a1.038,1.038,0,0,1,1.5-1.437c.247.225.452.494.726.8l2.654-4.68a5.144,5.144,0,0,0-5.422.456c-.688.48-1.271.432-1.658-.114a1.05,1.05,0,0,1,.462-1.594c1-.571,2.065-1.023,3.187-1.566ZM33.711,59.867a5.061,5.061,0,0,0-6.506,2.125,5.175,5.175,0,0,0,8.755,5.5c1.389-2.015,1.151-5.092-.518-6.331-.121.2-.246.391-.36.591-.8,1.4-1.582,2.808-2.394,4.2-.451.775-1.141.924-1.733.359-.608-.58-1.184-1.2-1.733-1.834a1.012,1.012,0,0,1,.082-1.45,1,1,0,0,1,1.446.046,8.109,8.109,0,0,1,.675.847c.72-1.266,1.341-2.357,1.96-3.451.114-.2.217-.4.325-.607M58.223,15.942a5.094,5.094,0,0,0-6.6,2.07,5.173,5.173,0,0,0,8.64,5.666c1.464-1.978,1.313-5.023-.341-6.412-.135.222-.272.436-.4.657-.844,1.483-1.674,2.971-2.531,4.446a1.018,1.018,0,0,1-1.688.352,23.217,23.217,0,0,1-1.781-1.885.971.971,0,0,1,.076-1.4,1,1,0,0,1,1.448,0c.253.224.466.491.746.791.848-1.493,1.64-2.888,2.433-4.286M35.737,4.139c-.152.252-.277.444-.39.643-.89,1.562-1.767,3.133-2.669,4.687a1.036,1.036,0,0,1-1.746.319,25.2,25.2,0,0,1-1.723-1.84.971.971,0,0,1,.065-1.4,1,1,0,0,1,1.449-.013,8.763,8.763,0,0,1,.713.86c.935-1.65,1.788-3.15,2.638-4.649a5.068,5.068,0,0,0-6.613,1.562,5.176,5.176,0,0,0,7.875,6.654,5.088,5.088,0,0,0,.4-6.828m-24.5,43.819c-.155.26-.278.457-.393.657-.9,1.584-1.792,3.173-2.7,4.75-.509.88-1.217.956-1.934.224-.475-.484-.938-.98-1.4-1.481-.534-.586-.565-1.159-.105-1.61a1.1,1.1,0,0,1,1.654.2,5.2,5.2,0,0,1,.473.718c.987-1.74,1.846-3.255,2.7-4.77A5.068,5.068,0,0,0,3,48.363a5.176,5.176,0,0,0,8.028,6.469,5.1,5.1,0,0,0,.211-6.874" transform="translate(0 0)" stroke="#f9f9f9" stroke-width="0.3"/>
        <path id="Path_24912" data-name="Path 24912" d="M41.354,36.3l-3.267-5a3.83,3.83,0,0,1-.369-.594.99.99,0,0,1,.373-1.349.967.967,0,0,1,1.376.242c.434.578.808,1.2,1.2,1.808.832,1.271,1.653,2.55,2.5,3.814a2.1,2.1,0,0,1,.03,2.488q-4.739,7.455-9.475,14.912a1.949,1.949,0,0,1-3.485,0q-4.749-7.449-9.476-14.912a2.1,2.1,0,0,1,.029-2.486q4.73-7.212,9.446-14.434a1.96,1.96,0,0,1,3.493.01c1.075,1.614,2.131,3.242,3.187,4.87.453.7.381,1.3-.171,1.657s-1.142.172-1.59-.506c-1.041-1.579-2.073-3.164-3.176-4.848-3.155,4.824-6.266,9.578-9.409,14.381.314.2.587.374.861.545,2.679,1.666,5.353,3.339,8.046,4.983a1.012,1.012,0,0,0,.85.1c2.972-1.813,5.922-3.662,8.877-5.506.037-.023.061-.069.15-.172m-2.483,4.289-.085-.1c-.2.114-.4.223-.588.343-1.766,1.095-3.543,2.173-5.29,3.3a1.529,1.529,0,0,1-1.867-.01c-1.785-1.153-3.6-2.255-5.409-3.374-.153-.1-.32-.168-.661-.344,2.405,3.785,4.688,7.378,7.01,11.035l6.89-10.851" transform="translate(-0.354 -0.343)" fill="#0c9eda" stroke="#f9f9f9" stroke-width="0.3"/>
      </g>
    </g>
  </g>
</svg>
