<svg xmlns="http://www.w3.org/2000/svg" xmlns:xlink="http://www.w3.org/1999/xlink" width="63.844" height="63.853" viewBox="0 0 63.844 63.853">
  <defs>
    <clipPath id="clip-path">
      <rect id="Rectangle_8264" data-name="Rectangle 8264" width="63.844" height="63.853" fill="none"/>
    </clipPath>
  </defs>
  <g id="Group_15128" data-name="Group 15128" transform="translate(-405.778 -3343)">
    <g id="Group_15100" data-name="Group 15100" transform="translate(405.778 3343)">
      <g id="Group_15100-2" data-name="Group 15100" clip-path="url(#clip-path)">
        <path id="Path_24889" data-name="Path 24889" d="M61.715,40.945v-30.3c0-1.309-.272-1.574-1.609-1.575-.532,0-1.064.015-1.6-.006a1,1,0,0,1-1.06-1.034,1,1,0,0,1,1.077-1.081c.776-.02,1.554-.034,2.327.006a3.2,3.2,0,0,1,2.978,2.963c.016.221.009.443.009.665q0,18.688,0,37.378c0,2.434-1.245,3.676-3.687,3.676H3.7c-2.443,0-3.7-1.245-3.7-3.669Q0,29.278,0,10.588c0-2.4,1.252-3.648,3.645-3.649.533,0,1.064-.01,1.6,0,.751.018,1.16.412,1.149,1.081a1.014,1.014,0,0,1-1.122,1.04c-.6.016-1.2,0-1.8.006-1,.007-1.342.356-1.343,1.373q0,6.717,0,13.434V40.945Zm-59.587,2.2v4.7c0,1.407.247,1.651,1.666,1.651H60.036c.155,0,.311,0,.465,0a1.076,1.076,0,0,0,1.21-1.239c.01-1.6,0-3.191,0-4.787a2.629,2.629,0,0,0-.042-.329Z" transform="translate(0 -0.554)"/>
        <path id="Path_24890" data-name="Path 24890" d="M53.941,10.673H11.381V36.685a6.143,6.143,0,0,1-.011.664,1,1,0,0,1-1.076.952,1,1,0,0,1-1.029-.934,4.463,4.463,0,0,1-.012-.6q0-16.591,0-33.182A3.233,3.233,0,0,1,12.823,0H52.516a3.229,3.229,0,0,1,3.553,3.54q0,16.69,0,33.38c0,.923-.3,1.343-.972,1.394a1.011,1.011,0,0,1-1.145-.94,6.412,6.412,0,0,1-.01-.665V10.673Zm0-2.184V3.771c0-1.384-.253-1.642-1.607-1.642H12.979c-.133,0-.267,0-.4,0-.8.024-1.18.386-1.2,1.184-.015.776,0,1.552,0,2.327V8.489Z" transform="translate(-0.74 0)"/>
        <path id="Path_24891" data-name="Path 24891" d="M26.612,62.069H40.26c-.129-.187-.224-.319-.315-.456-.473-.72-.979-1.422-1.407-2.169a1.065,1.065,0,0,1,.4-1.585c.562-.267,1.077,0,1.491.6.672.982,1.406,1.921,2.125,2.868a1.919,1.919,0,0,0,1.85.776,4.713,4.713,0,0,1,1.576.125,3.136,3.136,0,0,1,2.314,2.919c.025.73.021,1.463,0,2.194a1.063,1.063,0,0,1-1.128,1.127c-.155.008-.31,0-.465,0h-26.6c-1.309,0-1.6-.289-1.6-1.6,0-.554-.013-1.109.006-1.662a3.047,3.047,0,0,1,3.16-3.079,3.515,3.515,0,0,0,3.393-1.684c.475-.637.9-1.309,1.317-1.988.383-.629.924-.874,1.486-.605a1.067,1.067,0,0,1,.4,1.587c-.5.878-1.077,1.715-1.656,2.625m19.524,4.252c.136-1.867-.077-2.1-1.836-2.1H22.234c-.2,0-.4-.01-.6.007a.988.988,0,0,0-.977.914,9.35,9.35,0,0,0-.01,1.182Z" transform="translate(-1.481 -4.623)"/>
        <path id="Path_24892" data-name="Path 24892" d="M37.4,16.191a1.067,1.067,0,0,1,1.094,1.488c-.633,1.956-1.286,3.905-1.936,5.855q-2.115,6.355-4.237,12.707c-.348,1.043-.806,1.407-1.495,1.185-.732-.236-.883-.782-.518-1.876q3.063-9.186,6.122-18.373c.183-.552.449-.958.971-.986" transform="translate(-2.411 -1.296)" fill="#0c9eda"/>
        <path id="Path_24893" data-name="Path 24893" d="M20.078,27.207c1.763,1.467,3.462,2.879,5.155,4.3a2.174,2.174,0,0,1,.547.567,1.063,1.063,0,0,1-1.661,1.27q-2.1-1.739-4.184-3.484c-.681-.567-1.365-1.128-2.04-1.7a1.086,1.086,0,0,1-.006-1.887q3.028-2.539,6.066-5.064a1.1,1.1,0,0,1,1.645-.026c.438.508.335,1.138-.294,1.666-1.713,1.436-3.431,2.865-5.228,4.363" transform="translate(-1.388 -1.667)" fill="#0c9eda"/>
        <path id="Path_24894" data-name="Path 24894" d="M48.558,27.192l-4.407-3.684c-.323-.27-.659-.525-.969-.81a1.041,1.041,0,0,1-.157-1.482,1.02,1.02,0,0,1,1.482-.165q3.229,2.659,6.42,5.368c.6.509.492,1.181-.191,1.754q-2.8,2.347-5.612,4.681c-.187.155-.368.318-.563.465a1.065,1.065,0,1,1-1.329-1.656c1.611-1.354,3.231-2.7,4.845-4.044.148-.123.289-.257.48-.428" transform="translate(-3.423 -1.665)" fill="#0c9eda"/>
        <path id="Path_24895" data-name="Path 24895" d="M34.482,50.708c-.687,0-1.374.011-2.062,0a1.048,1.048,0,0,1-1.155-1.023,1.069,1.069,0,0,1,1.165-1.092q2.062-.022,4.123,0a1.056,1.056,0,0,1,1.148,1.1,1.031,1.031,0,0,1-1.157,1.011c-.687.01-1.374,0-2.062,0" transform="translate(-2.503 -3.889)"/>
        <path id="Path_24896" data-name="Path 24896" d="M46.707,6.756c-2.039,0-4.076,0-6.115,0-.863,0-1.293-.374-1.277-1.084.015-.665.454-1.04,1.267-1.04q6.182-.007,12.362,0c.8,0,1.253.4,1.257,1.056s-.455,1.065-1.247,1.067c-2.083.007-4.165,0-6.247,0" transform="translate(-3.147 -0.37)"/>
        <path id="Path_24897" data-name="Path 24897" d="M16,5.7a1.058,1.058,0,1,1-1.052-1.065A1.073,1.073,0,0,1,16,5.7" transform="translate(-1.112 -0.371)"/>
        <path id="Path_24898" data-name="Path 24898" d="M19.566,6.75A1.059,1.059,0,1,1,20.63,5.695,1.07,1.07,0,0,1,19.566,6.75" transform="translate(-1.482 -0.371)"/>
        <path id="Path_24899" data-name="Path 24899" d="M24.223,4.632a1.059,1.059,0,1,1-1.084,1.032,1.069,1.069,0,0,1,1.084-1.032" transform="translate(-1.852 -0.371)"/>
      </g>
    </g>
  </g>
</svg>
