<svg xmlns="http://www.w3.org/2000/svg" xmlns:xlink="http://www.w3.org/1999/xlink" width="62.037" height="65.769" viewBox="0 0 62.037 65.769">
  <defs>
    <clipPath id="clip-path">
      <rect id="Rectangle_8267" data-name="Rectangle 8267" width="62.037" height="65.769" transform="translate(0 0)" fill="none" stroke="#f9f9f9" stroke-width="0.7"/>
    </clipPath>
  </defs>
  <g id="Group_15131" data-name="Group 15131" transform="translate(-1450.114 -3342)">
    <g id="Group_15105" data-name="Group 15105" transform="translate(1444 3335.518)">
      <g id="Group_15104" data-name="Group 15104" transform="translate(6.114 6.482)" clip-path="url(#clip-path)">
        <path id="Path_24913" data-name="Path 24913" d="M31.637,0q6.221,3.6,12.445,7.211c2.869,1.661,5.743,3.317,8.647,4.994A5.735,5.735,0,0,1,55.7,10.642a5.381,5.381,0,0,1,2.916,10.307A.923.923,0,0,0,57.9,22c.021,7.651,0,15.3.03,22.953a2.027,2.027,0,0,1-1.146,2.006c-6.689,3.827-13.355,7.7-20.036,11.536a.73.73,0,0,0-.432.9,5.142,5.142,0,0,1-2.31,5.4,5.05,5.05,0,0,1-5.867.071,5.168,5.168,0,0,1-2.456-5.337c.028-.231.071-.46.114-.733l-4.776-2.76q-7.98-4.609-15.966-9.21A1.711,1.711,0,0,1,4.1,45.166q.024-11.669.014-23.339c0-.389-.036-.625-.495-.8a5.21,5.21,0,0,1-3.6-4.713,5.244,5.244,0,0,1,2.988-5.189,5.246,5.246,0,0,1,5.939.758c.1.08.2.166.294.248a.641.641,0,0,0,.108.048l3.687-2.126q8.4-4.847,16.8-9.7c.181-.105.346-.24.519-.36ZM51.421,14.446c-.1-.068-.206-.142-.315-.2Q41.261,8.552,31.422,2.858a.751.751,0,0,0-.874.057Q20.817,8.54,11.076,14.148a.65.65,0,0,0-.391.8A5.294,5.294,0,0,1,7.26,20.995a.755.755,0,0,0-.586.87q.024,11.125,0,22.249a.989.989,0,0,0,.562,1.01c4.387,2.507,8.759,5.04,13.135,7.566q3.359,1.94,6.709,3.869a5.546,5.546,0,0,1,7.856-.01,2.516,2.516,0,0,0,.233-.1q9.874-5.7,19.752-11.394a.8.8,0,0,0,.426-.829q-.011-11.189.007-22.378a.752.752,0,0,0-.612-.863,4.227,4.227,0,0,1-1.187-.62,5.391,5.391,0,0,1-2.133-5.915m-43.2,1.54A2.827,2.827,0,1,0,5.38,18.778a2.839,2.839,0,0,0,2.845-2.793m51.225-.011a2.808,2.808,0,0,0-2.774-2.851,2.827,2.827,0,1,0-.048,5.654,2.806,2.806,0,0,0,2.822-2.8M33.834,60.319a2.814,2.814,0,0,0-2.8-2.825,2.828,2.828,0,1,0,.005,5.656,2.818,2.818,0,0,0,2.8-2.831" transform="translate(0 0)" stroke="#f9f9f9" stroke-width="0.7"/>
        <path id="Path_24914" data-name="Path 24914" d="M51.783,32.72c0,3.15-.014,6.3.01,9.451a1.654,1.654,0,0,1-.924,1.609Q42.654,48.5,34.464,53.255a1.681,1.681,0,0,1-1.862,0Q24.408,48.5,16.194,43.782a1.72,1.72,0,0,1-.947-1.667q.024-9.419,0-18.838a1.762,1.762,0,0,1,1-1.7q8.163-4.677,16.3-9.408a1.767,1.767,0,0,1,1.974-.008q8.135,4.728,16.3,9.408a1.742,1.742,0,0,1,.987,1.7c-.03,3.15-.013,6.3-.013,9.451m-2.572-7.559c-.307.163-.512.263-.71.377q-7.008,4.042-14.009,8.1a1.7,1.7,0,0,1-1.911,0q-6.989-4.074-14.008-8.1c-.215-.124-.435-.236-.709-.385-.018.194-.033.295-.033.4,0,5.249,0,10.5-.013,15.749a.746.746,0,0,0,.49.724q6.677,3.845,13.349,7.7c.16.092.331.165.578.288v-.7c0-1.607-.006-3.214,0-4.822a1.334,1.334,0,0,1,1.311-1.5c.762.012,1.251.576,1.256,1.476.008,1.328,0,2.656,0,3.985v1.58c.21-.1.326-.142.432-.2Q42.024,45.909,48.812,42a.794.794,0,0,0,.4-.838q-.01-5.849,0-11.7ZM47.9,22.908c-.15-.106-.226-.17-.312-.22q-6.836-3.948-13.668-7.906a.742.742,0,0,0-.868.065q-5.415,3.136-10.837,6.263L19.17,22.867c.2.134.333.236.477.319q6.724,3.887,13.445,7.779a.8.8,0,0,0,.929-.032q6.412-3.721,12.837-7.419c.328-.19.656-.382,1.039-.606" transform="translate(-2.51 -1.953)" fill="#0c9eda" stroke="#f9f9f9" stroke-width="0.7"/>
        <path id="Path_24915" data-name="Path 24915" d="M38.148,43.448a1.274,1.274,0,0,1-1.277,1.309,1.282,1.282,0,1,1,.01-2.564,1.271,1.271,0,0,1,1.267,1.255" transform="translate(-5.86 -6.948)" stroke="#f9f9f9" stroke-width="0.7"/>
      </g>
    </g>
  </g>
</svg>
