<svg id="Layer_1" data-name="Layer 1" xmlns="http://www.w3.org/2000/svg" xmlns:xlink="http://www.w3.org/1999/xlink" viewBox="0 0 250 250"><defs><style>.cls-1{fill:url(#linear-gradient);}.cls-2{fill:#fff;stroke:#fff;stroke-miterlimit:10;}</style><linearGradient id="linear-gradient" x1="125" y1="50" x2="125" y2="-200" gradientTransform="translate(0 200)" gradientUnits="userSpaceOnUse"><stop offset="0" stopColor="#fbb040"/><stop offset="1" stopColor="#ed8b00"/></linearGradient></defs><circle className="cls-1" cx="125" cy="125" r="125"/><path className="cls-2" d="M51.17,108.35q7.52-11.1,15-22.22,5.05-7.47,10.06-15A2.22,2.22,0,0,1,78.34,70q46.71,0,93.43.06a2.55,2.55,0,0,1,1.86.91q12.48,18.39,24.84,36.85c.11.15.19.33.36.62L126.9,190l-1.13-1.18-73.35-79c-.39-.42-.83-.78-1.25-1.17Zm75.18,60.72h.31q8.46-28.26,17-56.62H106.85C113.38,131.4,119.86,150.23,126.35,169.07Zm10.44-3.77.29.13c15.53-17.61,31.06-35.21,46.79-53.06h-1.64c-9.37,0-18.74,0-28.11,0a1.7,1.7,0,0,0-2,1.48q-6,20.25-12.1,40.46C139,158,137.88,161.63,136.79,165.3Zm-21.19-.09.19-.12c-.09-.31-.15-.63-.26-.93q-8.72-25.36-17.41-50.72a1.37,1.37,0,0,0-1.54-1.09c-9.61,0-19.23,0-28.84,0a7.75,7.75,0,0,0-1,.16Zm-6.3-61.6h31.62l-15.81-21.9Zm7.33-24.87H87.22L101,100.37Zm16.94,0,15.64,21.68L163,78.7Zm-40.69,25L79.22,82.22,64.8,103.66Zm64.47,0h27.93c-4.82-7.15-9.53-14.14-14.35-21.31Z"/></svg>