<svg id="design" xmlns="http://www.w3.org/2000/svg" xmlns:xlink="http://www.w3.org/1999/xlink" viewBox="0 0 100 100"><defs><style>.cls-1{fill:url(#linear-gradient);}</style><linearGradient id="linear-gradient" x1="50" y1="100" x2="50" y2="29.31" gradientUnits="userSpaceOnUse"><stop offset="0" stopColor="#fbb040"/><stop offset="1" stopColor="#ed8b00"/></linearGradient></defs><path className="cls-1" d="M91.06,88.21h8.78a1.73,1.73,0,0,0,.14-1c0-9.47,0-18.94,0-28.41a2.76,2.76,0,0,0-.49-1.62q-6-9-12.05-18.09a1.7,1.7,0,0,0-1.63-.89c-6.67,0-13.34,0-20,0A2,2,0,0,1,64.68,38V29.34H1.17c-.39,0-.78,0-1.17,0V88.09c2.56.19,5.13,0,7.69.08.39,0,.77,0,1.21,0a10.93,10.93,0,0,0,.95,6H0V100c.39,0,.78,0,1.17,0H99.92V94.1h-9.7A11.41,11.41,0,0,0,91.06,88.21ZM76.52,44.08a24.56,24.56,0,0,0,3.93,0c2.5-.41,3.89.64,5.16,2.75,2.37,4,5,7.73,7.64,11.53a4.23,4.23,0,0,1,.8,3.35H76.52ZM52.93,52.86V47.07h5.8V64.6H41.25V47.07h5.8v5.79Zm-47-17.59h52.8v5.85H11.8V64.6H5.93Zm23.44,17.6V47.09h5.87V64.58H17.69V47.08h5.85v5.79ZM19,94.06a4.41,4.41,0,0,1,.07-8.82A4.41,4.41,0,1,1,19,94.06Zm6.71-12.25a10.19,10.19,0,0,0-13.32,0c-.22.19-.4.43-.73.43-1.91,0-3.83,0-5.78,0V70.57H58.76V82.18a1.43,1.43,0,0,1-.86.09q-15.37,0-30.75,0A2,2,0,0,1,25.74,81.81ZM28.52,94a20.83,20.83,0,0,0,.77-2.78,10.69,10.69,0,0,0,0-3H70.68A10.71,10.71,0,0,0,71.53,94Zm52.26,0a4.41,4.41,0,0,1,0-8.82,4.41,4.41,0,1,1,0,8.82Zm6.77-12.23a10.2,10.2,0,0,0-13.24-.07,2,2,0,0,1-1.39.53c-2.7,0-5.4,0-8.2,0V44.16h5.81v23.4H94.06v14.7H88.17C87.89,82.26,87.74,82,87.55,81.83Z"/></svg>