<svg id="design" xmlns="http://www.w3.org/2000/svg" xmlns:xlink="http://www.w3.org/1999/xlink" viewBox="0 0 100 100"><defs><style>.cls-1{fill:url(#linear-gradient);}.cls-2{fill:url(#linear-gradient-2);}</style><linearGradient id="linear-gradient" x1="50" y1="100" x2="50" gradientUnits="userSpaceOnUse"><stop offset="0" stopColor="#fbb040"/><stop offset="1" stopColor="#ed8b00"/></linearGradient><linearGradient id="linear-gradient-2" x1="67.66" y1="88.21" x2="67.66" y2="47.12" xlink:href="#linear-gradient"/></defs><path className="cls-1" d="M98.8,11.73q-23.28,0-46.57,0a2.17,2.17,0,0,1-1.71-.69c-2.13-2.19-4.32-4.33-6.47-6.5A14.9,14.9,0,0,0,33,0Q16.5,0,0,0V100H100V11.73ZM5.93,5.87H7c8.66,0,17.31,0,26,0A9.36,9.36,0,0,1,40,8.8c2.66,2.72,5.39,5.38,8.06,8.09a2.13,2.13,0,0,0,1.7.71q21.53,0,43,0h1.24v5.84H11.7V35.11H5.93ZM54.56,29.36C52.62,31.31,50.8,33.15,49,35a1.1,1.1,0,0,1-.71.19H18a2.89,2.89,0,0,1-.36-.06V29.36ZM94.07,94.1H5.92V41H7.1q21.57,0,43.15,0a2.13,2.13,0,0,0,1.69-.72c2.7-2.73,5.44-5.42,8.13-8.16A9.25,9.25,0,0,1,67,29.29c8.73,0,17.45,0,26.17,0h.93Z"/><path className="cls-2" d="M76.43,47.12H58.85V58.91H47.11V76.48H58.89V88.21h17.6V76.45H88.22V58.84H76.43Zm5.92,17.6v5.89H70.64V82.34H64.77V70.63H53V64.79H64.7V53h5.88V64.72Z"/></svg>