<svg id="design" xmlns="http://www.w3.org/2000/svg" xmlns:xlink="http://www.w3.org/1999/xlink" viewBox="0 0 56 56"><defs><style>.cls-1{fill:#bdf5d0;}.cls-2{fill:none;stroke:#333;stroke-linecap:round;stroke-linejoin:round;stroke-width:2px;}.cls-3{fill:url(#linear-gradient);}</style><linearGradient id="linear-gradient" x1="8.88" y1="38.99" x2="8.88" y2="24.68" gradientUnits="userSpaceOnUse"><stop offset="0" stopColor="#bdf4d0"/><stop offset="0.11" stopColor="#bdf4d0" stop-opacity="0.79"/><stop offset="0.23" stopColor="#bdf4d0" stop-opacity="0.58"/><stop offset="0.36" stopColor="#bdf4d0" stop-opacity="0.4"/><stop offset="0.48" stopColor="#bdf4d0" stop-opacity="0.26"/><stop offset="0.61" stopColor="#bdf4d0" stop-opacity="0.14"/><stop offset="0.74" stopColor="#bdf4d0" stop-opacity="0.06"/><stop offset="0.87" stopColor="#bdf4d0" stop-opacity="0.02"/><stop offset="1" stopColor="#bdf4d0" stop-opacity="0"/></linearGradient></defs><rect className="cls-1" x="34.46" y="1.3" width="20.81" height="20.33" rx="2.23"/><line className="cls-2" x1="29.58" y1="45.37" x2="37.97" y2="45.37"/><line className="cls-2" x1="29.58" y1="49.7" x2="46.36" y2="49.7"/><line className="cls-2" x1="29.58" y1="53.7" x2="46.36" y2="53.7"/><polyline className="cls-2" points="24.45 18.8 31.13 12.11 37 12.11"/><polygon className="cls-3" points="1.73 21.27 16.03 26.84 16.03 45.84 1.73 40.26 1.73 21.27"/><polygon className="cls-2" points="1.73 21.27 16.03 26.84 16.03 45.84 1.73 40.26 1.73 21.27"/><polygon className="cls-2" points="15.9 45.84 30.21 40.26 30.21 21.27 15.9 26.84 15.9 45.84"/><polygon className="cls-2" points="15.9 15.69 1.73 21.27 15.9 26.84 30.21 21.27 15.9 15.69"/><path className="cls-2" d="M38.88,7.84a7,7,0,1,1-.81,5.29,7,7,0,0,1,.81-5.29Z"/><path className="cls-2" d="M44.86,12.47v-3"/><path className="cls-2" d="M47.86,12.47h-3"/></svg>