<svg xmlns="http://www.w3.org/2000/svg" width="44.846" height="53.841" viewBox="0 0 44.846 53.841"><defs><style>.a{fill:#0c9eda;}</style></defs><g transform="translate(-449.519 -764.088)"><path d="M486.2,831.258a11.68,11.68,0,0,0-1.672-7.48,22.278,22.278,0,0,0-2.421-3.442c-4.036-4.777-5.277-10.167-3.238-16.074a15.348,15.348,0,0,1,12.423-10.607,16.029,16.029,0,0,1,18.759,13.738,15.683,15.683,0,0,1-4,12.9,17.378,17.378,0,0,0-4.121,8.122,6.1,6.1,0,0,0-.011,1.19c.451.089.922.224.924.811s-.424.769-.937.823v1.553c.469.065.9.2.938.757.039.638-.468.763-.927.893-.206,2.013-1.117,3.145-2.786,3.484a2.719,2.719,0,0,0-2.259,1.439,3.48,3.48,0,0,1-6.081-.921.575.575,0,0,0-.658-.473,7.368,7.368,0,0,1-1.709-.119,2.781,2.781,0,0,1-1.844-1.49c-.082-.15-.262-.341-.4-.347-.5-.021-.843-.216-.88-.727s.313-.752.785-.834a.936.936,0,0,0,.166-.065v-1.507c-.541-.021-.99-.168-1.039-.783C485.163,831.64,485.479,831.389,486.2,831.258Zm12.165-3.335c.569,0,1.065-.026,1.557.008.411.028.566-.117.663-.524a18.764,18.764,0,0,1,4.324-8.153,14.217,14.217,0,0,0,3.515-12.267,14.569,14.569,0,1,0-25.372,12.039,20.1,20.1,0,0,1,4.56,8.525c.03.128.177.32.278.325.6.03,1.212.015,1.861.015-.039-.214-.059-.358-.092-.5q-1.66-7.136-3.325-14.271c-.088-.377-.164-.8.217-1a1.426,1.426,0,0,1,.98-.05c.934.293,1.851.648,2.762,1.008a.9.9,0,0,0,.926-.077c.712-.467,1.467-.867,2.177-1.336a1.112,1.112,0,0,1,1.378.015c.725.48,1.473.929,2.236,1.345a1.062,1.062,0,0,0,.758.064c.948-.314,1.868-.713,2.82-1.01a1.233,1.233,0,0,1,1.006.076,1.219,1.219,0,0,1,.183,1c-.874,3.861-1.784,7.715-2.683,11.571C498.849,825.764,498.616,826.805,498.361,827.923Zm-10.2-13.994a2.359,2.359,0,0,0,.017.311q1.55,6.648,3.095,13.3c.081.352.276.375.557.374,1.483-.006,2.965-.016,4.448.007.394.006.535-.123.623-.5,1-4.345,2.019-8.685,3.03-13.027a3,3,0,0,0,.03-.451c-.743.277-1.423.516-2.091.784a1.258,1.258,0,0,1-1.258-.113c-.666-.435-1.372-.809-2.035-1.249a.764.764,0,0,0-.987-.013,21.338,21.338,0,0,1-2.19,1.312,1.473,1.473,0,0,1-.984.081C489.668,814.528,488.951,814.222,488.158,813.93Zm-.322,20.354L500.3,833v-1.62l-12.46,1.277Zm12.458.271-12.238,1.257a1.486,1.486,0,0,0,1.266.626q2.137-.009,4.273-.011c1.646,0,3.293.022,4.939,0A1.736,1.736,0,0,0,500.294,834.555Zm-12.468-3.463c.23-.011.4-.012.56-.029q5.738-.593,11.474-1.2a1.449,1.449,0,0,0,.457-.241,1.571,1.571,0,0,0-.471-.162c-1.867-.011-3.735-.008-5.6-.008h-6.419Zm4.485,6.917a1.8,1.8,0,0,0,1.913,1.211,1.656,1.656,0,0,0,1.567-1.211Z" transform="translate(-22.129 -22.848)"/><path className="a" d="M451.824,864.1c-.5,0-1,.009-1.5,0a.768.768,0,1,1,.009-1.534c1.018-.017,2.036-.014,3.054,0a.742.742,0,0,1,.8.745.752.752,0,0,1-.813.789C452.861,864.11,452.342,864.1,451.824,864.1Z" transform="translate(0 -76.772)"/><path className="a" d="M634.245,862.558c.463,0,.926-.008,1.388,0,.559.011.9.306.912.76s-.339.774-.889.779q-1.471.015-2.942,0a.771.771,0,1,1-.023-1.536C633.208,862.544,633.727,862.558,634.245,862.558Z" transform="translate(-142.181 -76.775)"/><path className="a" d="M466.674,815.558c.006.662-.55,1.075-1.042.819-1-.52-1.971-1.09-2.929-1.682a.671.671,0,0,1-.2-.98.691.691,0,0,1,.96-.3c.978.52,1.933,1.084,2.877,1.664C466.522,815.187,466.6,815.452,466.674,815.558Z" transform="translate(-10.028 -38.39)"/><path className="a" d="M625.026,814.37a1.755,1.755,0,0,1-.419.508c-.863.534-1.748,1.034-2.635,1.528a.767.767,0,1,1-.772-1.318c.873-.518,1.75-1.032,2.641-1.518C624.43,813.25,625.04,813.6,625.026,814.37Z" transform="translate(-133.518 -38.49)"/><path className="a" d="M589.73,780.933a6.645,6.645,0,0,1,.264-.632q.682-1.2,1.381-2.4c.313-.535.71-.692,1.13-.466s.506.7.194,1.246q-.713,1.251-1.445,2.49a.671.671,0,0,1-.883.366A2.766,2.766,0,0,1,589.73,780.933Z" transform="translate(-109.326 -10.33)"/><path className="a" d="M463.684,907.949c-.207-.2-.532-.378-.589-.618a.929.929,0,0,1,.245-.815,30.078,30.078,0,0,1,2.931-1.678.9.9,0,0,1,.834.27c.141.2.128.776-.022.874-1.016.666-2.086,1.249-3.14,1.855a.424.424,0,0,1-.164.016Z" transform="translate(-10.573 -109.723)"/><path className="a" d="M624.637,906.73c-.017.7-.56,1.076-1.065.81-.98-.516-1.938-1.078-2.879-1.664a.667.667,0,0,1-.19-.981.678.678,0,0,1,.954-.3c.956.522,1.9,1.064,2.831,1.635C624.478,906.347,624.568,906.627,624.637,906.73Z" transform="translate(-133.216 -109.483)"/><path className="a" d="M501.559,781.238c-.2.209-.37.533-.607.594a.922.922,0,0,1-.815-.226c-.613-.942-1.165-1.925-1.7-2.914a.608.608,0,0,1,.306-.888c.259-.1.777-.078.883.084.654,1,1.224,2.055,1.818,3.094a.448.448,0,0,1,.02.164Z" transform="translate(-38.075 -10.648)"/><path className="a" d="M547.572,766.415c0-.518-.011-1.036,0-1.553a.755.755,0,1,1,1.509,0q.02,1.553,0,3.106a.755.755,0,1,1-1.509,0C547.562,767.451,547.572,766.933,547.572,766.415Z" transform="translate(-76.451 0)"/></g></svg>