<svg xmlns="http://www.w3.org/2000/svg" width="56" height="56" viewBox="0 0 56 56"><defs><style>.a{fill:#fff;}.b{fill:#12b2f3;}.c{fill:#021f3e;}</style></defs><g transform="translate(-416 -3817)"><path className="a" d="M10,0H56a0,0,0,0,1,0,0V46A10,10,0,0,1,46,56H10A10,10,0,0,1,0,46V10A10,10,0,0,1,10,0Z" transform="translate(416 3817)"/><g transform="translate(-55.833 -628.847)"><rect className="b" width="4" height="6" transform="translate(498 4483)"/><g transform="translate(426.007 4458)"><path className="c" d="M86.659,0H60.993V9.871h5.923V21.717h13.82V9.871h5.923ZM68.89,17.938a2.975,2.975,0,0,1,1.8,1.8h-1.8Zm3.849,1.8a4.95,4.95,0,0,0-3.849-3.849V5.923h2q-.026.488-.026.987c0,3.439.916,6.91,2.961,6.91s2.961-3.471,2.961-6.91q0-.5-.026-.987h2v9.971a4.95,4.95,0,0,0-3.849,3.849Zm2.044-13.82c.019.324.029.653.029.987,0,2.728-.622,4.383-.987,4.846-.365-.463-.987-2.118-.987-4.846,0-.334.01-.663.029-.987Zm2.173,13.82a2.975,2.975,0,0,1,1.8-1.8v1.8ZM84.684,7.9H80.736V5.923H82.71V3.949H64.942V5.923h1.974V7.9H62.967V1.974H84.684Z"/><path className="c" d="M167.536,360h-5.923v3.949h-3.479l6.44,6.054,6.44-6.054h-3.479V360Zm-2.961,7.293-1.457-1.37h.47v-3.949h1.974v3.949h.47Z" transform="translate(-90.749 -336.309)"/></g></g></g></svg>