<svg xmlns="http://www.w3.org/2000/svg" width="56" height="56" viewBox="0 0 56 56"><defs><style>.a{fill:#fff;}.b{fill:#12b2f3;}.c{fill:#021f3e;stroke:#021f3e;}</style></defs><g transform="translate(-1106 -3819)"><path className="a" d="M10,0H56a0,0,0,0,1,0,0V46A10,10,0,0,1,46,56H10A10,10,0,0,1,0,46V10A10,10,0,0,1,10,0Z" transform="translate(1106 3819)"/><g transform="translate(633.708 -901.242)"><path className="b" d="M0,0H15V9s.137,1.268-3.613,1.268A99.25,99.25,0,0,1,0,9Z" transform="translate(498 4748)"/><g transform="translate(486 4688.025)"><g transform="translate(0 50.758)"><g transform="translate(0)"><path className="c" d="M20.784,50.758H1.61A1.611,1.611,0,0,0,0,52.368v11.5a1.611,1.611,0,0,0,1.61,1.61H2.853v4.283A.674.674,0,0,0,4,70.24l4.759-4.759h.955a.674.674,0,0,0,0-1.349s-1.267,0-1.28,0a.672.672,0,0,0-.431.2L4.2,68.135s0-3.372,0-3.389a.674.674,0,0,0-.671-.614H1.61a.261.261,0,0,1-.261-.261v-11.5a.261.261,0,0,1,.261-.261H20.784a.261.261,0,0,1,.261.261v4.413a.674.674,0,1,0,1.349,0V52.368A1.611,1.611,0,0,0,20.784,50.758Z" transform="translate(0 -50.758)"/></g></g><g transform="translate(11.943 59.006)"><g transform="translate(0 0)"><path className="c" d="M228.954,198.492H215.533a1.611,1.611,0,0,0-1.61,1.61v7.848a1.611,1.611,0,0,0,1.61,1.61h8.4l3.4,3.4a.674.674,0,0,0,1.151-.477v-2.928h.463a1.611,1.611,0,0,0,1.61-1.61V200.1A1.611,1.611,0,0,0,228.954,198.492Zm.261,9.457a.261.261,0,0,1-.261.261h-1.138a.674.674,0,0,0-.672.622c0,.015,0,2.026,0,2.026l-2.448-2.448-.008-.008-.027-.025a.671.671,0,0,0-.444-.168h-8.683a.261.261,0,0,1-.261-.261V200.1a.261.261,0,0,1,.261-.261h13.422a.261.261,0,0,1,.261.261Z" transform="translate(-213.923 -198.492)"/></g></g><g transform="translate(19.589 63.865)"><path className="c" d="M351.56,285.53a.674.674,0,1,0,.674.674A.675.675,0,0,0,351.56,285.53Z" transform="translate(-350.886 -285.53)"/></g><g transform="translate(4.387 55.216)"><g transform="translate(0 0)"><path className="c" d="M91.519,130.611H79.246a.674.674,0,1,0,0,1.349H91.519a.674.674,0,1,0,0-1.349Z" transform="translate(-78.572 -130.611)"/></g></g><g transform="translate(4.387 59.674)"><g transform="translate(0 0)"><path className="c" d="M83.9,210.465H79.246a.674.674,0,1,0,0,1.349H83.9a.674.674,0,1,0,0-1.349Z" transform="translate(-78.572 -210.465)"/></g></g><g transform="translate(16.456 63.865)"><path className="c" d="M295.433,285.53a.674.674,0,1,0,.674.674A.675.675,0,0,0,295.433,285.53Z" transform="translate(-294.759 -285.53)"/></g><g transform="translate(22.722 63.865)"><path className="c" d="M407.675,285.53a.674.674,0,1,0,.674.674A.675.675,0,0,0,407.675,285.53Z" transform="translate(-407.001 -285.53)"/></g></g></g></g></svg>