<svg xmlns="http://www.w3.org/2000/svg" width="43.65" height="39.081" viewBox="0 0 43.65 39.081"><defs><style>.a{fill:#12b2f3;}</style></defs><g transform="translate(-744.766 -346.884)"><path d="M788.416,381.556a12.1,12.1,0,0,1-.752,1.971,4.928,4.928,0,0,1-4.573,2.438q-7.777-.007-15.554,0-8.694,0-17.387,0a5.513,5.513,0,0,1-3.223-.907,4.913,4.913,0,0,1-1.656-6.194c1.1-2.1,2.328-4.127,3.512-6.179q6.648-11.523,13.3-23.042a4.987,4.987,0,0,1,4.013-2.734,4.644,4.644,0,0,1,4.61,2.162c1.335,2.108,2.539,4.3,3.789,6.462q6.509,11.259,13,22.529a18.255,18.255,0,0,1,.922,2.215Zm-21.837,3.016q8.244,0,16.489,0a3.935,3.935,0,0,0,2.589-.789,3.638,3.638,0,0,0,.759-4.866q-7.59-13.138-15.184-26.274c-.539-.933-1.049-1.888-1.643-2.785a3.428,3.428,0,0,0-3.406-1.574,3.673,3.673,0,0,0-2.9,2.042q-6.736,11.69-13.49,23.369-1.533,2.654-3.066,5.307a3.517,3.517,0,0,0-.219,3.459,3.6,3.6,0,0,0,3.543,2.111Q758.313,384.562,766.579,384.572Z"/><path className="a" d="M795.918,371.787a3.033,3.033,0,0,1,2.991,3.353q-.423,5.5-.83,10.992a2.212,2.212,0,0,1-1.94,2.183,2.1,2.1,0,0,1-2.257-1.489,8.824,8.824,0,0,1-.206-1.64q-.39-5.05-.761-10.1A3.017,3.017,0,0,1,795.918,371.787Zm-1.653,3.543.054.007q.393,5.243.784,10.486c.056.76.32,1.139.828,1.123.492-.016.735-.381.788-1.119.125-1.755.264-3.51.4-5.264.142-1.882.292-3.764.418-5.647a1.629,1.629,0,0,0-1.281-1.725,1.587,1.587,0,0,0-1.844,1.015A5.686,5.686,0,0,0,794.265,375.33Z" transform="translate(-28.932 -14.967)"/><path className="a" d="M799.027,421.5a2.792,2.792,0,1,1-2.772-2.858A2.807,2.807,0,0,1,799.027,421.5Zm-1.378-.056a1.415,1.415,0,1,0-1.43,1.433A1.424,1.424,0,0,0,797.649,421.442Z" transform="translate(-29.255 -43.125)"/></g></svg>