<svg xmlns="http://www.w3.org/2000/svg" width="56" height="56" viewBox="0 0 56 56"><defs><style>.a{fill:#fff;}.b{fill:#12b2f3;}.c{fill:#021f3e;stroke:#021e3e;stroke-width:0.7px;}</style></defs><g transform="translate(-761 -3817)"><path className="a" d="M10,0H56a0,0,0,0,1,0,0V46A10,10,0,0,1,46,56H10A10,10,0,0,1,0,46V10A10,10,0,0,1,10,0Z" transform="translate(761 3817)"/><path className="b" d="M1192.043,3717.677l-1.6,1.457.583,1.748-.583,2.257,5.753,5.9,2.039-.583,2.039.583,1.675-1.675-.583-1.894-.364-1.02-2.767-1.311v1.675l-1.675.656h-1.6l-1.092-1.02v-1.311l.437-1.384.655-.874,1.238-.51,1.092-.8.364-1.311-1.456-.583-1.894.583Z" transform="translate(-411.977 116.793)"/><g transform="translate(774.603 3831.631)"><g transform="translate(7.994 22.034)"><path className="c" d="M153.786,384.278a.545.545,0,0,0-.03-.1.533.533,0,0,0-.048-.09.509.509,0,0,0-.144-.144.516.516,0,0,0-.091-.048.492.492,0,0,0-.1-.03.516.516,0,0,0-.2,0,.507.507,0,0,0-.1.03.531.531,0,0,0-.09.048.523.523,0,0,0-.193.234.507.507,0,0,0-.03.1.5.5,0,0,0,0,.2.491.491,0,0,0,.03.1.485.485,0,0,0,.048.091.508.508,0,0,0,.144.144.529.529,0,0,0,.09.048.513.513,0,0,0,.3.03.493.493,0,0,0,.1-.03.518.518,0,0,0,.091-.048.507.507,0,0,0,.144-.144.518.518,0,0,0,.048-.091.526.526,0,0,0,.03-.1.5.5,0,0,0,0-.2Z" transform="translate(-152.75 -383.857)"/></g><g transform="translate(0 18.165)"><path className="c" d="M24.072,314.373l-.006-.016a2.177,2.177,0,0,0-2.948-1.087l-3.646,1.008a2.39,2.39,0,0,0-1.48-1.457l-.014,0-4.008-1.36a4.134,4.134,0,0,0-3.335-1.534,4.185,4.185,0,0,0-3.269,1.96H.523a.523.523,0,0,0-.523.523V319a.523.523,0,0,0,.523.523H3.635A.523.523,0,0,0,4.158,319v-.452H5.617a.523.523,0,0,0,.523-.523v-.151a3.71,3.71,0,0,1,1.912.686,31.667,31.667,0,0,0,3.144,1.605l.023.01a4.7,4.7,0,0,0,1.684.317,4.171,4.171,0,0,0,1.734-.371l8.059-2.885.042-.017A2.234,2.234,0,0,0,24.072,314.373ZM3.112,318.48H1.047v-5.551H3.112Zm1.982-.975H4.158v-4.576h.936Zm17.225-1.243-8.055,2.884-.024.009-.021.009a3.392,3.392,0,0,1-2.606.044,30.3,30.3,0,0,1-3.038-1.552,4.71,4.71,0,0,0-2.434-.828v-4.215a3.232,3.232,0,0,1,2.5-1.645,3.02,3.02,0,0,1,2.562,1.2.524.524,0,0,0,.278.221l4.159,1.412a1.174,1.174,0,0,1,.854,1.385,1.02,1.02,0,0,1-1.253.7l-4.689-1.486a.523.523,0,0,0-.316,1l4.7,1.488.015,0a2.076,2.076,0,0,0,.568.08,2.069,2.069,0,0,0,1.984-1.5q.018-.064.032-.127l3.929-1.089c.567-.194,1.312-.264,1.644.5C23.444,315.658,22.551,316.152,22.319,316.262Z" transform="translate(0 -309.922)"/></g><g transform="translate(17.754 8.409)"><path className="c" d="M340.287,123.919a.509.509,0,0,0-.03-.1.516.516,0,0,0-.193-.234.532.532,0,0,0-.09-.048.521.521,0,0,0-.3-.03.492.492,0,0,0-.1.03.518.518,0,0,0-.091.048.509.509,0,0,0-.144.144.53.53,0,0,0-.048.09.5.5,0,0,0-.03.1.5.5,0,0,0,0,.2.489.489,0,0,0,.03.1.516.516,0,0,0,.048.091.509.509,0,0,0,.144.144.517.517,0,0,0,.091.048.53.53,0,0,0,.1.03.516.516,0,0,0,.1.01.526.526,0,0,0,.1-.01.555.555,0,0,0,.1-.03.532.532,0,0,0,.09-.048.509.509,0,0,0,.144-.144.487.487,0,0,0,.048-.091.493.493,0,0,0,.03-.1.528.528,0,0,0,0-.2Z" transform="translate(-339.25 -123.498)"/></g><g transform="translate(1.554 0)"><path className="c" d="M54.408,1.8H51.3a.523.523,0,0,0-.523.523v.452H49.314a.523.523,0,0,0-.523.523v.151a3.71,3.71,0,0,1-1.912-.686,31.666,31.666,0,0,0-3.144-1.605l-.023-.01a4.452,4.452,0,0,0-3.417.054l-2.106.754L36.414.177a.523.523,0,0,0-.74,0L29.846,6a.519.519,0,0,0,0,.74L39.8,16.7a.565.565,0,0,0,.74,0l5.32-5.32c.138.012.282.018.431.018a4.185,4.185,0,0,0,3.269-1.96h4.844a.523.523,0,0,0,.523-.523v-6.6A.523.523,0,0,0,54.408,1.8ZM36.044,1.287l1.193,1.193a2.282,2.282,0,0,1-2.386,0Zm-3.895,6.28L30.956,6.374l1.193-1.193a2.282,2.282,0,0,1,0,2.386Zm8.025,8.025L38.982,14.4a2.278,2.278,0,0,1,2.385,0Zm1.946-1.946a3.326,3.326,0,0,0-3.893,0L32.9,8.321a3.326,3.326,0,0,0,0-3.893L34.1,3.233a3.326,3.326,0,0,0,3.893,0l1.132,1.132a2.074,2.074,0,0,0-1.557,1.141A2.983,2.983,0,1,0,40.994,9.2l1.767.6a3.341,3.341,0,0,0,.554,2.652ZM38.939,8.5l.014,0L40,8.861a1.937,1.937,0,1,1-2.628-2.212A2.317,2.317,0,0,0,38.939,8.5Zm5.131,3.2a2.289,2.289,0,0,1-.334-1.088,4.069,4.069,0,0,0,.923.5Zm4.72-2.988a3.232,3.232,0,0,1-2.5,1.645,3.809,3.809,0,0,1-.546-.038h0a3,3,0,0,1-1.938-1.061c-.011-.016-.056-.075-.063-.085a.521.521,0,0,0-.288-.24L39.3,7.517a1.174,1.174,0,0,1-.854-1.385h0a1.02,1.02,0,0,1,1.252-.7l4.689,1.486a.523.523,0,0,0,.316-1L40.971,4.734,40.939,4.7h0L39.007,2.77l1.659-.594.018-.007.005,0,.021-.009a3.392,3.392,0,0,1,2.606-.044,30.314,30.314,0,0,1,3.039,1.552,4.71,4.71,0,0,0,2.434.828Zm1.983-.315h-.936V3.817h.936Zm3.112,0H51.819V2.842h2.065Z" transform="translate(-29.691 -0.023)"/></g></g></g></svg>