<svg xmlns="http://www.w3.org/2000/svg" width="401.286" height="273.768" viewBox="0 0 401.286 273.768"><defs><style>.a,.i{fill:#173d7a;}.a,.h{opacity:0.5;}.b{fill:#d4ecff;}.c{fill:#5793ce;}.d{fill:#396caa;}.e{fill:#fff;}.f{fill:#132d58;}.g{fill:#207cb6;}.h,.m{fill:#34bef0;}.j{fill:#ffc2b0;}.k{fill:#ea9c92;}.l{fill:#274f89;}</style></defs><g transform="translate(-73.627 -167.683)"><path className="a" d="M386.79,350.507,259.212,276.849a3.019,3.019,0,0,1,0-5.23L379.94,201.925,514.8,279.789a3.02,3.02,0,0,1,0,5.23L401.362,350.507A14.573,14.573,0,0,1,386.79,350.507Z" transform="translate(-78.116 59.389)"/><g transform="translate(168.086 207.335)"><path className="b" d="M382.527,152.173c.007-8.209-5.774-11.553-12.886-7.455l-120.9,69.66a7.822,7.822,0,0,0-3.545,6.127c0,2.256,1.582,3.172,3.538,2.046l120.9-69.66c3.208-1.848,5.815-.34,5.811,3.363l-.012,13.521c2.347-.146,4.7-.148,7.079-.107Z" transform="translate(-245.146 -142.967)"/><path className="c" d="M248.68,249.325l120.9-44.058c7.113-4.1,12.906-14.111,12.913-22.32l.01-10.82c-2.379-.041-4.733-.039-7.079.107l-.013,14.794a12.87,12.87,0,0,1-5.824,10.066l-120.9,44.058a7.822,7.822,0,0,0-3.545,6.126C245.14,249.535,246.724,250.451,248.68,249.325Z" transform="translate(-245.142 -145.428)"/></g><path className="d" d="M246.142,255.485l147.076,85.1,124.521-74.261,9.879-14.744-1.026,5.224-2.654-13.677-231.144,8.816-40.724-2.623Z" transform="translate(-77.14 55.91)"/><path className="e" d="M251.466,228.573l-.04,18.1,142.147,82.239,3.841-17.254Z" transform="translate(-77.586 57.139)"/><path className="f" d="M525.8,228.938,378.956,143.983,246.564,220.974l-.273,1.891,147.058,85.08Z" transform="translate(-77.153 64.282)"/><g transform="translate(315.936 300.006)"><path className="e" d="M492.524,281.026l34.526-20.48a12.975,12.975,0,0,0,5.192-9.629l.026-2.713c0-2.193-.916-3.608-2.329-4.019l-67.965,37.809-55.346,29.934.05,18.306Z" transform="translate(-406.628 -244.185)"/></g><path className="d" d="M397.96,311.9l-145.91-84.416-3.093-1.79-2.825-1.634a7.126,7.126,0,0,0-.94,3.291,2.5,2.5,0,0,0,1.006,2.268v.006l.024.014.011.006,147.023,85.059Z" transform="translate(-77.06 57.52)"/><path className="e" d="M404.778,348.379l1.834,1.061.338-.585-1.142-.9Z" transform="translate(-90.535 47.058)"/><path className="e" d="M404.831,321.859l1.879,1.087-.471-1.026Z" transform="translate(-90.54 49.262)"/><g transform="translate(315.143 292.414)"><path className="d" d="M409.351,307.3l120.9-69.659c7.113-4.1,12.894-.754,12.887,7.454l-.026,2.713c-.007,8.209-5.8,18.221-12.913,22.32L409.3,339.79c-1.956,1.127-3.54.211-3.538-2.046a7.822,7.822,0,0,1,3.545-6.127l120.9-69.66a12.868,12.868,0,0,0,5.824-10.065l.025-2.713c0-3.7-2.6-5.21-5.811-3.362l-120.9,69.66c-1.956,1.127-3.54.211-3.538-2.046A7.825,7.825,0,0,1,409.351,307.3Z" transform="translate(-405.761 -235.893)"/></g><path className="d" d="M350.868,236.785l62.828-36.2,54.489,31.524-62.828,36.2Z" transform="translate(-85.983 59.502)"/><g transform="translate(313.205 291.296)"><path className="f" d="M405.582,338.589a7.822,7.822,0,0,1,3.545-6.127l120.9-69.659a12.872,12.872,0,0,0,5.824-10.066l.026-2.713c0-2.424-1.119-3.9-2.791-4.115a4.873,4.873,0,0,1,.853,2.995l-.026,2.712a12.869,12.869,0,0,1-5.824,10.066l-120.9,69.66a7.825,7.825,0,0,0-3.545,6.127c0,1.71.91,2.645,2.2,2.51A3.414,3.414,0,0,1,405.582,338.589Z" transform="translate(-403.645 -235.621)"/><path className="f" d="M405.631,313.327a7.825,7.825,0,0,1,3.545-6.127l120.9-69.66c3.063-1.765,5.876-2.142,8.089-1.352-2.363-2.016-5.977-2.1-10.026.232l-120.9,69.66a7.826,7.826,0,0,0-3.545,6.127c0,1.71.91,2.645,2.2,2.51A3.415,3.415,0,0,1,405.631,313.327Z" transform="translate(-403.649 -234.672)"/></g><g transform="translate(73.627 262.085)"><path className="a" d="M176.306,270.642l-32.969-19.035c-2.023-1.168-1.77-3.209.567-4.558l31.835-18.38c2.337-1.349,5.871-1.5,7.895-.327L216.6,247.377c2.023,1.168,1.77,3.209-.567,4.558L184.2,270.314C181.865,271.664,178.33,271.81,176.306,270.642Z" transform="translate(-141.971 -204.86)"/><path className="f" d="M217.958,237.56h0V226.185l-25.508-.014-8.817-5.091c-2.024-1.168-5.558-1.022-7.895.327l-8.226,4.75-25.53-.015v11.7a2.288,2.288,0,0,0,1.355,2.115l32.969,19.035c2.023,1.168,5.558,1.022,7.895-.327l31.835-18.38C217.384,239.507,218.034,238.5,217.958,237.56Z" transform="translate(-141.972 -204.246)"/><path className="f" d="M179.971,220.3a9.11,9.11,0,0,0-4.232,1.11l-8.226,4.75-25.53-.015v11.7a2.288,2.288,0,0,0,1.355,2.115l32.969,19.035a7.143,7.143,0,0,0,3.664.783Z" transform="translate(-141.972 -204.247)"/><path className="d" d="M144.871,226.684l-2.889,0v11.7a2.288,2.288,0,0,0,1.355,2.115l1.534.885Z" transform="translate(-141.972 -204.786)"/><path className="d" d="M180.028,261.6a8.994,8.994,0,0,0,6.311-.072V248.245h-6.311Z" transform="translate(-145.184 -206.607)"/><path className="b" d="M176.306,245.855,143.337,226.82c-2.023-1.167-1.77-3.208.567-4.558l31.835-18.38c2.337-1.349,5.871-1.5,7.895-.327L216.6,222.59c2.023,1.168,1.77,3.209-.567,4.559L184.2,245.528C181.865,246.877,178.33,247.023,176.306,245.855Z" transform="translate(-141.971 -202.767)"/><path className="e" d="M216.036,226.82,184.2,245.2c-2.337,1.35-5.871,1.5-7.895.328l-32.969-19.035a3.047,3.047,0,0,1-1.01-.9c-.695,1.119-.38,2.332,1.01,3.134l32.969,19.035c2.023,1.168,5.558,1.022,7.895-.328l31.835-18.379c1.816-1.048,2.367-2.512,1.577-3.662A4.421,4.421,0,0,1,216.036,226.82Z" transform="translate(-141.971 -204.677)"/><g transform="translate(61.197 30.418)"><path className="b" d="M211.475,242.344a2.945,2.945,0,0,1-1.331,2.307c-.735.424-1.332.08-1.332-.769a2.943,2.943,0,0,1,1.332-2.306C210.879,241.151,211.475,241.5,211.475,242.344Z" transform="translate(-208.812 -236.447)"/><path className="b" d="M216.155,239.643a2.944,2.944,0,0,1-1.331,2.306c-.736.425-1.332.081-1.332-.769a2.943,2.943,0,0,1,1.332-2.306C215.559,238.449,216.155,238.794,216.155,239.643Z" transform="translate(-209.207 -236.218)"/><path className="b" d="M220.835,236.941a2.945,2.945,0,0,1-1.332,2.306c-.735.425-1.331.081-1.331-.769a2.944,2.944,0,0,1,1.331-2.306C220.238,235.747,220.835,236.092,220.835,236.941Z" transform="translate(-209.602 -235.99)"/></g><g transform="translate(20.218 11.124)"><path className="g" d="M180.121,235.079l-15.428-8.907c-.948-.547-.829-1.5.265-2.132l14.9-8.6a4.105,4.105,0,0,1,3.694-.154l15.428,8.907c.948.547.829,1.5-.265,2.133l-14.9,8.6A4.108,4.108,0,0,1,180.121,235.079Z" transform="translate(-164.053 -214.916)"/><path className="b" d="M183.011,228.536l-2.135-1.232c-.131-.075-.114-.208.038-.295l2.061-1.19a.567.567,0,0,1,.511-.021l2.134,1.232c.132.076.115.208-.037.295l-2.061,1.19A.568.568,0,0,1,183.011,228.536Z" transform="translate(-165.466 -215.831)"/><path className="d" d="M164.693,226.172l.043.026c.072-.051.138-.1.222-.153l14.9-8.6a4.108,4.108,0,0,1,3.694-.153l15.385,8.882c.873-.624.918-1.475.043-1.98l-15.428-8.907a4.105,4.105,0,0,0-3.694.154l-14.9,8.6C163.864,224.67,163.745,225.625,164.693,226.172Z" transform="translate(-164.053 -214.916)"/></g></g><g transform="translate(365.449 373.618)"><path className="a" d="M495.043,392.462l-32.97-19.035c-2.023-1.168-1.769-3.209.568-4.558l31.834-18.38c2.337-1.349,5.871-1.5,7.895-.327L535.339,369.2c2.023,1.168,1.77,3.209-.567,4.558l-31.835,18.38C500.6,393.484,497.067,393.63,495.043,392.462Z" transform="translate(-460.707 -326.679)"/><path className="f" d="M536.7,359.381h0V348.005l-25.509-.015-8.817-5.09c-2.023-1.168-5.558-1.022-7.895.328l-8.225,4.749-25.531-.015v11.7a2.289,2.289,0,0,0,1.355,2.115l32.97,19.035c2.023,1.168,5.558,1.022,7.894-.327l31.835-18.38C536.12,361.327,536.77,360.319,536.7,359.381Z" transform="translate(-460.708 -326.066)"/><path className="f" d="M498.707,342.118a9.1,9.1,0,0,0-4.232,1.111l-8.225,4.749-25.531-.015v11.7a2.289,2.289,0,0,0,1.355,2.115l32.97,19.035a7.129,7.129,0,0,0,3.663.783Z" transform="translate(-460.708 -326.067)"/><path className="d" d="M463.608,348.5l-2.89,0v11.7a2.289,2.289,0,0,0,1.355,2.115l1.534.885Z" transform="translate(-460.708 -326.606)"/><path className="d" d="M498.765,383.421a8.992,8.992,0,0,0,6.31-.072V370.065h-6.31Z" transform="translate(-463.921 -328.427)"/><path className="b" d="M495.043,367.675l-32.97-19.034c-2.023-1.168-1.769-3.209.568-4.559l31.834-18.38c2.337-1.349,5.871-1.5,7.895-.327l32.969,19.034c2.023,1.168,1.77,3.209-.567,4.559l-31.835,18.38C500.6,368.7,497.067,368.843,495.043,367.675Z" transform="translate(-460.707 -324.587)"/><path className="e" d="M534.772,348.64l-31.835,18.38c-2.337,1.35-5.871,1.5-7.894.328l-32.97-19.035a3.052,3.052,0,0,1-1.009-.9c-.7,1.119-.38,2.332,1.009,3.135l32.97,19.034c2.023,1.168,5.557,1.022,7.894-.327l31.835-18.38c1.815-1.048,2.367-2.513,1.577-3.662A4.413,4.413,0,0,1,534.772,348.64Z" transform="translate(-460.707 -326.497)"/><g transform="translate(61.198 30.418)"><path className="b" d="M530.212,364.164a2.945,2.945,0,0,1-1.332,2.307c-.735.424-1.331.08-1.331-.769a2.943,2.943,0,0,1,1.331-2.306C529.615,362.971,530.212,363.316,530.212,364.164Z" transform="translate(-527.549 -358.267)"/><path className="b" d="M534.891,361.463a2.944,2.944,0,0,1-1.331,2.306c-.735.425-1.332.081-1.332-.769a2.945,2.945,0,0,1,1.332-2.306C534.3,360.269,534.891,360.614,534.891,361.463Z" transform="translate(-527.944 -358.038)"/><path className="b" d="M539.571,358.761a2.943,2.943,0,0,1-1.332,2.306c-.735.425-1.331.081-1.331-.769a2.945,2.945,0,0,1,1.331-2.306C538.975,357.567,539.571,357.912,539.571,358.761Z" transform="translate(-528.339 -357.81)"/></g><g transform="translate(20.218 11.124)"><path className="c" d="M498.857,356.9l-15.428-8.908c-.947-.547-.829-1.5.266-2.132l14.9-8.6a4.1,4.1,0,0,1,3.694-.154l15.428,8.907c.947.548.828,1.5-.265,2.133l-14.9,8.6A4.108,4.108,0,0,1,498.857,356.9Z" transform="translate(-482.79 -336.736)"/><path className="b" d="M501.747,350.356l-2.134-1.232c-.131-.075-.114-.208.037-.295l2.061-1.19a.567.567,0,0,1,.511-.021l2.135,1.232c.131.076.114.208-.037.295l-2.061,1.19A.567.567,0,0,1,501.747,350.356Z" transform="translate(-484.203 -337.651)"/><path className="d" d="M483.429,347.992l.044.026a2.691,2.691,0,0,1,.222-.153l14.9-8.6a4.108,4.108,0,0,1,3.694-.153l15.384,8.882c.872-.624.918-1.475.044-1.98l-15.428-8.907a4.1,4.1,0,0,0-3.694.154l-14.9,8.6C482.6,346.49,482.482,347.445,483.429,347.992Z" transform="translate(-482.79 -336.736)"/></g></g><path className="a" d="M210.76,311.984a10.174,10.174,0,0,1,9.2,0l118.727,68.574c2.542,1.468,2.542,3.847,0,5.315a10.171,10.171,0,0,1-9.2,0L210.759,317.3C208.218,315.832,208.218,313.452,210.76,311.984Z" transform="translate(-73.992 50.189)"/><g transform="translate(124.822 334.985)"><path className="b" d="M197.951,282.622h0a.468.468,0,0,1,.5-.221l6.466,1.4-2.546,4.332L198,283.167A.469.469,0,0,1,197.951,282.622Z" transform="translate(-197.887 -282.39)"/><g transform="translate(2.614 0.714)"><path className="f" d="M200.742,285.883a3.233,3.233,0,0,1,1.482-2.522,1.062,1.062,0,0,1,.971-.12,41.292,41.292,0,0,1,21.26,5.693l.466.274-8.029,13.662-2.372-1.572a41.311,41.311,0,0,1-12.393-12.85l-1.015-1.658A1.058,1.058,0,0,1,200.742,285.883Z" transform="translate(-200.742 -283.171)"/><ellipse className="b" cx="7.924" cy="4.575" rx="7.924" ry="4.575" transform="translate(12.205 17.38) rotate(-59.552)"/><path className="b" d="M266.041,333.118l-47.661-29.693,8.03-13.662,49.119,27.211Z" transform="translate(-202.231 -283.727)"/><path className="b" d="M268.355,331.285a14.631,14.631,0,0,1,6.71-11.414c3.672-2.083,6.623-.348,6.59,3.874a14.633,14.633,0,0,1-6.709,11.414C271.273,337.242,268.322,335.508,268.355,331.285Z" transform="translate(-206.451 -286.195)"/></g><g transform="translate(67.237 35.107)"><path className="b" d="M271.325,333.031a14.634,14.634,0,0,1,6.71-11.415c3.672-2.082,6.623-.348,6.59,3.874a14.634,14.634,0,0,1-6.71,11.415C274.243,338.987,271.292,337.253,271.325,333.031Z" transform="translate(-271.325 -320.735)"/><rect className="b" width="18.725" height="73.141" transform="translate(1.906 16.597) rotate(-59.553)"/><path className="b" d="M340.195,373.512A14.633,14.633,0,0,1,346.9,362.1c3.673-2.083,6.623-.349,6.59,3.874a14.63,14.63,0,0,1-6.709,11.414C343.112,379.469,340.162,377.734,340.195,373.512Z" transform="translate(-277.14 -324.153)"/><path className="d" d="M342.793,372.476a9.67,9.67,0,0,1,4.533-6.933c2.358-1.338,4.152-.4,4.007,2.091a9.668,9.668,0,0,1-4.533,6.933C344.442,375.9,342.649,374.969,342.793,372.476Z" transform="translate(-277.359 -324.467)"/></g><g transform="translate(62.599 32.363)"><path className="e" d="M267.7,330.9a14.634,14.634,0,0,1,6.71-11.414,5.169,5.169,0,0,1,3.933-.736c-1.191-1.246-3.147-1.393-5.372-.131a14.633,14.633,0,0,0-6.71,11.414c-.02,2.521,1.029,4.147,2.656,4.61A5.23,5.23,0,0,1,267.7,330.9Z" transform="translate(-266.26 -317.738)"/><path className="f" d="M267.832,330.978a14.636,14.636,0,0,1,6.709-11.415c1.837-1.041,3.493-1.128,4.686-.427l3.572,2.1-1.7,2.9a14.946,14.946,0,0,1-6.084,10.35l-1.7,2.9-3.573-2.1h0C268.545,334.577,267.816,333.088,267.832,330.978Z" transform="translate(-266.392 -317.818)"/><path className="b" d="M271.734,333.271a14.631,14.631,0,0,1,6.71-11.414c3.672-2.083,6.623-.348,6.59,3.874a14.633,14.633,0,0,1-6.709,11.414C274.652,339.228,271.7,337.494,271.734,333.271Z" transform="translate(-266.722 -318.012)"/></g><g transform="translate(134.817 77.83)"><path className="g" d="M345.138,372.7a6.316,6.316,0,0,1,2.895-4.925c1.585-.9,2.857-.15,2.844,1.672a6.314,6.314,0,0,1-2.9,4.925C346.4,375.273,345.124,374.525,345.138,372.7Z" transform="translate(-345.138 -367.398)"/><path className="g" d="M345.138,372.7a6.316,6.316,0,0,1,2.895-4.925,2.008,2.008,0,0,1,2.022-.184l13.364,7.855a4.04,4.04,0,1,1-4.094,6.965l-13.364-7.856h0A2.006,2.006,0,0,1,345.138,372.7Z" transform="translate(-345.138 -367.398)"/></g><g transform="translate(83.182 38.487)"><path className="c" d="M325.559,344.489l2-1.136c1.152-.653,2.674-.49,4.288.459l6.868,4.037a5.226,5.226,0,0,1,2.33,4.109l-.027,3.438a2.832,2.832,0,0,0,.691,1.727l-.256,1.592,1.712-.981,0,0a.881.881,0,0,0,.408-.837l.027-3.437a10.9,10.9,0,0,0-4.858-8.568l-6.868-4.037c-2.294-1.349-4.46-1.58-6.1-.653l-2,1.137c-1.152.653-2.674.49-4.288-.459L291.8,324.6a.894.894,0,0,0-.915-.089v0l-1.708.979,1.462.562a2.831,2.831,0,0,0,1.137,1.509l27.685,16.273C321.755,345.186,323.922,345.417,325.559,344.489Z" transform="translate(-288.778 -324.427)"/><path className="f" d="M325.791,344.436c1.151-.652,2.673-.489,4.287.459l6.868,4.037a5.231,5.231,0,0,1,2.329,4.11l-.027,3.437a2.832,2.832,0,0,0,1.264,2.229c.7.414,1.28.087,1.286-.73l.027-3.438a10.905,10.905,0,0,0-4.858-8.568l-6.869-4.037c-2.294-1.349-4.46-1.58-6.1-.652l-2,1.136c-1.151.653-2.673.49-4.288-.459l-27.684-16.272c-.7-.414-1.281-.087-1.287.73a2.837,2.837,0,0,0,1.264,2.229l27.684,16.272c2.3,1.35,4.461,1.581,6.1.653Z" transform="translate(-288.741 -324.518)"/><g transform="translate(50.508 28.223)"><path className="e" d="M344.02,356.12l-.027,3.437c0,.023.01.048.011.07a2.189,2.189,0,0,1-.1-.637l.027-3.438c0-.1-.015-.2-.022-.3A3.838,3.838,0,0,1,344.02,356.12Z" transform="translate(-343.907 -355.253)"/></g></g></g><path className="h" d="M377.868,191.2l75.427,43.548,45.342-26.178-75.349-43.593Z" transform="translate(-88.263 62.509)"/><g transform="translate(289.489 167.683)"><g transform="translate(79.833)"><path className="f" d="M528.5,160.622l-9.934-5.735,36.626-21.147c1.729-1,1.729-2.624,0-3.623l-37.417-21.6a6.943,6.943,0,0,0-6.274,0l-36.626,21.146-9.934-5.735,36.626-21.147c7.207-4.16,18.935-4.161,26.142,0l37.416,21.6c7.208,4.161,7.208,10.933,0,15.093Z" transform="translate(-464.938 -99.659)"/></g><g transform="translate(0 10.534)"><path className="g" d="M537.342,164.118c0-5.311-3.228-11.48-7.212-13.78l-66.36-38.313a4.629,4.629,0,0,0-4.672-.4l0,0-79.233,46.043L456.482,215.4l78.06-45.306a3.617,3.617,0,0,0,.689-.4h0C536.536,168.708,537.342,166.771,537.342,164.118Z" transform="translate(-377.921 -111.164)"/><path className="f" d="M462.621,219.578l78.06-45.306a3.615,3.615,0,0,0,.689-.4h0c1.3-.987,2.109-2.923,2.109-5.577a17.677,17.677,0,0,0-1.944-7.674l-88.981,51.374Z" transform="translate(-384.059 -115.34)"/><path className="f" d="M451.314,219.405l-66.36-38.313c-3.983-2.3-7.212-8.469-7.212-13.779h0c0-5.311,3.229-7.752,7.212-5.452l66.36,38.313c3.984,2.3,7.212,8.469,7.212,13.78h0C458.526,219.264,455.3,221.7,451.314,219.405Z" transform="translate(-377.742 -115.372)"/><path className="e" d="M452.411,199.777l-66.36-38.313c-1.831-1.057-3.5-1.1-4.77-.337a5.013,5.013,0,0,1,3.972.7l66.36,38.313c3.983,2.3,7.212,8.469,7.212,13.779h0c0,2.868-.948,4.89-2.442,5.789,1.951-.6,3.24-2.8,3.24-6.153h0C459.623,208.247,456.395,202.078,452.411,199.777Z" transform="translate(-378.041 -115.339)"/></g><path className="e" d="M446.375,209.886l-7.978-4.6a3.444,3.444,0,0,1-1.437-2.747h0c0-1.058.644-1.545,1.437-1.087l7.978,4.6a3.443,3.443,0,0,1,1.437,2.747h0C447.812,209.858,447.168,210.344,446.375,209.886Z" transform="translate(-382.742 -108.239)"/></g><g transform="translate(351.509 208.79)"><path className="e" d="M456.092,150.623c2.407-1.424,2.383-3.691-.053-5.063a9.693,9.693,0,0,0-8.768.092c-2.406,1.424-2.382,3.69.053,5.063A9.693,9.693,0,0,0,456.092,150.623Z" transform="translate(-445.482 -144.556)"/><path className="e" d="M470.687,158.846c2.407-1.423,2.383-3.69-.053-5.062a9.693,9.693,0,0,0-8.768.092c-2.407,1.424-2.383,3.69.053,5.063A9.69,9.69,0,0,0,470.687,158.846Z" transform="translate(-446.714 -145.251)"/><path className="e" d="M485.281,167.07c2.407-1.423,2.383-3.69-.053-5.062a9.69,9.69,0,0,0-8.768.092c-2.406,1.423-2.383,3.69.053,5.062A9.687,9.687,0,0,0,485.281,167.07Z" transform="translate(-447.947 -145.945)"/></g><g transform="translate(187.997 196.575)"><g transform="translate(2.584)"><path className="f" d="M294.637,287.344s-3.433-1.731-5.542.846-5.122,8.664-5.215,12.776,3.254,3.834,5.244,2.861,7.8-9.406,8.154-11.057a5.73,5.73,0,0,0-.974-4.323C295.745,288.008,294.637,287.344,294.637,287.344Z" transform="translate(-270.908 -144.351)"/><path className="b" d="M295.848,286.416l.158,3.557a2.016,2.016,0,0,1-1,1.85,3.962,3.962,0,0,1-2.649.411c-2.586-.416-2.817-1.154-3-4.71S295.848,286.416,295.848,286.416Z" transform="translate(-271.37 -144.251)"/><g transform="translate(0 63.263)"><path className="f" d="M280.911,279.874s-3.432-1.731-5.541.847-5.122,8.663-5.215,12.776,3.254,3.834,5.243,2.861,7.8-9.406,8.155-11.058a5.737,5.737,0,0,0-.974-4.323C282.02,280.539,280.911,279.874,280.911,279.874Z" transform="translate(-269.749 -206.983)"/><path className="b" d="M282.122,278.947l.159,3.556a2.017,2.017,0,0,1-1.005,1.85,3.953,3.953,0,0,1-2.648.412c-2.586-.416-2.817-1.155-3-4.711S282.122,278.947,282.122,278.947Z" transform="translate(-270.211 -206.883)"/><path className="i" d="M312.255,207.079c-1.016-16.532-17.9,2.433-17.9,2.433l-11.559,11.329-10.408,11.434a10.261,10.261,0,0,0-2.586,8.242l4.211,32.06a3.151,3.151,0,0,0,3.16,2.738,10.823,10.823,0,0,0,1.56-.136,3.917,3.917,0,0,0,3.478-4.157l-.769-29.986L303.3,227.859S313.271,223.611,312.255,207.079Z" transform="translate(-269.712 -200.313)"/></g><path className="i" d="M325.98,213.959c-1.016-16.532-17.9,2.432-17.9,2.432L296.518,227.72,286.11,239.154a10.257,10.257,0,0,0-2.585,8.242l4.21,32.06a3.152,3.152,0,0,0,3.16,2.738,10.7,10.7,0,0,0,1.56-.137,3.917,3.917,0,0,0,3.479-4.156l-.748-29.123,21.836-14.039S327,230.491,325.98,213.959Z" transform="translate(-270.871 -137.631)"/><path className="g" d="M316.714,156.45c12.8,5.307,12.547,12.876,12.547,12.876s-2.509,27.746-1.653,46.277c.358,7.747-41.157,8.337-34.965-12.33,7.3-24.367,4.563-44.094,7.981-47.069S313.4,155.077,316.714,156.45Z" transform="translate(-271.595 -133.191)"/><path className="j" d="M322.3,163.337c-.67,2.6-4.076,3.97-7.607,3.06s-5.852-3.755-5.182-6.354,4.075-3.969,7.606-3.06S322.97,160.738,322.3,163.337Z" transform="translate(-273.063 -133.367)"/><path className="e" d="M316.956,167.236l-2.356,2.557a1.555,1.555,0,0,0-.4,1.23l1.62,14a1.524,1.524,0,0,1-.3,1.1l-5.069,6.63a.457.457,0,0,1-.8-.139l-2.759-8.685a1.527,1.527,0,0,1,.028-1.005l4.854-12.72a1.551,1.551,0,0,0,.069-.873l-.71-3.372Z" transform="translate(-272.845 -134.15)"/><path className="e" d="M316.822,167.234a9.4,9.4,0,0,1-2.338-.3,8.522,8.522,0,0,1-4.489-2.749,4.628,4.628,0,0,1,1.961-7.61,8.979,8.979,0,0,1,9.746,2.51,4.9,4.9,0,0,1,1.135,4.351h0a4.894,4.894,0,0,1-3.1,3.261A7.838,7.838,0,0,1,316.822,167.234Zm-1.948-9.978a6.594,6.594,0,0,0-2.461.452,3.416,3.416,0,0,0-1.469,5.7,7.762,7.762,0,0,0,8.342,2.148,3.706,3.706,0,0,0,2.367-2.431h0a3.7,3.7,0,0,0-.9-3.27,7.288,7.288,0,0,0-3.845-2.337A8.187,8.187,0,0,0,314.874,157.256Z" transform="translate(-273.006 -133.311)"/><path className="j" d="M313.375,155.754a31.508,31.508,0,0,1-.111,4.57c-.07,1.275,4.4,2.467,5.55,1.313s.693-2.355.971-6.7S313.375,155.754,313.375,155.754Z" transform="translate(-273.389 -133.072)"/><path className="k" d="M319.785,155.1s-1.1,4.025-6.522,5.568l.082-3.658Z" transform="translate(-273.389 -133.232)"/><circle className="j" cx="9.855" cy="9.855" r="9.855" transform="matrix(0.375, -0.927, 0.927, 0.375, 27.456, 19.55)"/><path className="k" d="M315.064,146.8s-5.427,2.324-9.184,2.351-2.929-3.12-2.929-3.12l11.153-1.611Z" transform="translate(-272.512 -132.33)"/><path className="b" d="M304.365,146.3s4.727-2.006,8.874-1.169a4.346,4.346,0,0,1,2.506,1.489,1.472,1.472,0,0,0,.758.548c.735.167,1.939-2.884,3.368-2.954s2.383.943,1.211,2.819-.776,3.975-.237,4.277,7.215-4.356,2.17-14.35-18.816-4.333-20.809-2.308c0,0-2.1,1.83-3.807.2C298.4,134.852,296.485,149.189,304.365,146.3Z" transform="translate(-272.117 -131.215)"/><path className="j" d="M323.339,192.431v7.5a3.052,3.052,0,0,1-1,2.257l-15.4,14.042,1.75,2.676,21.22-13.914a4.136,4.136,0,0,0,1.684-2.914l1.451-13.913Z" transform="translate(-272.855 -136.024)"/><path className="g" d="M330.846,166.589s4.672,7.027,6.413,25.524c0,0-7.981,2.581-12.511,1.116S330.846,166.589,330.846,166.589Z" transform="translate(-274.264 -134.202)"/><path className="i" d="M323.741,176.293s-1.829,9.79-1.933,14.392a2.937,2.937,0,0,0,1.933,2.836h0Z" transform="translate(-274.111 -135.022)"/></g><g transform="translate(2.462 74.606)"><path className="c" d="M315.335,228.227l-3.4-.45-21.974-12.687a3.055,3.055,0,0,0-2.749.114l-15.571,8.986-2.058-.272v2.049h0a.8.8,0,0,0,.472.721l24.9,14.378a3.052,3.052,0,0,0,2.749-.114l16.957-9.787a1.11,1.11,0,0,0,.673-.924h0Z" transform="translate(-269.578 -212.88)"/><path className="d" d="M298.824,220.625l-1.561-.9H280.1l-8.462,4.882-2.058-.272v2.049h0a.8.8,0,0,0,.472.721l24.9,14.378a2.577,2.577,0,0,0,1.418.266Z" transform="translate(-269.578 -213.295)"/><path className="c" d="M270.492,224.88l-.913-.121v2.049h0a.8.8,0,0,0,.472.721l.439.254Z" transform="translate(-269.578 -213.72)"/><path className="c" d="M297.571,243.282a3.192,3.192,0,0,0,2.336-.146V239.65h-2.336Z" transform="translate(-271.941 -214.977)"/><path className="e" d="M294.956,238.842l-24.9-14.378c-.7-.407-.616-1.117.2-1.587l16.957-9.787a3.052,3.052,0,0,1,2.749-.114l24.9,14.378c.7.406.616,1.117-.2,1.587L297.7,238.728A3.056,3.056,0,0,1,294.956,238.842Z" transform="translate(-269.578 -212.702)"/><path className="b" d="M294.891,237.147l-20.707-11.954c-.586-.339-.512-.929.164-1.319l9.087-5.111a2.544,2.544,0,0,1,2.286-.094l20.706,11.955c.586.338.513.928-.164,1.319l-9.087,5.11A2.54,2.54,0,0,1,294.891,237.147Z" transform="translate(-269.933 -213.186)"/></g><path className="j" d="M289.848,212.53l-.257,1.719a12.7,12.7,0,0,0,.113,4.407l.306,1.513a2.129,2.129,0,0,0,1.707,1.673h0a1.175,1.175,0,0,0,1.378-1.025l.411-3.673s.939,1.231,1.393,1.231-.508-3.679-1.535-5.761S289.848,212.53,289.848,212.53Z" transform="translate(-268.794 -138.009)"/><path className="j" d="M298.178,182.3l-2.672,5.289a10.375,10.375,0,0,0-1.093,4.014L293.252,209.7l-3.516-.084L288.141,189.3a7.416,7.416,0,0,1,.091-1.878l1.823-10.3Z" transform="translate(-268.682 -135.091)"/><g transform="translate(0 63.834)"><path className="i" d="M293.926,239.229l-2.088-2.726L269.879,223.79a3.057,3.057,0,0,1-1.273-2.439l.019-17.978-1.263-1.648,1.187-.688v0a.8.8,0,0,1,.862.049L294.3,215.5a3.053,3.053,0,0,1,1.273,2.439l-.021,19.579a1.108,1.108,0,0,1-.465,1.044h0Z" transform="translate(-266.929 -200.936)"/><path className="d" d="M278.741,228.92l-1.56-.9-8.564-14.875.009-9.769-1.263-1.648,1.187-.688v0a.8.8,0,0,1,.862.049L294.3,215.5a2.577,2.577,0,0,1,.938,1.1Z" transform="translate(-266.929 -200.936)"/><path className="c" d="M267.923,202.457l-.56-.732,1.187-.688v0a.8.8,0,0,1,.862.049l.439.255Z" transform="translate(-266.929 -200.936)"/><path className="l" d="M296.792,217.014a3.19,3.19,0,0,1,1.04,2.1l-2.432,1.4-1.166-2.023Z" transform="translate(-269.198 -202.294)"/><path className="c" d="M293.072,216.247l-24.886-14.408c-.7-.407-1.275.023-1.276.962l-.021,19.579a3.053,3.053,0,0,0,1.273,2.439l24.885,14.408c.7.407,1.276-.024,1.277-.963l.021-19.578A3.055,3.055,0,0,0,293.072,216.247Z" transform="translate(-266.889 -201)"/></g><path className="j" d="M308.094,221.492l-.4.826a5.544,5.544,0,0,1-2.08,2.306l-2.472,1.523a2.461,2.461,0,0,1-2.523.059l-.084-.051a1.487,1.487,0,0,1-.21-2.284l2.583-2.656s-1.451,1.111-1.858.664c-.3-.328,1.407-1.929,2.716-1.981a5.174,5.174,0,0,0,2.576-1.081Z" transform="translate(-269.676 -138.612)"/><path className="g" d="M300.472,156.31s-9.47,10.3-13.29,19.755a19.33,19.33,0,0,0,11.165,8.124C306.273,186.478,300.472,156.31,300.472,156.31Z" transform="translate(-268.603 -133.334)"/><path className="i" d="M297.237,184.725l1.534-14.827-3.616,13.891A20.445,20.445,0,0,0,297.237,184.725Z" transform="translate(-269.276 -134.482)"/><path className="e" d="M309.209,153.974l-2.544-.7a6.141,6.141,0,0,0,2.988,2.4c1.773.487,2.049-1.014,2.049-1.014Z" transform="translate(-270.248 -133.078)"/><path className="e" d="M324.028,149.459a1.417,1.417,0,1,1-1.417-1.417A1.417,1.417,0,0,1,324.028,149.459Z" transform="translate(-271.475 -132.636)"/></g><g transform="translate(290.035 292.829)"><ellipse className="a" cx="26.187" cy="15.119" rx="26.187" ry="15.119" transform="translate(3.605 23.377)"/><path className="m" d="M437.922,262.417v-8.365h-1.579a19.023,19.023,0,0,0-7.147-6.685c-11.634-6.717-30.5-6.717-42.132,0a19.03,19.03,0,0,0-7.147,6.685H378.34v8.319h0c-.02,4.418,2.885,8.838,8.723,12.208,11.635,6.717,30.5,6.717,42.132,0C435.014,271.222,437.923,266.819,437.922,262.417Z" transform="translate(-378.338 -236.852)"/><ellipse className="f" cx="29.792" cy="17.2" rx="29.792" ry="17.2"/><path className="e" d="M429.2,267.347c-11.634,6.717-30.5,6.717-42.132,0-5.576-3.219-8.45-7.4-8.681-11.616-.251,4.582,2.622,9.212,8.681,12.71,11.635,6.717,30.5,6.717,42.132,0,6.058-3.5,8.932-8.127,8.68-12.71C437.648,259.949,434.775,264.128,429.2,267.347Z" transform="translate(-378.341 -237.983)"/><g transform="translate(14.647 9.045)"><path className="e" d="M395.122,260.076a1.339,1.339,0,0,1-.786-1.1l.03-11.207c0-.854,1.2-1.546,2.685-1.545s2.677.695,2.677,1.552l-.026,9.292,26.97-3.3c1.45-.178,2.873.357,3.18,1.193s-.618,1.658-2.066,1.836l-30.212,3.7a4.248,4.248,0,0,1-2.247-.312C395.256,260.149,395.187,260.114,395.122,260.076Z" transform="translate(-394.336 -246.226)"/></g></g><g transform="translate(131.824 393.455)"><path className="a" d="M221.311,396.995l-15.776-9.108,15.776-9.108,15.776,9.108Z" transform="translate(-205.535 -348.999)"/><path className="f" d="M238.542,374.416l-15.776,9.108V365.309l15.776-9.108Z" transform="translate(-206.99 -347.093)"/><path className="g" d="M221.311,364.469l-15.776-9.108,15.775-9.108,15.776,9.108Z" transform="translate(-205.535 -346.253)"/><path className="g" d="M221.311,383.524l-15.776-9.108V356.2l15.776,9.108Z" transform="translate(-205.535 -347.093)"/><path className="f" d="M216.154,374.591l-4.412-2.548v-5.095l4.412,2.547Z" transform="translate(-206.059 -348)"/></g></g></svg>