<svg xmlns="http://www.w3.org/2000/svg" width="56" height="56" viewBox="0 0 56 56"><defs><style>.a{fill:#fff;}.b{fill:#12b2f3;}.c{fill:#021f3e;stroke:#021f3e;stroke-width:0.9px;}</style></defs><g transform="translate(-1451 -3817)"><path className="a" d="M10,0H56a0,0,0,0,1,0,0V46A10,10,0,0,1,46,56H10A10,10,0,0,1,0,46V10A10,10,0,0,1,10,0Z" transform="translate(1451 3817)"/><g transform="translate(518.769 -902.062)"><circle className="b" cx="7" cy="7" r="7" transform="translate(959 4742)"/><g transform="translate(944.038 4737.06)"><path className="c" d="M140.544,11.186c-.095.554-.166,1.108-.293,1.653A10.466,10.466,0,1,1,127.72.214a10.3,10.3,0,0,1,7.658,1.179c.119.071.269.182.3.3a.516.516,0,0,1-.087.443.618.618,0,0,1-.5.087,5.773,5.773,0,0,1-.759-.4,9.588,9.588,0,1,0,5.205,9.991,9.36,9.36,0,0,0-2.887-8.346c-.047-.047-.1-.095-.15-.142a.445.445,0,0,1-.016-.641.417.417,0,0,1,.633.008A14.418,14.418,0,0,1,138.321,4a10.25,10.25,0,0,1,2.168,5.49,1.823,1.823,0,0,0,.047.222C140.544,10.2,140.544,10.7,140.544,11.186Z" transform="translate(-108.12 1.076)"/><path className="c" d="M.366,29.64a5.758,5.758,0,0,1-.017-4.2,5.962,5.962,0,0,1,0-4.223A5.966,5.966,0,0,1,.358,17a1.728,1.728,0,0,1-.366-1.178c.017-.646,0-1.282.009-1.928a1.491,1.491,0,0,1,1.535-1.562c.558-.009,1.108-.009,1.666,0,.358,0,.576.192.585.48.009.305-.218.5-.593.5H1.588c-.427,0-.611.192-.611.619v1.928c0,.5.166.663.672.663h8.375a1.342,1.342,0,0,1,.419.044.433.433,0,0,1,.323.506.453.453,0,0,1-.427.427c-.1.009-.218.009-.323.009H1.736c-.619,0-.768.148-.768.776v1.762c0,.515.166.68.689.68,2.373,0,4.755,0,7.128.009a1.608,1.608,0,0,1,.358.026.478.478,0,0,1-.035.933,2.4,2.4,0,0,1-.358.017H1.78c-.68,0-.811.131-.811.794V24.24c0,.532.166.7.707.7H8.934c.515,0,.733.14.733.48s-.236.5-.733.5H1.7c-.611,0-.742.14-.742.75v1.8c0,.489.174.663.672.663h8.96c.1,0,.2-.009.3,0a.459.459,0,0,1,.445.445.449.449,0,0,1-.366.506,1.464,1.464,0,0,1-.393.026H1.71c-.611,0-.75.14-.75.742v1.762c0,.541.166.707.7.707H14.744a2,2,0,0,1,.323.009.459.459,0,0,1,.427.489.452.452,0,0,1-.41.471,1.662,1.662,0,0,1-.3.009H1.666A1.516,1.516,0,0,1-.026,32.6c0-.576.009-1.16,0-1.736A1.774,1.774,0,0,1,.366,29.64Z" transform="translate(0 -11.304)"/><path className="c" d="M152.459,39.8a7.211,7.211,0,0,1-5.336-2.34c-.16-.167-.247-.348-.094-.555s.415-.2.622.02A6.549,6.549,0,0,0,149.4,38.29a6.4,6.4,0,1,0-2.735-2.829c.167.348.14.568-.074.675-.234.12-.428.007-.6-.354a7.147,7.147,0,1,1,7.362,3.945C153.021,39.768,152.7,39.781,152.459,39.8Z" transform="translate(-130.446 -21.157)"/><path className="c" d="M205.987,65.284c.058.005.095.011.132.011h.621c0-.163-.005-.31,0-.458a.3.3,0,0,1,.305-.337c.174.005.279.121.284.332.005.153,0,.3,0,.447a1.455,1.455,0,0,1,.868,2.452,1.643,1.643,0,0,1-.868,3.079v.5c-.005.205-.111.326-.284.332s-.289-.121-.3-.321c-.005-.084,0-.168,0-.258V70.8h-.758v.489c-.005.216-.116.347-.295.347s-.289-.132-.295-.342c-.005-.158,0-.31,0-.484h-1.016c-.247-.005-.389-.111-.384-.295s.137-.289.389-.295h.232V65.889c-.1,0-.195.005-.289,0a.3.3,0,0,1-.326-.295.293.293,0,0,1,.326-.289c.353-.005.705,0,1.079,0,0-.174-.005-.321,0-.468a.3.3,0,1,1,.589,0C205.992,64.979,205.987,65.126,205.987,65.284Zm-.763,4.926c.074.005.137.011.195.011.663,0,1.326,0,1.989-.005a1.027,1.027,0,1,0-.011-2.052h-2.01c-.053,0-.1.005-.158.011C205.224,68.847,205.224,69.515,205.224,70.21Zm.005-4.321v1.673c.658,0,1.3.005,1.947,0a.832.832,0,1,0,.011-1.663c-.495-.011-.984-.005-1.479-.005C205.55,65.889,205.4,65.889,205.229,65.889Z" transform="translate(-184.57 -56.579)"/><path className="c" d="M61.233,13.263H57.412a1.338,1.338,0,0,1-.323-.017.485.485,0,0,1-.009-.951.958.958,0,0,1,.227-.017h7.939a.969.969,0,0,1,.227.009.454.454,0,0,1,.393.489.458.458,0,0,1-.41.471,1.661,1.661,0,0,1-.3.009C63.85,13.263,62.541,13.263,61.233,13.263Z" transform="translate(-51.784 -11.259)"/></g></g></g></svg>