<svg xmlns="http://www.w3.org/2000/svg" width="39.606" height="40.193" viewBox="0 0 39.606 40.193"><defs><style>.a{fill:#0c9eda;}</style></defs><g transform="translate(-262.241 -667.124)"><path d="M275.437,673.187c0-1.3,0-2.559,0-3.813a2.017,2.017,0,0,1,2.189-2.242q8,0,16-.007a1.265,1.265,0,0,1,.981.417q3.4,3.475,6.825,6.926a1.3,1.3,0,0,1,.41,1q-.013,14.8-.007,29.593a2.023,2.023,0,0,1-2.214,2.261H277.64a2.02,2.02,0,0,1-2.2-2.229q0-1.841,0-3.683a.93.93,0,0,0-.026-.129,14.069,14.069,0,0,1,.03-28.088Zm17.822-4.716H277.707c-.759,0-.95.193-.95.961q0,8.329,0,16.658v.465h8.177c1.4,0,2.8,0,4.207,0,.586,0,.823.246.812.845-.007.348-.031.7-.06,1.044a13.961,13.961,0,0,1-10.587,12.433c-.825.2-1.672.294-2.549.444,0,1.212,0,2.451,0,3.689,0,.772.19.967.945.967h21.86c.763,0,.957-.193.957-.955q0-14.356,0-28.712v-.472h-5.035a2.025,2.025,0,0,1-2.225-2.248C293.258,671.9,293.259,670.217,293.259,668.47Zm-4.654,19.444c-.13-.008-.237-.02-.345-.02-3.861,0-7.723,0-11.584.01a.885.885,0,0,0-.556.258c-1.9,1.9-3.776,3.819-5.663,5.731q-1.354,1.371-2.713,2.737a12.263,12.263,0,0,0,12.464,2.624A12.68,12.68,0,0,0,288.605,687.914Zm-21.8,7.77c.058-.052.121-.1.177-.158q4.128-4.187,8.248-8.383a.857.857,0,0,0,.2-.547q.017-5.818.008-11.636v-.41a12.491,12.491,0,0,0-10.977,7.944A12.686,12.686,0,0,0,266.806,695.684ZM294.611,669.5c-.011.107-.03.21-.031.312q0,1.926,0,3.851c0,.6.233.832.828.833q1.9,0,3.8,0a2.835,2.835,0,0,0,.3-.032Z"/><path d="M323.813,694.116h-6.895c-.767,0-.992-.222-.992-.978q0-6.918,0-13.836c0-.73.238-.962.967-.954a15.051,15.051,0,0,1,14.539,12.343,23.9,23.9,0,0,1,.254,2.533c.04.63-.246.891-.889.892Q327.305,694.119,323.813,694.116Zm6.41-1.45a13.543,13.543,0,0,0-12.828-12.824v12.824Z" transform="translate(-38.636 -7.627)"/><path className="a" d="M360.156,758.641a6.451,6.451,0,1,1-6.383-6.453A6.457,6.457,0,0,1,360.156,758.641Zm-11.468.007a5.017,5.017,0,1,0,5.04-5.027A5.028,5.028,0,0,0,348.688,758.649Z" transform="translate(-61.185 -60.643)"/><path d="M369.691,706.643v-1.38h5.678v1.38Z" transform="translate(-76.434 -26.751)"/><path d="M375.413,718.709v1.383h-5.678v-1.383Z" transform="translate(-76.463 -36.182)"/><path d="M369.693,733.5v-1.38h5.678v1.38Z" transform="translate(-76.435 -45.586)"/><path className="a" d="M355.813,766.135l1.483,1.557,3.766-3.854,1.106,1.214a2.556,2.556,0,0,0-.429.3c-1.24,1.229-2.472,2.467-3.708,3.7-.519.518-.835.513-1.362-.01l-1.936-1.923Z" transform="translate(-66.267 -68.56)"/></g></svg>