<svg xmlns="http://www.w3.org/2000/svg" width="40.404" height="40.42" viewBox="0 0 40.404 40.42"><defs><style>.a{fill:#0c9eda;}</style></defs><g transform="translate(-159.735 -482.967)"><path d="M184.5,485.578h13.439a1.979,1.979,0,0,1,2.2,2.185q0,4.339,0,8.678a1.974,1.974,0,0,1-2.169,2.174c-2.1,0-4.208,0-6.312-.005a.8.8,0,0,0-.637.267c-.584.606-1.188,1.193-1.781,1.791a1.589,1.589,0,0,1-2.785-1.167c.006-.282,0-.564,0-.864h-1.925v5.195h13.426a1.976,1.976,0,0,1,2.183,2.2q0,4.339,0,8.678a1.971,1.971,0,0,1-2.144,2.159c-.786,0-1.572,0-2.417,0,0,.311,0,.6,0,.9a1.586,1.586,0,0,1-2.792,1.146c-.609-.619-1.222-1.236-1.846-1.84a.673.673,0,0,0-.412-.194c-1.955-.012-3.91-.008-5.864-.006a1.117,1.117,0,0,0-.162.031v.43q0,2.3,0,4.6a1.313,1.313,0,0,1-1.433,1.45q-10.955,0-21.91,0a1.305,1.305,0,0,1-1.416-1.425q0-16.684,0-33.368a1.55,1.55,0,0,1,.483-1.163q2.009-2,4-4a1.506,1.506,0,0,1,1.131-.46q8.858.007,17.715,0a1.313,1.313,0,0,1,1.431,1.451C184.5,484.788,184.5,485.153,184.5,485.578Zm-23.432,3.258v33.217H183.2c0-1.713,0-3.4-.008-5.079a.415.415,0,0,0-.183-.3,2.045,2.045,0,0,1-1.117-1.97q.017-4.379,0-8.759a2.012,2.012,0,0,1,1.091-1.9.458.458,0,0,0,.205-.329q.02-2.485,0-4.97a.457.457,0,0,0-.2-.332,2.01,2.01,0,0,1-1.1-1.9q.009-4.4,0-8.8A2.017,2.017,0,0,1,183,485.779a.385.385,0,0,0,.186-.26c.02-.4.009-.806.009-1.219h-17.61v4.536Zm26.69,8.475c0,.75-.011,1.441.009,2.132a1.364,1.364,0,0,0,.189.445,1.5,1.5,0,0,0,.406-.2c.719-.7,1.416-1.426,2.144-2.118a.952.952,0,0,1,.592-.245c2.28-.017,4.561-.01,6.841-.011.692,0,.9-.2.9-.9q0-4.318,0-8.636c0-.693-.2-.9-.9-.9H184.094c-.693,0-.9.2-.9.9q0,4.3,0,8.6c0,.749.189.938.936.939Zm6.516,18.253h3.664c.692,0,.9-.2.9-.9q0-4.318,0-8.637c0-.693-.2-.9-.9-.9H184.094c-.693,0-.9.2-.9.9q0,4.318,0,8.637c0,.694.2.9.895.9,2.28,0,4.561-.006,6.841.011a.952.952,0,0,1,.592.243c.728.692,1.425,1.417,2.144,2.118a1.526,1.526,0,0,0,.405.205,1.354,1.354,0,0,0,.191-.444C194.285,517.007,194.274,516.315,194.274,515.564Zm-30.005-28.042v-2.107l-2.1,2.107Z" transform="translate(0)"/><path d="M212.645,527.41a8.471,8.471,0,1,1-8.482-8.463A8.488,8.488,0,0,1,212.645,527.41Zm-2.441,3.826a7.147,7.147,0,1,0-12.055-.01,7.594,7.594,0,0,1,3.519-2.707c-1.8-2.2-1.849-4.3-.179-5.888a3.888,3.888,0,0,1,5.287-.077,3.811,3.811,0,0,1,1.292,2.594,3.938,3.938,0,0,1-1.419,3.356A7.652,7.652,0,0,1,210.2,531.236Zm-9.317-1.031c-.615.666-1.143,1.239-1.674,1.81-.22.237-.186.413.06.633a7.08,7.08,0,0,0,6.041,1.848,6.96,6.96,0,0,0,4.039-2.135,5.866,5.866,0,0,0-2.026-2.065l-3.174,3.31Zm5.893-4.742a2.605,2.605,0,1,0-2.614,2.609A2.612,2.612,0,0,0,206.779,525.463Zm-.717,4.27a4.993,4.993,0,0,0-3.719-.006l1.856,1.937Z" transform="translate(-32.055 -32.065)"/><path d="M183.886,692.063V686.9H198.17v5.164Zm1.3-1.3h11.677V688.2H185.191Z" transform="translate(-21.523 -181.743)"/><path d="M200.912,770.827v1.256h-16.89v-1.256Z" transform="translate(-21.644 -256.539)"/><path d="M183.894,795.988v-1.255h16.89v1.255Z" transform="translate(-21.53 -277.844)"/><path d="M198.311,746.869v1.255H184.028v-1.255Z" transform="translate(-21.65 -235.188)"/><path d="M187.883,818.766v1.254h-3.858v-1.254Z" transform="translate(-21.647 -299.262)"/><path d="M231.8,819.956V818.7h3.858v1.254Z" transform="translate(-64.224 -299.205)"/><path d="M283.643,818.7v1.254h-3.866V818.7Z" transform="translate(-106.981 -299.201)"/><path className="a" d="M416.81,532.484l.874.966-7.567,6.882-2.38-2.377.919-.85,1.427,1.5Z" transform="translate(-221.017 -44.129)"/><path className="a" d="M413.842,707.909,412.88,707l2.745-2.737-2.8-2.793,1.023-.924,2.719,2.737,2.788-2.805.9.911-2.785,2.759,2.831,2.814-.927.869-2.718-2.742Z" transform="translate(-225.549 -193.846)"/></g></svg>