<?xml version="1.0" encoding="utf-8"?>
<!-- Generator: Adobe Illustrator 24.2.1, SVG Export Plug-In . SVG Version: 6.00 Build 0)  -->
<svg version="1.1" id="design" xmlns="http://www.w3.org/2000/svg" xmlns:xlink="http://www.w3.org/1999/xlink" x="0px" y="0px"
	 viewBox="0 0 100 100" style="enable-background:new 0 0 100 100;" xml:space="preserve">
<style type="text/css">
	.st0{fill:url(#SVGID_1_);}
</style>
<linearGradient id="SVGID_1_" gradientUnits="userSpaceOnUse" x1="50" y1="100" x2="50" y2="-9.094947e-13">
	<stop  offset="0" style="stopColor:#FBB040"/>
	<stop  offset="1" style="stopColor:#ED8B00"/>
</linearGradient>
<path className="st0" d="M99.7,58.4c-0.7-2.6-2.3-4.4-4.7-5.6c-0.7-0.3-0.9-0.7-0.9-1.4c0-6.3,0-19.6,0-25.8c0-0.4,0-0.7,0-1.1
	c-5.9,0-11.8,0-17.7,0c0-2,0-3.9,0-5.9c-1,0-1.8,0-2.7,0c-0.8,0-1.7,0-2.5,0c-2.8,0-2.8,0-4-2.5c-0.1-0.3,0-0.7,0.1-1
	c1.1-2,2.3-4,3.5-6.1c-0.3-0.2-0.6-0.4-0.8-0.5c-4.5-2.7-9.1-5.3-13.6-8c-0.2-0.1-0.4-0.3-0.6-0.4c-0.1,0-0.1,0-0.2,0
	c-1.2,2.2-2.4,4.4-3.7,6.6c-0.1,0.2-0.3,0.3-0.5,0.3c-0.8,0-1.7,0-2.5,0c-0.2,0-0.4-0.2-0.5-0.3C47,4.4,45.8,2.2,44.5,0
	c-0.1,0-0.1,0-0.2,0c-3.8,2.3-7.7,4.5-11.5,6.8c-1.2,0.7-2.4,1.4-3.6,2.1c1.1,1.9,2.1,3.7,3.2,5.5c0.6,0.9,0.5,1.6,0,2.6
	c-0.7,1.3-1.5,1.7-2.9,1.6c-1.9-0.1-3.9,0-5.9,0c0,2,0,3.9,0,5.8c-6,0-11.8,0-17.8,0c0,0.4,0,0.8,0,1.1c0,6.3,0,39.7,0,46
	c0,0.6-0.1,0.9-0.8,1.2c-2.6,1.2-4.2,3.2-4.9,6c-0.1,0.2-0.1,0.4-0.2,0.6c0,0.5,0,0.9,0,1.4c1.9,0,3.8,0,5.7,0
	c0.6-2,1.6-2.9,3.1-2.9c1.5,0,2.4,0.9,3,2.9c1.9,0,3.8,0,5.8,0c-0.2-3.6-1.8-6.3-5-7.8c-0.7-0.3-0.9-0.7-0.9-1.4
	c0-4.4,0-35.7,0-40.1c0-0.3,0-0.7,0-1c4,0,7.9,0,11.9,0c0,1.9,0,3.8,0,5.8c2,0,3.8,0.1,5.7,0c1.5-0.1,2.5,0.3,3.2,1.8
	c0.4,0.9,0.5,1.5,0,2.3c-1.1,1.8-2.2,3.7-3.2,5.6c5.1,3,10.1,5.9,15.2,8.8c0.9-1.6,1.8-3,2.6-4.6c0,10.1,0,35.2,0,40.8
	c0,0.6-0.1,0.9-0.8,1.2c-2.6,1.2-4.2,3.2-4.9,6c-0.1,0.2-0.1,0.4-0.2,0.6c0,0.5,0,0.9,0,1.4c1.9,0,3.8,0,5.7,0
	c0.6-2,1.6-2.9,3.1-2.9c1.5,0,2.4,0.9,3,2.9c1.9,0,3.8,0,5.8,0c-0.2-3.6-1.8-6.3-5-7.8c-0.7-0.3-0.9-0.7-0.9-1.4c0-0.4,0-1.1,0-2
	V49.9c0.9,1.5,1.8,3.1,2.7,4.6c5.1-3,10.1-5.9,15.2-8.8c-1.2-2.1-2.3-4.1-3.5-6c-0.4-0.6-0.2-1,0-1.6c0.7-1.8,1.9-2.3,3.7-2
	c0.7,0.1,1.5,0,2.2,0c1,0,2.1,0,3.2,0c0-2,0-3.9,0-5.8c4,0,7.9,0,11.9,0c0,0.4,0,0.8,0,1.1c0,4.2,0,15.4,0,19.6
	c0,0.9-0.1,1.6-1.1,1.9c-0.6,0.2-1.2,0.7-1.7,1.1c-2,1.7-3,3.9-3.1,6.6c2,0,3.9,0,5.8,0c0.4-1.8,1.4-2.8,2.9-2.9
	c1.5-0.1,2.5,0.9,3.2,2.9c1.9,0,3.8,0,5.7,0c0-0.5,0-0.9,0-1.4C99.9,59,99.8,58.7,99.7,58.4z M70.4,30.3c-1.8,0-3.5,0-5.3,0
	c-0.3,0-0.8,0.3-0.9,0.5c-0.9,2.9-2.4,5.4-4.5,7.6c1,1.8,2,3.5,3,5.3c-1.7,1-3.3,1.9-5.1,2.9c-0.9-1.5-1.8-3-2.6-4.5
	c-0.3-0.6-0.7-0.7-1.3-0.6c-2.5,0.6-5,0.6-7.4,0c-0.7-0.2-1.2-0.1-1.6,0.7c-0.8,1.5-1.6,2.9-2.5,4.4c-1.7-1-3.3-1.9-5.1-2.9
	c1-1.8,2-3.5,3-5.2c-0.2-0.3-0.4-0.6-0.7-0.8c-1.7-1.8-3-3.9-3.6-6.4c-0.2-0.7-0.5-1-1.4-1c-1.6,0.1-3.3,0-5,0c0-2,0-3.8,0-5.9
	c1.7,0,3.4,0,5,0c0.8,0,1.2-0.2,1.4-1c0.8-2.8,2.3-5.1,4.3-7.1c-1-1.8-2-3.5-3.1-5.3c1.7-1,3.3-1.9,5.1-3c0.8,1.5,1.7,2.9,2.4,4.3
	c0.4,0.9,0.9,1,1.8,0.8c2.3-0.6,4.7-0.6,7.1,0c0.9,0.2,1.3,0,1.7-0.8c0.7-1.4,1.6-2.8,2.4-4.3c1.7,1,3.3,2,5.1,3c-1,1.8-2,3.5-3,5.2
	c1,1.3,2,2.5,2.8,3.9c0.8,1.3,1.3,2.8,1.9,4.3c1.9,0,3.8,0,5.9,0C70.4,26.3,70.4,28.2,70.4,30.3z M50,18.6c-4.8,0-8.8,3.9-8.8,8.7
	c0,4.9,3.9,8.8,8.8,8.9c4.8,0,8.8-3.9,8.8-8.7C58.8,22.5,54.9,18.6,50,18.6z M50,30.3c-1.6,0-2.9-1.3-2.9-2.9c0-1.6,1.4-3,3-2.9
	c1.6,0,2.9,1.4,2.9,3C52.9,29,51.6,30.3,50,30.3z"/>
</svg>
