<svg xmlns="http://www.w3.org/2000/svg" xmlns:xlink="http://www.w3.org/1999/xlink" viewBox="0 0 56 56"><defs><style>.cls-1{fill:#fde0b4;}.cls-2{fill:#333;}.cls-3{fill:url(#linear-gradient);}.cls-4{fill:url(#linear-gradient-2);}</style><linearGradient id="linear-gradient" x1="28.49" y1="53.83" x2="28.49" y2="2.19" gradientUnits="userSpaceOnUse"><stop offset="0" stopColor="#f6dcce"/><stop offset="0.4" stopColor="#f6dcce" stop-opacity="0"/></linearGradient><linearGradient id="linear-gradient-2" x1="21.4" y1="53.81" x2="21.4" y2="45.07" gradientUnits="userSpaceOnUse"><stop offset="0" stopColor="#f6dcce"/><stop offset="1" stopColor="#f6dcce" stop-opacity="0"/></linearGradient></defs><g id="design"><path className="cls-1" d="M0,19.2c0-1.2,0-2.41,0-3.61a.68.68,0,0,1,.5-.76L11.84,10.3a1.3,1.3,0,0,1,1,0q5.59,2.25,11.2,4.47a.79.79,0,0,1,.57.86c0,2.22.08,4.44,0,6.65a21,21,0,0,1-5,12.52,27.81,27.81,0,0,1-6.76,5.47.78.78,0,0,1-.93.07A24.68,24.68,0,0,1,3.62,33,20.84,20.84,0,0,1,0,21.22Z"/><path className="cls-2" d="M28.11,30.72H17.62a4,4,0,0,0-.6,0,1,1,0,0,0-.94,1,1.06,1.06,0,0,0,.83,1.13,3.49,3.49,0,0,0,.65,0h21.2c.93,0,1.42-.36,1.45-1a1,1,0,0,0-1-1.13c-.2,0-.4,0-.6,0Z"/><path className="cls-2" d="M12.25,0H51.3s0,.08.06.08A5.44,5.44,0,0,1,56,5.79V14c0,1-.38,1.36-1.35,1.36H47.3a1.31,1.31,0,0,0-.08.69V50.22a5.54,5.54,0,0,1-3.77,5.5,2.78,2.78,0,0,0-.9.28H6.78c0-.12-.13-.11-.21-.14a4.41,4.41,0,0,1-3.29-4.59v-7c0-1.09.35-1.43,1.45-1.43h4a1.61,1.61,0,0,0,.07-.74V5c0-.22,0-.44,0-.66A4.42,4.42,0,0,1,11.89.19C12,.15,12.19.18,12.25,0ZM11,42.75a1.22,1.22,0,0,0,.69.09H36.91c1.2,0,1.5.3,1.5,1.52,0,2,0,4,0,6.07a3.2,3.2,0,0,0,2,3.11A3.12,3.12,0,0,0,44,52.9,3.49,3.49,0,0,0,45,50.14q0-22,0-44.07a6.29,6.29,0,0,1,1-3.78s0-.06,0-.1H13.57C11.79,2.19,11,3,11,4.79v38Zm25.27,2.32H5.47v6.26A2.24,2.24,0,0,0,8,53.81H37.34a5.94,5.94,0,0,1-.87-1.72,7.07,7.07,0,0,1-.25-2.1C36.23,48.35,36.23,46.72,36.23,45.07ZM53.8,13.16c0-2.7,0-5.34,0-8a2.86,2.86,0,0,0-1.19-2.25,3.16,3.16,0,0,0-3.44-.44,3.05,3.05,0,0,0-1.92,2.87c0,2.52,0,5,0,7.54a.27.27,0,0,0,.1.26Z"/><path className="cls-2" d="M28.11,26.3H17.62a4,4,0,0,0-.6,0,1.07,1.07,0,0,0-.11,2.11,3.49,3.49,0,0,0,.65.06h21.2c.93,0,1.42-.36,1.45-1a1,1,0,0,0-1-1.12,4,4,0,0,0-.6,0Z"/><path className="cls-2" d="M23.74,35.12H17.3a1.09,1.09,0,0,0-1.15,1.47,1.2,1.2,0,0,0,1.29.72h9.39c1.15,0,2.29,0,3.44,0a1.09,1.09,0,0,0,1.08-.69,1,1,0,0,0-.18-1.12,1.22,1.22,0,0,0-1-.38Z"/><path className="cls-2" d="M17.53,21.43H27V20H17.53Zm-1.45-8.69V20h1.45V12.74Zm10.87,0V20H28.4V12.74Zm-1.22,0H27V11.29H25.73Zm0-.73h.73v-.18c0-.12,0-.29-.06-.48A5.51,5.51,0,0,0,26,9.88a3.92,3.92,0,0,0-1.28-1.52,4.19,4.19,0,0,0-2.43-.7V9.11a2.74,2.74,0,0,1,1.61.44,2.5,2.5,0,0,1,.79,1A4.08,4.08,0,0,1,25,11.56a3,3,0,0,1,0,.34A.78.78,0,0,0,25,12v0h.72Zm-8.2.73h1.21V11.29H17.53Zm1.21,0h7V11.29h-7Zm3.5-5.08a4.17,4.17,0,0,0-2.43.7,3.92,3.92,0,0,0-1.28,1.52,5.58,5.58,0,0,0-.45,1.45c0,.19,0,.36,0,.48A.71.71,0,0,0,18,12v0h1.45V11.9c0-.08,0-.2,0-.34a4.08,4.08,0,0,1,.32-1.05,2.53,2.53,0,0,1,.8-1,2.74,2.74,0,0,1,1.61-.44Zm6.16,5.08A1.44,1.44,0,0,0,27,11.29v1.45H28.4ZM27,21.43A1.45,1.45,0,0,0,28.4,20H27ZM17.53,20H16.08a1.45,1.45,0,0,0,1.45,1.45Zm0-7.24V11.29a1.44,1.44,0,0,0-1.45,1.45Z"/><path className="cls-2" d="M27.2,21.68l-9.92,0a1.7,1.7,0,0,1-1.43-1.43h0l0-7.74a1.71,1.71,0,0,1,1.43-1.44h.6a6,6,0,0,1,.42-1.26,4.2,4.2,0,0,1,1.36-1.63A4.35,4.35,0,0,1,22,7.42h.5a4.34,4.34,0,0,1,2.32.73,4.11,4.11,0,0,1,1.36,1.63A5,5,0,0,1,26.59,11h.61a1.72,1.72,0,0,1,1.43,1.44h0l0,7.74a1.71,1.71,0,0,1-1.43,1.43Zm-9.42-.5H26.7v-.95H17.78Zm9.42-.95v.92a1.19,1.19,0,0,0,.92-.92Zm-10.84,0a1.18,1.18,0,0,0,.92.92v-.92Zm10.84-.5h.95V13H27.2Zm-9.42,0H26.7V13H17.78Zm-1.45,0h1V13h-1ZM27.2,12.49h.92a1.2,1.2,0,0,0-.92-.93Zm-1.22,0h.72v-.36c0,.12-.16.13-.72.13Zm-7,0h6.49v-.23H25V12h-.25v-.09a1.6,1.6,0,0,0,0-.32v-.06H19.77s0,0,0,.06,0,.25,0,.32V12h-.25v.25H19Zm-1.21,0h.71v-.23c-.56,0-.68,0-.71-.13Zm-1.42,0h.92v-.93A1.19,1.19,0,0,0,16.36,12.49Zm1.42-1v.26h0a2.5,2.5,0,0,1,0-.25Zm8.89,0c0,.09,0,.18,0,.25h0Zm-1.46,0c0,.08,0,.16,0,.22h.24v-.22ZM19,11.76h.25a1,1,0,0,1,0-.22H19Zm7,0h.21a2,2,0,0,0,0-.22H26Zm-7.7,0h.21v-.22h-.18C18.3,11.62,18.29,11.7,18.28,11.76ZM26,11h.1a4.49,4.49,0,0,0-.36-1,3.65,3.65,0,0,0-1.19-1.43,3.88,3.88,0,0,0-2-.64v.95a2.87,2.87,0,0,1,1.5.47,2.76,2.76,0,0,1,.88,1.07,3.45,3.45,0,0,1,.23.63ZM19.9,11h4.68a3.61,3.61,0,0,0-.16-.42,2.12,2.12,0,0,0-.72-.86,2.88,2.88,0,0,0-2.93,0,2.18,2.18,0,0,0-.71.86A2.41,2.41,0,0,0,19.9,11Zm-1.41,0h.88a3.51,3.51,0,0,1,.24-.63,2.68,2.68,0,0,1,.88-1.07A2.87,2.87,0,0,1,22,8.87V7.92a3.85,3.85,0,0,0-2,.64A3.67,3.67,0,0,0,18.75,10a5,5,0,0,0-.35,1Z"/><path className="cls-3" d="M46,2.29s0-.06,0-.1H13.57C11.79,2.19,11,3,11,4.79v38a1.22,1.22,0,0,0,.69.09H36.91c1.2,0,1.5.3,1.5,1.52,0,2,0,4,0,6.07a3.2,3.2,0,0,0,2,3.11A3.12,3.12,0,0,0,44,52.9,3.49,3.49,0,0,0,45,50.14q0-22,0-44.07A6.29,6.29,0,0,1,46,2.29Z"/><path className="cls-4" d="M36.22,50c0-1.64,0-3.27,0-4.92H5.47v6.26A2.24,2.24,0,0,0,8,53.81H37.34a5.94,5.94,0,0,1-.87-1.72A7.07,7.07,0,0,1,36.22,50Z"/></g></svg>