<svg xmlns="http://www.w3.org/2000/svg" width="410" height="117" viewBox="0 0 410 117" fill="none"><path fill-rule="evenodd" clip-rule="evenodd" d="M148.733 0.359375L14.1474 140.948L15.9865 167.71L138.348 39.7035L175.888 0.359375L148.733 0.359375ZM122.972 118.404L0.668945 246.465L28.0985 246.447L162.409 105.605L160.569 79.1125L122.972 118.404ZM317.213 0.359375L182.627 140.948L184.466 167.71L306.828 39.7035L344.367 0.359375L317.213 0.359375ZM291.451 118.404L169.148 246.465L196.578 246.447L330.887 105.605L329.047 79.1125L291.451 118.404Z" fill="#28EB9B"></path><path fill-rule="evenodd" clip-rule="evenodd" d="M485.691 0.359375L351.105 140.948L352.946 167.71L475.306 39.7035L512.845 0.359375L485.691 0.359375ZM459.93 118.404L337.627 246.465L365.058 246.447L499.367 105.605L497.526 79.1125L459.93 118.404Z" fill="#28EB9B"></path></svg>