<?xml version="1.0" encoding="utf-8"?>
<!-- Generator: Adobe Illustrator 24.2.1, SVG Export Plug-In . SVG Version: 6.00 Build 0)  -->
<svg version="1.1" id="Layer_1" xmlns="http://www.w3.org/2000/svg" xmlns:xlink="http://www.w3.org/1999/xlink" x="0px" y="0px"
	 viewBox="0 0 500 400" style="enable-background:new 0 0 500 400;" xml:space="preserve">
<style type="text/css">
	.st0{fill:#EEEEEE;}
	.st1{fill:#C9E8FF;}
	.st2{fill:#F7B68B;}
	.st3{fill:#163F59;}
	.st4{fill:#02355E;}
	.st5{fill:#005EB8;}
	.st6{fill:none;stroke:#70BEF2;stroke-width:2.56;stroke-miterlimit:10;}
	.st7{fill:#FBB040;}
	.st8{fill:#ED8B00;}
	.st9{enable-background:new    ;}
	.st10{fill:#32A4F9;}
	.st11{fill:#0A84F2;}
	.st12{fill:#32A4F9;stroke:#32A4F9;stroke-width:0.75;stroke-miterlimit:10;}
	.st13{fill:#0A84F2;stroke:#0A84F2;stroke-width:0.75;stroke-miterlimit:10;}
	.st14{fill:#FEFEFE;}
</style>
<path className="st0" d="M386.9,77.2c-35.1-1.8-143.7-9.3-209.7-29.5C54.9,10.3-44.8,69.8,20.9,139.1c18.4,19.4-34.3,134.2,95.2,161.3
	c113.6,23.7,229.3-24.3,285.4-44.8s81.8-57.6,93.8-74.4C505.8,166.5,509.5,83.5,386.9,77.2z"/>
<g>
	<g>
		<path className="st1" d="M382.1,391.8l4.3-136.7c0,0-32.2-17.2-74.8-7.5L273.5,269l8.3,122.9L382.1,391.8z"/>
		<path className="st2" d="M471.7,350.7l14.4-53.1c0,0-27.2,31.1-28.3,48.6C456.7,363.8,471.7,350.7,471.7,350.7z"/>
		<path className="st2" d="M479,312.3c0,0-4.9-6.9-4.2-9.3c0.6-2.3,3.7-10.6,3.7-10.6l1-2.1c0,0,2.9-0.2,0.8,5.4s0.4,3.4,0.4,3.4
			l3.9-4.3l5.1-4.9l2-2.5c0,0,1-1.5,1.6-1.6c1.6-0.4,1.3,0.9,1.3,0.9l-6.9,10.3l9-7.8c0,0,1.3-0.8,2-0.4c0.6,0.4,0.3,0.8,0.3,0.8
			l-8.1,11.2l5-3.5c0,0,1.3-0.8,2-0.4s0.9,0.6,0.9,0.6l-17.7,16.2L479,312.3z"/>
		<path className="st2" d="M489.6,298l6.7-5.1c0.7-0.6,1.4-1.2,2.3-1.5c0.5-0.2,1.2,0.1,1.4,0.7l0,0l-9.3,8.7L489.6,298z"/>
		<path className="st2" d="M203.1,352.8l-55.7-8.7c0,0,39.6,26,53.1,27.8S203.1,352.8,203.1,352.8z"/>
		<path className="st2" d="M165.7,350.5c0,0-0.7-8.9-2.9-10.3s-10.3-6-10.3-6l-2.2-1c0,0-2.4,1.8,3.1,4.9s2.1,3.1,2.1,3.1l-6-0.9
			l-7.6-0.5l-3.3-0.6c0,0-1.9-0.5-2.4-0.3c-1.6,0.7-0.4,1.6-0.4,1.6l12.6,3.6l-12.6-0.2c0,0-1.6,0.3-1.8,1.1
			c-0.2,0.8,0.4,0.8,0.4,0.8l14.1,3.5l-6.5,0.6c0,0-1.6,0.3-1.8,1.1c-0.1,0.4-0.2,0.7-0.4,1.1l25.4,1L165.7,350.5z"/>
		<path className="st2" d="M147.5,346.2l-8.9,0.4c-1-0.1-2,0-3,0.4c-0.6,0.3-0.9,0.9-0.6,1.5l0,0l13.4,0.7L147.5,346.2z"/>
		<polygon className="st2" points="353,254.5 340.5,204.1 320.2,213.7 315.5,258.4 		"/>
		<path className="st2" d="M308.1,211.6c-0.5,2.5,1,4.9,3.5,5.5l0,0l20.2,4.4c2.5,0.5,4.9-1,5.5-3.5l0,0l6.6-29.9c0.5-2.5-1-4.9-3.5-5.5
			l-20.2-4.4c-2.5-0.5-4.9,1-5.5,3.5L308.1,211.6z"/>
		<path className="st3" d="M313.2,187.8c0,0-2.1-3.5-2.2-5.4c-0.1-1,1.5-4.1,4.1-5s3.9,2.1,3.9,2.1s-4,1.3-4.4,1.9
			C314.3,181.9,313.2,187.8,313.2,187.8z"/>
		<path className="st4" d="M343,201.9c0,0,5.6-10.9,5.8-14.3s0.3-5.9-3.7-7.2c-6-1.9-6.4-0.6-9-3.1s-7-8.2-8.7-9.1c-3-1.4-8-1.4-9.4,4.3
			c-0.4,2.2-1.9,4-4,4.9c0.1,0.5,1.2,1.3,2.9,2.7c5,4,8.3,5.3,12.9,5.1s13.1-0.9,13.3,2.5s-2.2,13-2.1,13.8
			C341.1,202.3,342.1,202.3,343,201.9z"/>
		<path className="st2" d="M334.6,209.5c-0.2,0.8,0.4,1.6,1.2,1.8l4.4,1c0.8,0.2,1.6-0.4,1.8-1.2l1.7-8c0.2-0.8-0.4-1.6-1.2-1.8
			l-4.4-0.9c-0.8-0.2-1.6,0.4-1.8,1.2L334.6,209.5z"/>
		<path className="st2" d="M308.6,203.9c-0.2,0.8,0.4,1.6,1.2,1.8l4.4,1c0.8,0.2,1.6-0.4,1.8-1.2l1.7-8c0.2-0.8-0.4-1.6-1.2-1.8l-4.4-1
			c-0.8-0.2-1.6,0.4-1.8,1.2L308.6,203.9z"/>
		<path className="st4" d="M340.5,204.1l-3.4,15.7c-0.8,3.6-3.9,11.1-24,6.7c-11.9-2.6-9.5-11.2-8.9-14.1c0.4-2.2,4.4-8.2,5.9-9.2
			c0.1,0-1.1,4.9-1.1,4.9c2.3-2.5,5.8-3.7,9.2-3c9.1,2,10.1,7.7,14,8.5C335.3,214.3,338.7,209.7,340.5,204.1z"/>
		<path className="st0" d="M315.8,215.6c-3.5-0.7-3.2-4.2-3.1-5l0.2-0.9l9.3,2.1l-0.2,0.9C321.8,213.3,320.9,216.5,315.8,215.6z"/>
		<path className="st1" d="M289.6,334l-44.2,63.9l-79.7-32.1l6.7-20.6l60.6,16.5c0,0,18-67.7,28.1-81.2s18.3-15.3,18.3-15.3L289.6,334z"
			/>
		<path className="st1" d="M383.8,253.5c0,0,22,17.6,37,48.3s23.9,50.5,23.9,50.5l25.4-39.3l18,16.5l-41.5,67.4c0,0-6,7.1-12.3,0
			s-58.3-88-58.3-88S364.7,252.8,383.8,253.5z"/>
		<polygon className="st5" points="303.9,365.4 312.5,392.3 331.2,367.3 328.2,269.6 334.2,260.2 323.7,248.3 315.5,258.4 319.6,268.2 
					"/>
		<path className="st1" d="M311.8,238.6l14.6,7.1l28.4-10.1l9,13.1l-28.1,19.4l-10.9-15.7l-5.9,5.8l-5.7,5.5l-12-9L311.8,238.6z"/>
		<path className="st6" d="M363.7,248.6L335.6,268l-10.9-15.7l-5.9,5.8c-0.3,0.3-5.4,7.7-5.7,8"/>
	</g>
</g>
<path className="st7" d="M109.2,268.2c-7.2,2.4-9.1,4.4-11.5,11.5c-2.4-7.2-4.4-9.1-11.5-11.5c7.2-2.4,9.1-4.4,11.5-11.5
	C100.1,263.8,102,265.7,109.2,268.2z"/>
<path className="st8" d="M289,116.6c-4.7,1.6-6,2.9-7.6,7.6c-1.6-4.7-2.9-6-7.6-7.6c4.7-1.6,6-2.9,7.6-7.6
	C283,113.8,284.3,115.1,289,116.6z"/>
<path className="st8" d="M15.2,162.4c-4.7,1.6-6,2.9-7.6,7.6c-1.6-4.7-2.9-6-7.6-7.6c4.7-1.6,6-2.9,7.6-7.6
	C9.2,159.5,10.5,160.8,15.2,162.4z"/>
<path className="st7" d="M204.2,23.5c-4.7,1.6-6,2.9-7.6,7.6c-1.6-4.7-2.9-6-7.6-7.6c4.7-1.6,6-2.9,7.6-7.6
	C198.2,20.6,199.5,21.9,204.2,23.5z"/>
<g>
	<g>
		<g>
			<g className="st9">
				<g>
					<polygon className="st10" points="72.8,187.1 45.4,203 17.9,187.1 45.3,171.2 					"/>
				</g>
				<g>
					<polygon className="st5" points="72.8,187.1 72.7,215.3 45.4,231.2 45.4,203 					"/>
				</g>
				<g>
					<polygon className="st11" points="45.4,203 45.4,231.2 17.9,215.3 17.9,187.1 					"/>
				</g>
			</g>
		</g>
		<g>
			<g className="st9">
				<g>
					<polygon className="st10" points="264.3,187.1 237,203 209.5,187.1 236.8,171.2 					"/>
				</g>
				<g>
					<polygon className="st5" points="264.3,187.1 264.2,215.3 236.9,231.2 237,203 					"/>
				</g>
				<g>
					<polygon className="st11" points="237,203 236.9,231.2 209.4,215.3 209.5,187.1 					"/>
				</g>
			</g>
		</g>
		<g>
			<path className="st12" d="M134.7,246.3l2,1c0.3,0.2,0.5,0.5,0.6,0.8l0.7,0.4c0.1-0.7-0.3-1.4-1-1.8l-2-1c-0.7-0.3-1.5-0.2-2,0.3
				l0.7,0.4C134,246.1,134.4,246.1,134.7,246.3z"/>
			<path className="st12" d="M135.7,249.3l-2-1c-0.3-0.2-0.5-0.5-0.6-0.8l-0.7-0.4c-0.1,0.7,0.3,1.4,1,1.8l2,1c0.7,0.3,1.5,0.2,2-0.3
				l-0.7-0.4C136.4,249.4,136,249.4,135.7,249.3z"/>
			<g>
				<path className="st12" d="M134.1,247.2c-0.1,0.2-0.3,0.2-0.5,0.2l-4.7-2.3c-0.2-0.1-0.2-0.3-0.2-0.5c0.1-0.2,0.3-0.2,0.5-0.2
					l4.7,2.3C134.1,246.8,134.2,247.1,134.1,247.2z"/>
			</g>
			<g>
				<path className="st12" d="M141.3,250.8c-0.1,0.2-0.3,0.2-0.5,0.2l-4.7-2.3c-0.2-0.1-0.2-0.3-0.2-0.5c0.1-0.2,0.3-0.2,0.5-0.2
					l4.7,2.3C141.3,250.4,141.3,250.6,141.3,250.8z"/>
			</g>
			<path className="st12" d="M127.6,242.7l2,1c0.3,0.2,0.5,0.5,0.6,0.8l0.7,0.4c0.1-0.7-0.3-1.4-1-1.8l-2-1c-0.7-0.3-1.5-0.2-2,0.3
				l0.7,0.4C126.9,242.5,127.3,242.5,127.6,242.7z"/>
			<path className="st12" d="M128.6,245.7l-2-1c-0.3-0.2-0.5-0.5-0.6-0.8l-0.7-0.4c-0.1,0.7,0.3,1.4,1,1.8l2,1c0.7,0.3,1.5,0.2,2-0.3
				l-0.7-0.4C129.3,245.9,128.9,245.9,128.6,245.7z"/>
			<path className="st12" d="M120.5,239.1l2,1c0.3,0.2,0.5,0.5,0.6,0.8l0.7,0.4c0.1-0.7-0.3-1.4-1-1.8l-2-1c-0.7-0.3-1.5-0.2-2,0.3
				l0.7,0.4C119.8,239,120.1,239,120.5,239.1z"/>
			<path className="st12" d="M121.4,242.2l-2-1c-0.3-0.2-0.5-0.5-0.6-0.8l-0.7-0.4c-0.1,0.7,0.3,1.4,1,1.8l2,1c0.7,0.3,1.5,0.2,2-0.3
				l-0.7-0.4C122.1,242.3,121.8,242.3,121.4,242.2z"/>
			<g>
				<path className="st12" d="M119.9,240.1c-0.1,0.2-0.3,0.2-0.5,0.2l-4.7-2.3c-0.2-0.1-0.2-0.3-0.2-0.5c0.1-0.2,0.3-0.2,0.5-0.2
					l4.7,2.3C119.9,239.7,119.9,239.9,119.9,240.1z"/>
			</g>
			<g>
				<path className="st12" d="M127,243.7c-0.1,0.2-0.3,0.2-0.5,0.2l-4.7-2.3c-0.2-0.1-0.2-0.3-0.2-0.5c0.1-0.2,0.3-0.2,0.5-0.2l4.7,2.3
					C127,243.3,127.1,243.5,127,243.7z"/>
			</g>
			<path className="st12" d="M113.3,235.6l2,1c0.3,0.2,0.5,0.5,0.6,0.8l0.7,0.4c0.1-0.7-0.3-1.4-1-1.8l-2-1c-0.7-0.3-1.5-0.2-2,0.3
				l0.7,0.4C112.6,235.4,113,235.4,113.3,235.6z"/>
			<path className="st12" d="M114.3,238.6l-2-1c-0.3-0.2-0.5-0.5-0.6-0.8l-0.7-0.4c-0.1,0.7,0.3,1.4,1,1.8l2,1c0.7,0.3,1.5,0.2,2-0.3
				l-0.7-0.4C115,238.8,114.6,238.8,114.3,238.6z"/>
			<path className="st12" d="M106.2,232l2,1c0.3,0.2,0.5,0.5,0.6,0.8l0.7,0.4c0.1-0.7-0.3-1.4-1-1.8l-2-1c-0.7-0.3-1.5-0.2-2,0.3
				l0.7,0.4C105.5,231.9,105.9,231.9,106.2,232z"/>
			<path className="st12" d="M107.2,235l-2-1c-0.3-0.2-0.5-0.5-0.6-0.8l-0.7-0.4c-0.1,0.7,0.3,1.4,1,1.8l2,1c0.7,0.3,1.5,0.2,2-0.3
				l-0.7-0.4C107.8,235.2,107.5,235.2,107.2,235z"/>
			<g>
				<path className="st12" d="M105.6,233c-0.1,0.2-0.3,0.2-0.5,0.2l-4.7-2.3c-0.2-0.1-0.2-0.3-0.2-0.5c0.1-0.2,0.3-0.2,0.5-0.2l4.7,2.3
					C105.6,232.6,105.7,232.8,105.6,233z"/>
			</g>
			<g>
				<path className="st12" d="M112.7,236.6c-0.1,0.2-0.3,0.2-0.5,0.2l-4.7-2.3c-0.2-0.1-0.2-0.3-0.2-0.5c0.1-0.2,0.3-0.2,0.5-0.2
					l4.7,2.3C112.7,236.2,112.8,236.4,112.7,236.6z"/>
			</g>
			<path className="st12" d="M99,228.5l2,1c0.3,0.2,0.5,0.5,0.6,0.8l0.7,0.4c0.1-0.7-0.3-1.4-1-1.8l-2-1c-0.7-0.3-1.5-0.2-2,0.3l0.7,0.4
				C98.4,228.3,98.7,228.3,99,228.5z"/>
			<path className="st12" d="M100,231.5l-2-1c-0.3-0.2-0.5-0.5-0.6-0.8l-0.7-0.4c-0.1,0.7,0.3,1.4,1,1.8l2,1c0.7,0.3,1.5,0.2,2-0.3
				l-0.7-0.4C100.7,231.6,100.3,231.7,100,231.5z"/>
			<path className="st12" d="M91.9,224.9l2,1c0.3,0.2,0.5,0.5,0.6,0.8l0.7,0.4c0.1-0.7-0.3-1.4-1-1.8l-2-1c-0.7-0.3-1.5-0.2-2,0.3
				l0.7,0.4C91.2,224.8,91.6,224.7,91.9,224.9z"/>
			<path className="st12" d="M92.9,227.9l-2-1c-0.3-0.2-0.5-0.5-0.6-0.8l-0.7-0.4c-0.1,0.7,0.3,1.4,1,1.8l2,1c0.7,0.3,1.5,0.2,2-0.3
				l-0.7-0.4C93.6,228.1,93.2,228.1,92.9,227.9z"/>
			<g>
				<path className="st12" d="M91.3,225.9c-0.1,0.2-0.3,0.2-0.5,0.2l-4.7-2.3c-0.2-0.1-0.2-0.3-0.2-0.5c0.1-0.2,0.3-0.2,0.5-0.2l4.7,2.3
					C91.3,225.5,91.4,225.7,91.3,225.9z"/>
			</g>
			<g>
				<path className="st12" d="M98.4,229.4c-0.1,0.2-0.3,0.2-0.5,0.2l-4.7-2.3c-0.2-0.1-0.2-0.3-0.2-0.5c0.1-0.2,0.3-0.2,0.5-0.2l4.7,2.3
					C98.5,229.1,98.5,229.3,98.4,229.4z"/>
			</g>
			<path className="st12" d="M84.8,221.3l2,1c0.3,0.2,0.5,0.5,0.6,0.8l0.7,0.4c0.1-0.7-0.3-1.4-1-1.8l-2-1c-0.7-0.3-1.5-0.2-2,0.3
				l0.7,0.4C84.1,221.2,84.4,221.2,84.8,221.3z"/>
			<path className="st12" d="M85.7,224.4l-2-1c-0.3-0.2-0.5-0.5-0.6-0.8l-0.7-0.4c-0.1,0.7,0.3,1.4,1,1.8l2,1c0.7,0.3,1.5,0.2,2-0.3
				l-0.7-0.4C86.4,224.5,86.1,224.5,85.7,224.4z"/>
			<path className="st12" d="M77.6,217.8l2,1c0.3,0.2,0.5,0.5,0.6,0.8l0.7,0.4c0.1-0.7-0.3-1.4-1-1.8l-2-1c-0.7-0.3-1.5-0.2-2,0.3
				l0.7,0.4C76.9,217.6,77.3,217.6,77.6,217.8z"/>
			<path className="st12" d="M78.6,220.8l-2-1c-0.3-0.2-0.5-0.5-0.6-0.8l-0.7-0.4c-0.1,0.7,0.3,1.4,1,1.8l2,1c0.7,0.3,1.5,0.2,2-0.3
				l-0.7-0.4C79.3,221,78.9,221,78.6,220.8z"/>
			<g>
				<path className="st12" d="M77,218.8c-0.1,0.2-0.3,0.2-0.5,0.2l-4.7-2.3c-0.2-0.1-0.2-0.3-0.2-0.5c0.1-0.2,0.3-0.2,0.5-0.2l4.7,2.3
					C77,218.4,77.1,218.6,77,218.8z"/>
			</g>
			<g>
				<path className="st12" d="M84.2,222.3c-0.1,0.2-0.3,0.2-0.5,0.2l-4.7-2.3c-0.2-0.1-0.2-0.3-0.2-0.5c0.1-0.2,0.3-0.2,0.5-0.2l4.7,2.3
					C84.2,221.9,84.3,222.1,84.2,222.3z"/>
			</g>
			<path className="st12" d="M70.5,214.2l2,1c0.3,0.2,0.5,0.5,0.6,0.8l0.7,0.4c0.1-0.7-0.3-1.4-1-1.8l-2-1c-0.7-0.3-1.5-0.2-2,0.3
				l0.7,0.4C69.8,214.1,70.2,214.1,70.5,214.2z"/>
			<path className="st12" d="M71.5,217.3l-2-1c-0.3-0.2-0.5-0.5-0.6-0.8l-0.7-0.4c-0.1,0.7,0.3,1.4,1,1.8l2,1c0.7,0.3,1.5,0.2,2-0.3
				l-0.7-0.4C72.2,217.4,71.8,217.4,71.5,217.3z"/>
			<path className="st12" d="M63.4,210.7l2,1c0.3,0.2,0.5,0.5,0.6,0.8l0.7,0.4c0.1-0.7-0.3-1.4-1-1.8l-2-1c-0.7-0.3-1.5-0.2-2,0.3
				l0.7,0.4C62.7,210.5,63,210.5,63.4,210.7z"/>
			<path className="st12" d="M64.3,213.7l-2-1c-0.3-0.2-0.5-0.5-0.6-0.8l-0.7-0.4c-0.1,0.7,0.3,1.4,1,1.8l2,1c0.7,0.3,1.5,0.2,2-0.3
				l-0.7-0.4C65,213.8,64.7,213.9,64.3,213.7z"/>
			<g>
				<path className="st12" d="M62.8,211.6c-0.1,0.2-0.3,0.2-0.5,0.2l-4.7-2.3c-0.2-0.1-0.2-0.3-0.2-0.5c0.1-0.2,0.3-0.2,0.5-0.2l4.7,2.3
					C62.8,211.3,62.8,211.5,62.8,211.6z"/>
			</g>
			<g>
				<path className="st12" d="M69.9,215.2c-0.1,0.2-0.3,0.2-0.5,0.2l-4.7-2.3c-0.2-0.1-0.2-0.3-0.2-0.5c0.1-0.2,0.3-0.2,0.5-0.2l4.7,2.3
					C69.9,214.8,70,215,69.9,215.2z"/>
			</g>
		</g>
		<g>
			<path className="st12" d="M146.8,246.5l-2,1c-0.3,0.2-0.5,0.5-0.6,0.8l-0.7,0.4c-0.1-0.7,0.3-1.4,1-1.8l2-1c0.7-0.3,1.5-0.2,2,0.3
				l-0.7,0.4C147.5,246.4,147.2,246.4,146.8,246.5z"/>
			<path className="st12" d="M145.9,249.6l2-1c0.3-0.2,0.5-0.5,0.6-0.8l0.7-0.4c0.1,0.7-0.3,1.4-1,1.8l-2,1c-0.7,0.3-1.5,0.2-2-0.3
				l0.7-0.4C145.2,249.7,145.5,249.7,145.9,249.6z"/>
			<g>
				<path className="st12" d="M147.4,247.5c0.1,0.2,0.3,0.2,0.5,0.2l4.7-2.3c0.2-0.1,0.2-0.3,0.2-0.5s-0.3-0.2-0.5-0.2l-4.7,2.3
					C147.4,247.1,147.3,247.3,147.4,247.5z"/>
			</g>
			<g>
				<path className="st12" d="M140.3,251.1c0.1,0.2,0.3,0.2,0.5,0.2l4.7-2.3c0.2-0.1,0.2-0.3,0.2-0.5c-0.1-0.2-0.3-0.2-0.5-0.2l-4.7,2.3
					C140.3,250.7,140.2,250.9,140.3,251.1z"/>
			</g>
			<path className="st12" d="M154,243l-2,1c-0.3,0.2-0.5,0.5-0.6,0.8l-0.7,0.4c-0.1-0.7,0.3-1.4,1-1.8l2-1c0.7-0.3,1.5-0.2,2,0.3
				L155,243C154.7,242.8,154.3,242.8,154,243z"/>
			<path className="st12" d="M153,246l2-1c0.3-0.2,0.5-0.5,0.6-0.8l0.7-0.4c0.1,0.7-0.3,1.4-1,1.8l-2,1c-0.7,0.3-1.5,0.2-2-0.3l0.7-0.4
				C152.3,246.2,152.7,246.2,153,246z"/>
			<path className="st12" d="M161.1,239.4l-2,1c-0.3,0.2-0.5,0.5-0.6,0.8l-0.7,0.4c-0.1-0.7,0.3-1.4,1-1.8l2-1c0.7-0.3,1.5-0.2,2,0.3
				l-0.7,0.4C161.8,239.3,161.4,239.2,161.1,239.4z"/>
			<path className="st12" d="M160.1,242.4l2-1c0.3-0.2,0.5-0.5,0.6-0.8l0.7-0.4c0.1,0.7-0.3,1.4-1,1.8l-2,1c-0.7,0.3-1.5,0.2-2-0.3
				l0.7-0.4C159.4,242.6,159.8,242.6,160.1,242.4z"/>
			<g>
				<path className="st12" d="M161.7,240.4c0.1,0.2,0.3,0.2,0.5,0.2l4.7-2.3c0.2-0.1,0.2-0.3,0.2-0.5c-0.1-0.2-0.3-0.2-0.5-0.2l-4.7,2.3
					C161.7,240,161.6,240.2,161.7,240.4z"/>
			</g>
			<g>
				<path className="st12" d="M154.6,243.9c0.1,0.2,0.3,0.2,0.5,0.2l4.7-2.3c0.2-0.1,0.2-0.3,0.2-0.5c-0.1-0.2-0.3-0.2-0.5-0.2l-4.7,2.3
					C154.6,243.6,154.5,243.8,154.6,243.9z"/>
			</g>
			<path className="st12" d="M168.2,235.9l-2,1c-0.3,0.2-0.5,0.5-0.6,0.8l-0.7,0.4c-0.1-0.7,0.3-1.4,1-1.8l2-1c0.7-0.3,1.5-0.2,2,0.3
				l-0.7,0.4C168.9,235.7,168.6,235.7,168.2,235.9z"/>
			<path className="st12" d="M167.3,238.9l2-1c0.3-0.2,0.5-0.5,0.6-0.8l0.7-0.4c0.1,0.7-0.3,1.4-1,1.8l-2,1c-0.7,0.3-1.5,0.2-2-0.3
				l0.7-0.4C166.6,239,166.9,239,167.3,238.9z"/>
			<path className="st12" d="M175.4,232.3l-2,1c-0.3,0.2-0.5,0.5-0.6,0.8l-0.7,0.4c-0.1-0.7,0.3-1.4,1-1.8l2-1c0.7-0.3,1.5-0.2,2,0.3
				l-0.7,0.4C176.1,232.1,175.7,232.1,175.4,232.3z"/>
			<path className="st12" d="M174.4,235.3l2-1c0.3-0.2,0.5-0.5,0.6-0.8l0.7-0.4c0.1,0.7-0.3,1.4-1,1.8l-2,1c-0.7,0.3-1.5,0.2-2-0.3
				l0.7-0.4C173.7,235.5,174.1,235.5,174.4,235.3z"/>
			<g>
				<path className="st12" d="M176,233.3c0.1,0.2,0.3,0.2,0.5,0.2l4.7-2.3c0.2-0.1,0.2-0.3,0.2-0.5c-0.1-0.2-0.3-0.2-0.5-0.2l-4.7,2.3
					C176,232.9,175.9,233.1,176,233.3z"/>
			</g>
			<g>
				<path className="st12" d="M168.8,236.8c0.1,0.2,0.3,0.2,0.5,0.2l4.7-2.3c0.2-0.1,0.2-0.3,0.2-0.5c-0.1-0.2-0.3-0.2-0.5-0.2l-4.7,2.3
					C168.8,236.4,168.8,236.6,168.8,236.8z"/>
			</g>
			<path className="st12" d="M182.5,228.7l-2,1c-0.3,0.2-0.5,0.5-0.6,0.8l-0.7,0.4c-0.1-0.7,0.3-1.4,1-1.8l2-1c0.7-0.3,1.5-0.2,2,0.3
				l-0.7,0.4C183.2,228.6,182.8,228.6,182.5,228.7z"/>
			<path className="st12" d="M181.5,231.8l2-1c0.3-0.2,0.5-0.5,0.6-0.8l0.7-0.4c0.1,0.7-0.3,1.4-1,1.8l-2,1c-0.7,0.3-1.5,0.2-2-0.3
				l0.7-0.4C180.8,231.9,181.2,231.9,181.5,231.8z"/>
			<path className="st12" d="M189.6,225.2l-2,1c-0.3,0.2-0.5,0.5-0.6,0.8l-0.7,0.4c-0.1-0.7,0.3-1.4,1-1.8l2-1c0.7-0.3,1.5-0.2,2,0.3
				l-0.7,0.4C190.3,225,190,225,189.6,225.2z"/>
			<path className="st12" d="M188.7,228.2l2-1c0.3-0.2,0.5-0.5,0.6-0.8l0.7-0.4c0.1,0.7-0.3,1.4-1,1.8l-2,1c-0.7,0.3-1.5,0.2-2-0.3
				l0.7-0.4C188,228.4,188.4,228.4,188.7,228.2z"/>
			<g>
				<path className="st12" d="M190.3,226.1c0.1,0.2,0.3,0.2,0.5,0.2l4.7-2.3c0.2-0.1,0.2-0.3,0.2-0.5c-0.1-0.2-0.3-0.2-0.5-0.2l-4.7,2.3
					C190.2,225.8,190.2,226,190.3,226.1z"/>
			</g>
			<g>
				<path className="st12" d="M183.1,229.7c0.1,0.2,0.3,0.2,0.5,0.2l4.7-2.3c0.2-0.1,0.2-0.3,0.2-0.5c-0.1-0.2-0.3-0.2-0.5-0.2l-4.7,2.3
					C183.1,229.3,183,229.5,183.1,229.7z"/>
			</g>
			<path className="st12" d="M196.8,221.6l-2,1c-0.3,0.2-0.5,0.5-0.6,0.8l-0.7,0.4c-0.1-0.7,0.3-1.4,1-1.8l2-1c0.7-0.3,1.5-0.2,2,0.3
				l-0.7,0.4C197.5,221.5,197.1,221.5,196.8,221.6z"/>
			<path className="st12" d="M195.8,224.6l2-1c0.3-0.2,0.5-0.5,0.6-0.8l0.7-0.4c0.1,0.7-0.3,1.4-1,1.8l-2,1c-0.7,0.3-1.5,0.2-2-0.3
				l0.7-0.4C195.1,224.8,195.5,224.8,195.8,224.6z"/>
			<path className="st12" d="M203.9,218.1l-2,1c-0.3,0.2-0.5,0.5-0.6,0.8l-0.7,0.4c-0.1-0.7,0.3-1.4,1-1.8l2-1c0.7-0.3,1.5-0.2,2,0.3
				l-0.7,0.4C204.6,217.9,204.2,217.9,203.9,218.1z"/>
			<path className="st12" d="M202.9,221.1l2-1c0.3-0.2,0.5-0.5,0.6-0.8l0.7-0.4c0.1,0.7-0.3,1.4-1,1.8l-2,1c-0.7,0.3-1.5,0.2-2-0.3
				l0.7-0.4C202.3,221.2,202.6,221.2,202.9,221.1z"/>
			<g>
				<path className="st12" d="M204.5,219c0.1,0.2,0.3,0.2,0.5,0.2l4.7-2.3c0.2-0.1,0.2-0.3,0.2-0.5c-0.1-0.2-0.3-0.2-0.5-0.2l-4.7,2.3
					C204.5,218.6,204.4,218.9,204.5,219z"/>
			</g>
			<g>
				<path className="st12" d="M197.4,222.6c0.1,0.2,0.3,0.2,0.5,0.2l4.7-2.3c0.2-0.1,0.2-0.3,0.2-0.5c-0.1-0.2-0.3-0.2-0.5-0.2l-4.7,2.3
					C197.4,222.2,197.3,222.4,197.4,222.6z"/>
			</g>
			<path className="st12" d="M211.1,214.5l-2,1c-0.3,0.2-0.5,0.5-0.6,0.8l-0.7,0.4c-0.1-0.7,0.3-1.4,1-1.8l2-1c0.7-0.3,1.5-0.2,2,0.3
				l-0.7,0.4C211.7,214.3,211.4,214.3,211.1,214.5z"/>
			<path className="st12" d="M210.1,217.5l2-1c0.3-0.2,0.5-0.5,0.6-0.8l0.7-0.4c0.1,0.7-0.3,1.4-1,1.8l-2,1c-0.7,0.3-1.5,0.2-2-0.3
				l0.7-0.4C209.4,217.7,209.8,217.7,210.1,217.5z"/>
			<path className="st12" d="M218.2,210.9l-2,1c-0.3,0.2-0.5,0.5-0.6,0.8l-0.7,0.4c-0.1-0.7,0.3-1.4,1-1.8l2-1c0.7-0.3,1.5-0.2,2,0.3
				l-0.7,0.4C218.9,210.8,218.5,210.8,218.2,210.9z"/>
			<path className="st12" d="M217.2,214l2-1c0.3-0.2,0.5-0.5,0.6-0.8l0.7-0.4c0.1,0.7-0.3,1.4-1,1.8l-2,1c-0.7,0.3-1.5,0.2-2-0.3
				l0.7-0.4C216.5,214.1,216.9,214.1,217.2,214z"/>
			<g>
				<path className="st12" d="M218.8,211.9c0.1,0.2,0.3,0.2,0.5,0.2l4.7-2.3c0.2-0.1,0.2-0.3,0.2-0.5c-0.1-0.2-0.3-0.2-0.5-0.2l-4.7,2.3
					C218.8,211.5,218.7,211.7,218.8,211.9z"/>
			</g>
			<g>
				<path className="st12" d="M211.7,215.5c0.1,0.2,0.3,0.2,0.5,0.2l4.7-2.3c0.2-0.1,0.2-0.3,0.2-0.5c-0.1-0.2-0.3-0.2-0.5-0.2l-4.7,2.3
					C211.6,215.1,211.6,215.3,211.7,215.5z"/>
			</g>
		</g>
		<g>
			<g className="st9">
				<g>
					<polygon className="st10" points="168.5,228.4 141.2,244.3 113.7,228.4 141,212.5 					"/>
				</g>
				<g>
					<polygon className="st5" points="168.5,228.4 168.4,256.6 141.1,272.5 141.2,244.3 					"/>
				</g>
				<g>
					<polygon className="st11" points="141.2,244.3 141.1,272.5 113.6,256.6 113.7,228.4 					"/>
				</g>
			</g>
		</g>
		<g>
			<g className="st9">
				<g>
					<polygon className="st10" points="168.5,15.9 141.2,31.8 113.7,15.9 141,0 					"/>
				</g>
				<g>
					<polygon className="st5" points="168.5,15.9 168.4,44.1 141.1,60 141.2,31.8 					"/>
				</g>
				<g>
					<polygon className="st11" points="141.2,31.8 141.1,60 113.6,44.1 113.7,15.9 					"/>
				</g>
			</g>
		</g>
		<g>
			<g>
				<path className="st12" d="M40.5,76.4c-0.1-0.2,0-0.4,0.2-0.5l4.7-2.2c0.2-0.1,0.4,0,0.5,0.2s0,0.4-0.2,0.5L41,76.6
					C40.8,76.6,40.5,76.5,40.5,76.4z"/>
			</g>
			<path className="st12" d="M48.1,74l-2,1c-0.3,0.2-0.7,0.1-1,0l-0.7,0.3c0.5,0.5,1.3,0.6,2,0.3l2-1c0.7-0.3,1.1-1,1-1.8l-0.7,0.3
				C48.6,73.6,48.4,73.8,48.1,74z"/>
			<path className="st12" d="M45.1,72.9l2-1c0.3-0.2,0.7-0.1,1,0l0.7-0.3c-0.5-0.5-1.3-0.6-2-0.3l-2,1c-0.7,0.3-1.1,1-1,1.8l0.7-0.3
				C44.5,73.4,44.7,73.1,45.1,72.9z"/>
			<path className="st12" d="M59.5,66l2-1c0.6-0.3,1.2,0,1.5,0.5c0.3,0.6,0,1.2-0.5,1.5l-2,1c-0.3,0.2-0.7,0.1-1,0l-0.7,0.3
				c0.5,0.5,1.3,0.6,2,0.3l2-1c0.9-0.4,1.3-1.5,0.9-2.5c-0.4-0.9-1.5-1.3-2.5-0.9l-2,1c-0.7,0.3-1.1,1-1,1.8l0.7-0.3
				C58.9,66.5,59.1,66.2,59.5,66z"/>
			<path className="st12" d="M55.2,70.6l-2,1c-0.3,0.2-0.7,0.1-1,0l-0.7,0.3c0.5,0.5,1.3,0.6,2,0.3l2-1c0.7-0.3,1.1-1,1-1.8l-0.7,0.3
				C55.8,70.1,55.6,70.4,55.2,70.6z"/>
			<path className="st12" d="M52.3,69.5l2-1c0.3-0.2,0.7-0.1,1,0l0.7-0.3c-0.5-0.5-1.3-0.6-2-0.3l-2,1c-0.7,0.3-1.1,1-1,1.8l0.7-0.3
				C51.7,69.9,51.9,69.6,52.3,69.5z"/>
			<g>
				<path className="st12" d="M54.9,69.5c-0.1-0.2,0-0.4,0.2-0.5l4.7-2.2c0.2-0.1,0.4,0,0.5,0.2s0,0.4-0.2,0.5l-4.7,2.2
					C55.1,69.7,54.9,69.7,54.9,69.5z"/>
			</g>
			<g>
				<path className="st12" d="M47.7,72.9c-0.1-0.2,0-0.4,0.2-0.5l4.7-2.2c0.2-0.1,0.4,0,0.5,0.2s0,0.4-0.2,0.5l-4.7,2.2
					C47.9,73.2,47.7,73.1,47.7,72.9z"/>
			</g>
			<path className="st12" d="M62.4,67.1l-2,1c-0.3,0.2-0.7,0.1-1,0l-0.7,0.3c0.5,0.5,1.3,0.6,2,0.3l2-1c0.7-0.3,1.1-1,1-1.8L63,66.2
				C63,66.7,62.8,67,62.4,67.1z"/>
			<path className="st12" d="M59.5,66l2-1c0.3-0.2,0.7-0.1,1,0l0.7-0.3c-0.5-0.5-1.3-0.6-2-0.3l-2,1c-0.7,0.3-1.1,1-1,1.8l0.7-0.3
				C58.9,66.5,59.1,66.2,59.5,66z"/>
			<path className="st12" d="M69.6,63.7l-2,1c-0.3,0.2-0.7,0.1-1,0L65.9,65c0.5,0.5,1.3,0.6,2,0.3l2-1c0.7-0.3,1.1-1,1-1.8l-0.7,0.3
				C70.2,63.2,70,63.5,69.6,63.7z"/>
			<path className="st12" d="M66.7,62.6l2-1c0.3-0.2,0.7-0.1,1,0l0.7-0.3c-0.5-0.5-1.3-0.6-2-0.3l-2,1c-0.7,0.3-1.1,1-1,1.8l0.7-0.3
				C66.1,63,66.3,62.7,66.7,62.6z"/>
			<g>
				<path className="st12" d="M69.2,62.6c-0.1-0.2,0-0.4,0.2-0.5l4.7-2.2c0.2-0.1,0.4,0,0.5,0.2s0,0.4-0.2,0.5l-4.7,2.2
					C69.5,62.9,69.3,62.8,69.2,62.6z"/>
			</g>
			<g>
				<path className="st12" d="M62,66.1c-0.1-0.2,0-0.4,0.2-0.5l4.7-2.2c0.2-0.1,0.4,0,0.5,0.2s0,0.4-0.2,0.5l-4.7,2.2
					C62.3,66.3,62.1,66.2,62,66.1z"/>
			</g>
			<path className="st12" d="M76.8,60.2l-2,1c-0.3,0.2-0.7,0.1-1,0l-0.7,0.3c0.5,0.5,1.3,0.6,2,0.3l2-1c0.7-0.3,1.1-1,1-1.8l-0.7,0.3
				C77.4,59.8,77.2,60.1,76.8,60.2z"/>
			<path className="st12" d="M73.8,59.2l2-1c0.3-0.2,0.7-0.1,1,0l0.7-0.3c-0.5-0.5-1.3-0.6-2-0.3l-2,1c-0.7,0.3-1.1,1-1,1.8l0.7-0.3
				C73.3,59.6,73.5,59.3,73.8,59.2z"/>
			<path className="st12" d="M84,56.8l-2,1c-0.3,0.2-0.7,0.1-1,0l-0.7,0.3c0.5,0.5,1.3,0.6,2,0.3l2-1c0.7-0.3,1.1-1,1-1.8L84.6,56
				C84.6,56.4,84.4,56.7,84,56.8z"/>
			<path className="st12" d="M81,55.7l2-1c0.3-0.2,0.7-0.1,1,0l0.7-0.3c-0.5-0.5-1.3-0.6-2-0.3l-2,1c-0.7,0.3-1.1,1-1,1.8l0.7-0.3
				C80.5,56.2,80.7,55.9,81,55.7z"/>
			<g>
				<path className="st12" d="M83.6,55.7c-0.1-0.2,0-0.4,0.2-0.5l4.7-2.2c0.2-0.1,0.4,0,0.5,0.2s0,0.4-0.2,0.5l-4.7,2.2
					C83.9,56,83.7,55.9,83.6,55.7z"/>
			</g>
			<g>
				<path className="st12" d="M76.4,59.2c-0.1-0.2,0-0.4,0.2-0.5l4.7-2.2c0.2-0.1,0.4,0,0.5,0.2s0,0.4-0.2,0.5l-4.7,2.2
					C76.7,59.4,76.5,59.3,76.4,59.2z"/>
			</g>
			<path className="st12" d="M91.2,53.4l-2,1c-0.3,0.2-0.7,0.1-1,0l-0.7,0.3c0.5,0.5,1.3,0.6,2,0.3l2-1c0.7-0.3,1.1-1,1-1.8l-0.7,0.3
				C91.8,52.9,91.5,53.2,91.2,53.4z"/>
			<path className="st12" d="M88.2,52.3l2-1c0.3-0.2,0.7-0.1,1,0L92,51c-0.5-0.5-1.3-0.6-2-0.3l-2,1c-0.7,0.3-1.1,1-1,1.8l0.7-0.3
				C87.7,52.7,87.9,52.4,88.2,52.3z"/>
			<path className="st12" d="M98.4,49.9l-2,1c-0.3,0.2-0.7,0.1-1,0l-0.7,0.3c0.5,0.5,1.3,0.6,2,0.3l2-1c0.7-0.3,1.1-1,1-1.8L99,49.1
				C99,49.5,98.7,49.8,98.4,49.9z"/>
			<path className="st12" d="M95.4,48.8l2-1c0.3-0.2,0.7-0.1,1,0l0.7-0.3c-0.5-0.5-1.3-0.6-2-0.3l-2,1c-0.7,0.3-1.1,1-1,1.8l0.7-0.3
				C94.9,49.3,95.1,49,95.4,48.8z"/>
			<g>
				<path className="st12" d="M98,48.9c-0.1-0.2,0-0.4,0.2-0.5l4.7-2.2c0.2-0.1,0.4,0,0.5,0.2s0,0.4-0.2,0.5L98.5,49
					C98.3,49.1,98.1,49,98,48.9z"/>
			</g>
			<g>
				<path className="st12" d="M90.8,52.3c-0.1-0.2,0-0.4,0.2-0.5l4.7-2.2c0.2-0.1,0.4,0,0.5,0.2s0,0.4-0.2,0.5l-4.7,2.2
					C91.1,52.5,90.9,52.5,90.8,52.3z"/>
			</g>
			<path className="st12" d="M105.6,46.5l-2,1c-0.3,0.2-0.7,0.1-1,0l-0.7,0.3c0.5,0.5,1.3,0.6,2,0.3l2-1c0.7-0.3,1.1-1,1-1.8l-0.7,0.3
				C106.2,46,105.9,46.3,105.6,46.5z"/>
			<path className="st12" d="M102.6,45.4l2-1c0.3-0.2,0.7-0.1,1,0l0.7-0.3c-0.5-0.5-1.3-0.6-2-0.3l-2,1c-0.7,0.3-1.1,1-1,1.8l0.7-0.3
				C102.1,45.8,102.3,45.6,102.6,45.4z"/>
			<path className="st12" d="M112.8,43l-2,1c-0.3,0.2-0.7,0.1-1,0l-0.7,0.3c0.5,0.5,1.3,0.6,2,0.3l2-1c0.7-0.3,1.1-1,1-1.8l-0.7,0.3
				C113.4,42.6,113.1,42.9,112.8,43z"/>
			<path className="st12" d="M109.8,42l2-1c0.3-0.2,0.7-0.1,1,0l0.7-0.3c-0.5-0.5-1.3-0.6-2-0.3l-2,1c-0.7,0.3-1.1,1-1,1.8l0.7-0.3
				C109.3,42.4,109.5,42.1,109.8,42z"/>
			<g>
				<path className="st12" d="M112.4,42c-0.1-0.2,0-0.4,0.2-0.5l4.7-2.2c0.2-0.1,0.4,0,0.5,0.2s0,0.4-0.2,0.5l-4.7,2.2
					C112.7,42.2,112.5,42.2,112.4,42z"/>
			</g>
			<g>
				<path className="st12" d="M105.2,45.4c-0.1-0.2,0-0.4,0.2-0.5l4.7-2.2c0.2-0.1,0.4,0,0.5,0.2s0,0.4-0.2,0.5l-4.7,2.2
					C105.5,45.7,105.3,45.6,105.2,45.4z"/>
			</g>
			<path className="st12" d="M120,39.6l-2,1c-0.3,0.2-0.7,0.1-1,0l-0.7,0.3c0.5,0.5,1.3,0.6,2,0.3l2-1c0.7-0.3,1.1-1,1-1.8l-0.7,0.3
				C120.5,39.2,120.3,39.5,120,39.6z"/>
			<path className="st12" d="M117,38.5l2-1c0.3-0.2,0.7-0.1,1,0l0.7-0.3c-0.5-0.5-1.3-0.6-2-0.3l-2,1c-0.7,0.3-1.1,1-1,1.8l0.7-0.3
				C116.5,39,116.7,38.7,117,38.5z"/>
			<g>
				<path className="st12" d="M119.6,38.5c-0.1-0.2,0-0.4,0.2-0.5l4.7-2.2c0.2-0.1,0.4,0,0.5,0.2s0,0.4-0.2,0.5l-4.7,2.2
					C119.9,38.8,119.7,38.7,119.6,38.5z"/>
			</g>
		</g>
		<g>
			<g>
				<path className="st12" d="M240.9,76.4c0.1-0.2,0-0.4-0.2-0.5l-4.7-2.2c-0.2-0.1-0.4,0-0.5,0.2s0,0.4,0.2,0.5l4.7,2.2
					C240.6,76.6,240.8,76.5,240.9,76.4z"/>
			</g>
			<path className="st12" d="M233.3,74l2,1c0.3,0.2,0.7,0.1,1,0l0.7,0.3c-0.5,0.5-1.3,0.6-2,0.3l-2-1c-0.7-0.3-1.1-1-1-1.8l0.7,0.3
				C232.7,73.6,233,73.8,233.3,74z"/>
			<path className="st12" d="M236.3,72.9l-2-1c-0.3-0.2-0.7-0.1-1,0l-0.7-0.3c0.5-0.5,1.3-0.6,2-0.3l2,1c0.7,0.3,1.1,1,1,1.8l-0.7-0.3
				C236.8,73.4,236.6,73.1,236.3,72.9z"/>
			<path className="st12" d="M221.9,66l-2-1c-0.6-0.3-1.2,0-1.5,0.5c-0.3,0.6,0,1.2,0.5,1.5l2,1c0.3,0.2,0.7,0.1,1,0l0.7,0.3
				c-0.5,0.5-1.3,0.6-2,0.3l-2-1c-0.9-0.4-1.3-1.5-0.9-2.5c0.4-0.9,1.5-1.3,2.5-0.9l2,1c0.7,0.3,1.1,1,1,1.8l-0.7-0.3
				C222.4,66.5,222.2,66.2,221.9,66z"/>
			<path className="st12" d="M226.1,70.6l2,1c0.3,0.2,0.7,0.1,1,0l0.7,0.3c-0.5,0.5-1.3,0.6-2,0.3l-2-1c-0.7-0.3-1.1-1-1-1.8l0.7,0.3
				C225.6,70.1,225.8,70.4,226.1,70.6z"/>
			<path className="st12" d="M229.1,69.5l-2-1c-0.3-0.2-0.7-0.1-1,0l-0.7-0.3c0.5-0.5,1.3-0.6,2-0.3l2,1c0.7,0.3,1.1,1,1,1.8l-0.7-0.3
				C229.6,69.9,229.4,69.6,229.1,69.5z"/>
			<g>
				<path className="st12" d="M226.5,69.5c0.1-0.2,0-0.4-0.2-0.5l-4.7-2.2c-0.2-0.1-0.4,0-0.5,0.2s0,0.4,0.2,0.5l4.7,2.2
					C226.2,69.7,226.4,69.7,226.5,69.5z"/>
			</g>
			<g>
				<path className="st12" d="M233.7,72.9c0.1-0.2,0-0.4-0.2-0.5l-4.7-2.2c-0.2-0.1-0.4,0-0.5,0.2s0,0.4,0.2,0.5l4.7,2.2
					C233.4,73.2,233.6,73.1,233.7,72.9z"/>
			</g>
			<path className="st12" d="M218.9,67.1l2,1c0.3,0.2,0.7,0.1,1,0l0.7,0.3c-0.5,0.5-1.3,0.6-2,0.3l-2-1c-0.7-0.3-1.1-1-1-1.8l0.7,0.3
				C218.4,66.7,218.6,67,218.9,67.1z"/>
			<path className="st12" d="M221.9,66l-2-1c-0.3-0.2-0.7-0.1-1,0l-0.7-0.3c0.5-0.5,1.3-0.6,2-0.3l2,1c0.7,0.3,1.1,1,1,1.8l-0.7-0.3
				C222.4,66.5,222.2,66.2,221.9,66z"/>
			<path className="st12" d="M211.7,63.7l2,1c0.3,0.2,0.7,0.1,1,0l0.7,0.3c-0.5,0.5-1.3,0.6-2,0.3l-2-1c-0.7-0.3-1.1-1-1-1.8l0.7,0.3
				C211.2,63.2,211.4,63.5,211.7,63.7z"/>
			<path className="st12" d="M214.7,62.6l-2-1c-0.3-0.2-0.7-0.1-1,0l-0.7-0.3c0.5-0.5,1.3-0.6,2-0.3l2,1c0.7,0.3,1.1,1,1,1.8l-0.7-0.3
				C215.2,63,215,62.7,214.7,62.6z"/>
			<g>
				<path className="st12" d="M212.1,62.6c0.1-0.2,0-0.4-0.2-0.5l-4.7-2.2c-0.2-0.1-0.4,0-0.5,0.2s0,0.4,0.2,0.5l4.7,2.2
					C211.8,62.9,212,62.8,212.1,62.6z"/>
			</g>
			<g>
				<path className="st12" d="M219.3,66.1c0.1-0.2,0-0.4-0.2-0.5l-4.7-2.2c-0.2-0.1-0.4,0-0.5,0.2s0,0.4,0.2,0.5l4.7,2.2
					C219,66.3,219.2,66.2,219.3,66.1z"/>
			</g>
			<path className="st12" d="M204.5,60.2l2,1c0.3,0.2,0.7,0.1,1,0l0.7,0.3c-0.5,0.5-1.3,0.6-2,0.3l-2-1c-0.7-0.3-1.1-1-1-1.8l0.7,0.3
				C204,59.8,204.2,60.1,204.5,60.2z"/>
			<path className="st12" d="M207.5,59.2l-2-1c-0.3-0.2-0.7-0.1-1,0l-0.7-0.3c0.5-0.5,1.3-0.6,2-0.3l2,1c0.7,0.3,1.1,1,1,1.8l-0.7-0.3
				C208,59.6,207.8,59.3,207.5,59.2z"/>
			<path className="st12" d="M197.3,56.8l2,1c0.3,0.2,0.7,0.1,1,0l0.7,0.3c-0.5,0.5-1.3,0.6-2,0.3l-2-1c-0.7-0.3-1.1-1-1-1.8l0.7,0.3
				C196.8,56.4,197,56.7,197.3,56.8z"/>
			<path className="st12" d="M200.3,55.7l-2-1c-0.3-0.2-0.7-0.1-1,0l-0.7-0.3c0.5-0.5,1.3-0.6,2-0.3l2,1c0.7,0.3,1.1,1,1,1.8l-0.7-0.3
				C200.8,56.2,200.6,55.9,200.3,55.7z"/>
			<g>
				<path className="st12" d="M197.7,55.7c0.1-0.2,0-0.4-0.2-0.5l-4.7-2.2c-0.2-0.1-0.4,0-0.5,0.2s0,0.4,0.2,0.5l4.7,2.2
					C197.4,56,197.6,55.9,197.7,55.7z"/>
			</g>
			<g>
				<path className="st12" d="M204.9,59.2c0.1-0.2,0-0.4-0.2-0.5l-4.7-2.2c-0.2-0.1-0.4,0-0.5,0.2s0,0.4,0.2,0.5l4.7,2.2
					C204.6,59.4,204.8,59.3,204.9,59.2z"/>
			</g>
			<path className="st12" d="M190.1,53.4l2,1c0.3,0.2,0.7,0.1,1,0l0.7,0.3c-0.5,0.5-1.3,0.6-2,0.3l-2-1c-0.7-0.3-1.1-1-1-1.8l0.7,0.3
				C189.6,52.9,189.8,53.2,190.1,53.4z"/>
			<path className="st12" d="M193.1,52.3l-2-1c-0.3-0.2-0.7-0.1-1,0l-0.7-0.3c0.5-0.5,1.3-0.6,2-0.3l2,1c0.7,0.3,1.1,1,1,1.8l-0.7-0.3
				C193.7,52.7,193.4,52.4,193.1,52.3z"/>
			<path className="st12" d="M182.9,49.9l2,1c0.3,0.2,0.7,0.1,1,0l0.7,0.3c-0.5,0.5-1.3,0.6-2,0.3l-2-1c-0.7-0.3-1.1-1-1-1.8l0.7,0.3
				C182.4,49.5,182.6,49.8,182.9,49.9z"/>
			<path className="st12" d="M185.9,48.8l-2-1c-0.3-0.2-0.7-0.1-1,0l-0.7-0.3c0.5-0.5,1.3-0.6,2-0.3l2,1c0.7,0.3,1.1,1,1,1.8l-0.7-0.3
				C186.5,49.3,186.2,49,185.9,48.8z"/>
			<g>
				<path className="st12" d="M183.3,48.9c0.1-0.2,0-0.4-0.2-0.5l-4.7-2.2c-0.2-0.1-0.4,0-0.5,0.2s0,0.4,0.2,0.5l4.7,2.2
					C183,49.1,183.2,49,183.3,48.9z"/>
			</g>
			<g>
				<path className="st12" d="M190.5,52.3c0.1-0.2,0-0.4-0.2-0.5l-4.7-2.2c-0.2-0.1-0.4,0-0.5,0.2s0,0.4,0.2,0.5l4.7,2.2
					C190.2,52.5,190.4,52.5,190.5,52.3z"/>
			</g>
			<path className="st12" d="M175.7,46.5l2,1c0.3,0.2,0.7,0.1,1,0l0.7,0.3c-0.5,0.5-1.3,0.6-2,0.3l-2-1c-0.7-0.3-1.1-1-1-1.8l0.7,0.3
				C175.2,46,175.4,46.3,175.7,46.5z"/>
			<path className="st12" d="M178.7,45.4l-2-1c-0.3-0.2-0.7-0.1-1,0l-0.7-0.3c0.5-0.5,1.3-0.6,2-0.3l2,1c0.7,0.3,1.1,1,1,1.8l-0.7-0.3
				C179.3,45.8,179,45.6,178.7,45.4z"/>
			<path className="st12" d="M168.5,43l2,1c0.3,0.2,0.7,0.1,1,0l0.7,0.3c-0.5,0.5-1.3,0.6-2,0.3l-2-1c-0.7-0.3-1.1-1-1-1.8l0.7,0.3
				C168,42.6,168.2,42.9,168.5,43z"/>
			<path className="st12" d="M171.5,42l-2-1c-0.3-0.2-0.7-0.1-1,0l-0.7-0.3c0.5-0.5,1.3-0.6,2-0.3l2,1c0.7,0.3,1.1,1,1,1.8l-0.7-0.3
				C172.1,42.4,171.8,42.1,171.5,42z"/>
			<g>
				<path className="st12" d="M168.9,42c0.1-0.2,0-0.4-0.2-0.5l-4.7-2.2c-0.2-0.1-0.4,0-0.5,0.2s0,0.4,0.2,0.5l4.7,2.2
					C168.6,42.2,168.8,42.2,168.9,42z"/>
			</g>
			<g>
				<path className="st12" d="M176.1,45.4c0.1-0.2,0-0.4-0.2-0.5l-4.7-2.2c-0.2-0.1-0.4,0-0.5,0.2s0,0.4,0.2,0.5l4.7,2.2
					C175.8,45.7,176,45.6,176.1,45.4z"/>
			</g>
			<path className="st12" d="M161.3,39.6l2,1c0.3,0.2,0.7,0.1,1,0l0.7,0.3c-0.5,0.5-1.3,0.6-2,0.3l-2-1c-0.7-0.3-1.1-1-1-1.8l0.7,0.3
				C160.8,39.2,161,39.5,161.3,39.6z"/>
			<path className="st12" d="M164.3,38.5l-2-1c-0.3-0.2-0.7-0.1-1,0l-0.7-0.3c0.5-0.5,1.3-0.6,2-0.3l2,1c0.7,0.3,1.1,1,1,1.8l-0.7-0.3
				C164.9,39,164.7,38.7,164.3,38.5z"/>
			<g>
				<path className="st12" d="M161.7,38.5c0.1-0.2,0-0.4-0.2-0.5l-4.7-2.2c-0.2-0.1-0.4,0-0.5,0.2s0,0.4,0.2,0.5l4.7,2.2
					C161.4,38.8,161.7,38.7,161.7,38.5z"/>
			</g>
		</g>
		<g>
			<g>
				<path className="st13" d="M237,187.9c-0.2,0-0.4-0.2-0.4-0.3v-5.2c0-0.2,0.2-0.4,0.3-0.4c0.2,0,0.4,0.2,0.4,0.3v5.2
					C237.4,187.7,237.2,187.9,237,187.9z"/>
			</g>
			<path className="st13" d="M238.1,180v2.2c0,0.4-0.2,0.7-0.4,0.9v0.8c0.7-0.3,1.1-0.9,1.1-1.7V180c0-0.8-0.5-1.4-1.1-1.7v0.8
				C237.9,179.3,238.1,179.6,238.1,180z"/>
			<path className="st13" d="M235.9,182.2V180c0-0.4,0.2-0.7,0.4-0.9v-0.8c-0.7,0.3-1.1,0.9-1.1,1.7v2.2c0,0.8,0.5,1.4,1.1,1.7v-0.8
				C236,182.9,235.9,182.6,235.9,182.2z"/>
			<path className="st13" d="M235.8,166.3v-2.2c0-0.6,0.5-1.1,1.1-1.1s1.1,0.5,1.1,1.1v2.2c0,0.4-0.2,0.7-0.4,0.9v0.8
				c0.7-0.3,1.1-0.9,1.1-1.7v-2.2c0-1-0.8-1.8-1.8-1.8s-1.8,0.8-1.8,1.8v2.2c0,0.8,0.5,1.4,1.1,1.7v-0.8
				C236,167,235.8,166.6,235.8,166.3z"/>
			<path className="st13" d="M238.1,172v2.2c0,0.4-0.2,0.7-0.4,0.9v0.8c0.7-0.3,1.1-0.9,1.1-1.7V172c0-0.8-0.5-1.4-1.1-1.7v0.8
				C237.9,171.3,238.1,171.7,238.1,172z"/>
			<path className="st13" d="M235.8,174.3v-2.2c0-0.4,0.2-0.7,0.4-0.9v-0.8c-0.7,0.3-1.1,0.9-1.1,1.7v2.2c0,0.8,0.5,1.4,1.1,1.7v-0.8
				C236,174.9,235.8,174.6,235.8,174.3z"/>
			<g>
				<path className="st13" d="M237,171.9c-0.2,0-0.4-0.2-0.4-0.3v-5.2c0-0.2,0.2-0.4,0.3-0.4c0.2,0,0.4,0.2,0.4,0.3v5.2
					C237.3,171.8,237.1,171.9,237,171.9z"/>
			</g>
			<g>
				<path className="st13" d="M237,179.9c-0.2,0-0.4-0.2-0.4-0.3v-5.2c0-0.2,0.2-0.4,0.3-0.4c0.2,0,0.4,0.2,0.4,0.3v5.2
					C237.3,179.7,237.2,179.9,237,179.9z"/>
			</g>
			<path className="st13" d="M238.1,164.1v2.2c0,0.4-0.2,0.7-0.4,0.9v0.8c0.7-0.3,1.1-0.9,1.1-1.7v-2.2c0-0.8-0.5-1.4-1.1-1.7v0.8
				C237.9,163.4,238.1,163.7,238.1,164.1z"/>
			<path className="st13" d="M235.8,166.3v-2.2c0-0.4,0.2-0.7,0.4-0.9v-0.8c-0.7,0.3-1.1,0.9-1.1,1.7v2.2c0,0.8,0.5,1.4,1.1,1.7v-0.8
				C236,167,235.8,166.6,235.8,166.3z"/>
			<path className="st13" d="M238,156.1v2.2c0,0.4-0.2,0.7-0.4,0.9v0.8c0.7-0.3,1.1-0.9,1.1-1.7v-2.2c0-0.8-0.5-1.4-1.1-1.7v0.8
				C237.8,155.4,238,155.7,238,156.1z"/>
			<path className="st13" d="M235.8,158.3v-2.2c0-0.4,0.2-0.7,0.4-0.9v-0.8c-0.7,0.3-1.1,0.9-1.1,1.7v2.2c0,0.8,0.5,1.4,1.1,1.7v-0.8
				C235.9,159,235.8,158.7,235.8,158.3z"/>
			<g>
				<path className="st13" d="M236.9,156c-0.2,0-0.4-0.2-0.4-0.3v-5.2c0-0.2,0.2-0.4,0.3-0.4c0.2,0,0.4,0.2,0.4,0.3v5.2
					C237.2,155.8,237.1,156,236.9,156z"/>
			</g>
			<g>
				<path className="st13" d="M236.9,164c-0.2,0-0.4-0.2-0.4-0.3v-5.2c0-0.2,0.2-0.4,0.3-0.4c0.2,0,0.4,0.2,0.4,0.3v5.2
					C237.3,163.8,237.1,164,236.9,164z"/>
			</g>
			<path className="st13" d="M238,148.1v2.2c0,0.4-0.2,0.7-0.4,0.9v0.8c0.7-0.3,1.1-0.9,1.1-1.7v-2.2c0-0.8-0.5-1.4-1.1-1.7v0.8
				C237.8,147.4,238,147.7,238,148.1z"/>
			<path className="st13" d="M235.7,150.3v-2.2c0-0.4,0.2-0.7,0.4-0.9v-0.8c-0.7,0.3-1.1,0.9-1.1,1.7v2.2c0,0.8,0.5,1.4,1.1,1.7v-0.8
				C235.9,151,235.7,150.7,235.7,150.3z"/>
			<path className="st13" d="M238,140.1v2.2c0,0.4-0.2,0.7-0.4,0.9v0.8c0.7-0.3,1.1-0.9,1.1-1.7v-2.2c0-0.8-0.5-1.4-1.1-1.7v0.8
				C237.8,139.4,238,139.8,238,140.1z"/>
			<path className="st13" d="M235.7,142.4v-2.2c0-0.4,0.2-0.7,0.4-0.9v-0.8c-0.7,0.3-1.1,0.9-1.1,1.7v2.2c0,0.8,0.5,1.4,1.1,1.7v-0.8
				C235.9,143,235.7,142.7,235.7,142.4z"/>
			<g>
				<path className="st13" d="M236.8,140c-0.2,0-0.4-0.2-0.4-0.3v-5.2c0-0.2,0.2-0.4,0.3-0.4s0.4,0.2,0.4,0.3v5.2
					C237.2,139.9,237,140,236.8,140z"/>
			</g>
			<g>
				<path className="st13" d="M236.9,148c-0.2,0-0.4-0.2-0.4-0.3v-5.2c0-0.2,0.2-0.4,0.3-0.4c0.2,0,0.4,0.2,0.4,0.3v5.2
					C237.2,147.8,237,148,236.9,148z"/>
			</g>
			<path className="st13" d="M237.9,132.2v2.2c0,0.4-0.2,0.7-0.4,0.9v0.8c0.7-0.3,1.1-0.9,1.1-1.7v-2.2c0-0.8-0.5-1.4-1.1-1.7v0.8
				C237.8,131.5,237.9,131.8,237.9,132.2z"/>
			<path className="st13" d="M235.7,134.4v-2.2c0-0.4,0.2-0.7,0.4-0.9v-0.8c-0.7,0.3-1.1,0.9-1.1,1.7v2.2c0,0.8,0.5,1.4,1.1,1.7v-0.8
				C235.8,135.1,235.7,134.7,235.7,134.4z"/>
			<path className="st13" d="M237.9,124.2v2.2c0,0.4-0.2,0.7-0.4,0.9v0.8c0.7-0.3,1.1-0.9,1.1-1.7v-2.2c0-0.8-0.5-1.4-1.1-1.7v0.8
				C237.7,123.5,237.9,123.8,237.9,124.2z"/>
			<path className="st13" d="M235.6,126.4v-2.2c0-0.4,0.2-0.7,0.4-0.9v-0.8c-0.7,0.3-1.1,0.9-1.1,1.7v2.2c0,0.8,0.5,1.4,1.1,1.7v-0.8
				C235.8,127.1,235.6,126.8,235.6,126.4z"/>
			<g>
				<path className="st13" d="M236.8,124.1c-0.2,0-0.4-0.2-0.4-0.3v-5.2c0-0.2,0.2-0.4,0.3-0.4c0.2,0,0.4,0.2,0.4,0.3v5.2
					C237.1,123.9,237,124.1,236.8,124.1z"/>
			</g>
			<g>
				<path className="st13" d="M236.8,132.1c-0.2,0-0.4-0.2-0.4-0.3v-5.2c0-0.2,0.2-0.4,0.3-0.4s0.4,0.2,0.4,0.3v5.2
					C237.1,131.9,237,132.1,236.8,132.1z"/>
			</g>
			<path className="st13" d="M237.9,116.2v2.2c0,0.4-0.2,0.7-0.4,0.9v0.8c0.7-0.3,1.1-0.9,1.1-1.7v-2.2c0-0.8-0.5-1.4-1.1-1.7v0.8
				C237.7,115.5,237.9,115.8,237.9,116.2z"/>
			<path className="st13" d="M235.6,118.4v-2.2c0-0.4,0.2-0.7,0.4-0.9v-0.8c-0.7,0.3-1.1,0.9-1.1,1.7v2.2c0,0.8,0.5,1.4,1.1,1.7v-0.8
				C235.8,119.1,235.6,118.8,235.6,118.4z"/>
			<path className="st13" d="M237.8,108.2v2.2c0,0.4-0.2,0.7-0.4,0.9v0.8c0.7-0.3,1.1-0.9,1.1-1.7v-2.2c0-0.8-0.5-1.4-1.1-1.7v0.8
				C237.7,107.5,237.8,107.9,237.8,108.2z"/>
			<path className="st13" d="M235.6,110.5v-2.2c0-0.4,0.2-0.7,0.4-0.9v-0.8c-0.7,0.3-1.1,0.9-1.1,1.7v2.2c0,0.8,0.5,1.4,1.1,1.7v-0.8
				C235.7,111.1,235.6,110.8,235.6,110.5z"/>
			<g>
				<path className="st13" d="M236.7,108.1c-0.2,0-0.4-0.2-0.4-0.3v-5.2c0-0.2,0.2-0.4,0.3-0.4c0.2,0,0.4,0.2,0.4,0.3v5.2
					C237,108,236.9,108.1,236.7,108.1z"/>
			</g>
			<g>
				<path className="st13" d="M236.7,116.1c-0.2,0-0.4-0.2-0.4-0.3v-5.2c0-0.2,0.2-0.4,0.3-0.4c0.2,0,0.4,0.2,0.4,0.3v5.2
					C237.1,115.9,236.9,116.1,236.7,116.1z"/>
			</g>
			<path className="st13" d="M237.8,100.3v2.2c0,0.4-0.2,0.7-0.4,0.9v0.8c0.7-0.3,1.1-0.9,1.1-1.7v-2.2c0-0.8-0.5-1.4-1.1-1.7v0.8
				C237.6,99.6,237.8,99.9,237.8,100.3z"/>
			<path className="st13" d="M235.5,102.5v-2.2c0-0.4,0.2-0.7,0.4-0.9v-0.8c-0.7,0.3-1.1,0.9-1.1,1.7v2.2c0,0.8,0.5,1.4,1.1,1.7v-0.8
				C235.7,103.2,235.5,102.8,235.5,102.5z"/>
			<g>
				<path className="st13" d="M236.7,100.2c-0.2,0-0.4-0.2-0.4-0.3v-5.2c0-0.2,0.2-0.4,0.3-0.4c0.2,0,0.4,0.2,0.4,0.3v5.2
					C237,100,236.9,100.2,236.7,100.2z"/>
			</g>
		</g>
		<g>
			<g className="st9">
				<g>
					<polygon className="st10" points="72.8,64.3 45.4,80.2 17.9,64.3 45.3,48.4 					"/>
				</g>
				<g>
					<polygon className="st5" points="72.8,64.3 72.7,92.5 45.4,108.4 45.4,80.2 					"/>
				</g>
				<g>
					<polygon className="st11" points="45.4,80.2 45.4,108.4 17.9,92.5 17.9,64.3 					"/>
				</g>
			</g>
		</g>
		<g>
			<g className="st9">
				<g>
					<polygon className="st10" points="264.3,64.3 237,80.2 209.5,64.3 236.8,48.4 					"/>
				</g>
				<g>
					<polygon className="st5" points="264.3,64.3 264.2,92.5 236.9,108.4 237,80.2 					"/>
				</g>
				<g>
					<polygon className="st11" points="237,80.2 236.9,108.4 209.4,92.5 209.5,64.3 					"/>
				</g>
			</g>
		</g>
	</g>
</g>
<g>
	<polygon className="st8" points="163.9,200.3 141.6,182.3 119.3,200.3 119.3,149.4 163.9,149.4 	"/>
	<g>
		<circle className="st8" cx="141.1" cy="123.3" r="38"/>
		<path className="st7" d="M141.1,90.3c18.2,0,33,14.8,33,33s-14.8,33-33,33s-33-14.8-33-33S122.9,90.3,141.1,90.3 M141.1,80.3
			c-23.8,0-43,19.3-43,43c0,23.8,19.3,43,43,43s43-19.3,43-43C184.1,99.5,164.9,80.3,141.1,80.3L141.1,80.3z"/>
	</g>
	<path className="st14" d="M116.3,118.9c2.5-1,5,0.6,6.6-2.8c1.8-3.8-1.5-4.7-2.6-7c2.3-2.1,4.5-4.2,7-6.4c1.9,1,3,4.4,6.9,2.3
		c3.1-1.7,1.4-4.1,2.4-6.2c2.8-0.7,5.9-0.1,9-0.3c0.5,2.8-0.4,5.7,3.5,6.9c3.4,1.1,3.8-2,5.6-2.6c2.3,2.2,4.5,4.4,6.9,6.8
		c-0.9,1.8-4.1,2.7-2.3,6.5c1.6,3.4,4.2,1.7,6.3,2.7c0.5,2.9,0.3,5.9,0.1,9c-2.4,0.7-5.3-0.6-6.6,3.2c-1.2,3.5,1.8,4.1,2.6,5.9
		c-2.2,2.2-4.4,4.3-7,6.8c-1.6-0.4-2.4-4-6.1-2.4c-3.6,1.5-2.1,4.2-3,6.7c-1.8,0-3.7,0-5.6,0c-1.1,0-2.3-0.1-3.4-0.2
		c-0.7-2.4,0.6-5.1-2.9-6.6c-3.6-1.5-4.4,1.7-6.2,2.5c-2.3-2.2-4.5-4.4-6.8-6.7c0.6-1.9,4.2-2.6,2.5-6.5c-1.6-3.5-4.3-1.9-6.5-2.8
		c-0.1-0.8-0.2-1.6-0.2-2.3C116.3,123.4,116.3,121.2,116.3,118.9z M141.1,113.3c-5.2,0-9.9,4.5-10.1,9.7c-0.2,5.4,4.5,10.2,9.9,10.3
		c5.4,0,10.1-4.7,10.1-10.1C151,117.9,146.4,113.4,141.1,113.3z"/>
</g>
</svg>
