<?xml version="1.0" encoding="utf-8"?>
<!-- Generator: Adobe Illustrator 24.2.1, SVG Export Plug-In . SVG Version: 6.00 Build 0)  -->
<svg version="1.1" id="design" xmlns="http://www.w3.org/2000/svg" xmlns:xlink="http://www.w3.org/1999/xlink" x="0px" y="0px"
	 viewBox="0 0 56 56" style="enable-background:new 0 0 56 56;" xml:space="preserve">
<style type="text/css">
	.st0{fill:#FDE0B4;}
	.st1{fill:url(#SVGID_1_);}
	.st2{fill:url(#SVGID_2_);}
	.st3{fill:#333333;}
	.st4{fill:none;stroke:#333333;stroke-width:2;stroke-linecap:round;stroke-linejoin:round;}
</style>
<path className="st0" d="M52.7,1h-19c-1,0-1.8,0.8-1.8,1.8v5.3c-2.1,0.2-3.7,1.8-3.9,3.9c-0.2,2.3,1.5,4.3,3.8,4.5c0,0,0,0,0,0v5.3
	c0,1,0.8,1.8,1.8,1.8c0,0,0,0,0,0H39c0.8,0,1.6-0.6,1.8-1.4c0.5-2.2,1.7-2.3,2.1-2.3H43c0.1,0,0.2,0,0.3,0c0.5,0,0.9,0.1,1.3,0.4
	c0.6,0.4,1,1.1,1.1,1.8c0.1,0.9,0.9,1.6,1.8,1.6h5.2c1,0,1.8-0.8,1.8-1.8v-19C54.5,1.8,53.7,1,52.7,1z"/>
<g id="design-2">
	
		<linearGradient id="SVGID_1_" gradientUnits="userSpaceOnUse" x1="15.5493" y1="4.24" x2="15.5493" y2="26.31" gradientTransform="matrix(1 0 0 -1 0 58)">
		<stop  offset="0" style="stopColor:#F6DCCE"/>
		<stop  offset="0.1361" style="stopColor:#F6DDCF;stop-opacity:0.8639"/>
		<stop  offset="1" style="stopColor:#F7DFD3;stop-opacity:0"/>
	</linearGradient>
	<path className="st1" d="M2.2,31.7v22.1h22.1v-7c-0.1-0.6,0.4-1.2,1-1.3c0,0,0,0,0,0c0.1,0,0.2,0,0.3,0H26c1.5,0.1,2.8-1.1,2.9-2.7
		s-1.1-2.8-2.7-2.9c-0.1,0-0.2,0-0.3,0h-0.3c-1,0-1.4-0.4-1.4-1.4v-6.9h-6c-0.7,2.8-2.2,4.2-4.6,4.3c-2.7,0.2-5-1.7-5.3-4.4H2.2z"/>
	
		<linearGradient id="SVGID_2_" gradientUnits="userSpaceOnUse" x1="133.54" y1="149.77" x2="133.54" y2="123.19" gradientTransform="matrix(1 0 0 1 -96 -96)">
		<stop  offset="0" style="stopColor:#F6DCCE"/>
		<stop  offset="0.1361" style="stopColor:#F6DDCF;stop-opacity:0.8639"/>
		<stop  offset="1" style="stopColor:#F7DFD3;stop-opacity:0"/>
	</linearGradient>
	<path className="st2" d="M48.6,53.8V31.7h-6.7c-1.2,0-1.5-0.3-1.5-1.5c0.1-1.5-1.1-2.8-2.7-2.9c-1.5-0.1-2.7,1-2.9,2.5
		c0,0.1,0,0.2,0,0.3c0,1.4-0.3,1.6-1.7,1.6h-6.6v6.1c2.6,0.6,4.1,2.1,4.3,4.3c0.1,1.1-0.1,2.3-0.7,3.3c-0.8,1.3-2.1,2.1-3.6,2.3v6.1
		L48.6,53.8z"/>
	<path className="st3" d="M0,5.9c0.3-0.5,0.9-0.8,1.5-0.7H25c1.2,0,1.5,0.3,1.5,1.5v7.6c0,1-0.3,1.4-1.4,1.4c-1.5-0.2-2.9,0.9-3,2.5
		c0,0.4,0,0.8,0.1,1.1c0.3,1.1,1.3,1.9,2.5,2h0.6c0.6-0.1,1.1,0.4,1.2,1c0,0,0,0,0,0c0,0.1,0,0.2,0,0.3v7h6.1c0.2-1.5,1-2.8,2.3-3.6
		c1-0.6,2.1-0.8,3.2-0.7c2.3,0.1,3.8,1.6,4.5,4.3c0.2,0,0.4,0,0.6,0h6.4c0.9,0,1.3,0.4,1.3,1.3v23.9c0.1,0.6-0.2,1.1-0.8,1.4H0.9
		c-0.4-0.1-0.8-0.5-0.9-0.9V5.9z M2.2,31.7v22.1h22.1v-7c-0.1-0.6,0.4-1.2,1-1.3c0,0,0,0,0,0c0.1,0,0.2,0,0.3,0H26
		c1.5,0.1,2.8-1.1,2.9-2.7s-1.1-2.8-2.7-2.9c-0.1,0-0.2,0-0.3,0h-0.3c-1,0-1.4-0.4-1.4-1.4v-6.9h-6c-0.7,2.8-2.2,4.2-4.6,4.3
		c-2.7,0.2-5-1.7-5.3-4.4H2.2z M2.2,29.5c2.1,0,4.2,0,6.3,0c1.7,0,2,0.4,2,1.9c0,1.5,1.3,2.6,2.7,2.6c0,0,0,0,0,0
		c0.2,0,0.4,0,0.6-0.1c1.4-0.3,2.3-1.5,2.2-2.9c0-1.1,0.4-1.4,1.4-1.4h6.9v-6.1c-3.1-1-4.5-2.6-4.4-5.1c0-1.1,0.4-2.1,1-2.9
		c0.8-1,2-1.7,3.3-1.8V7.4h-22L2.2,29.5z M48.6,53.8V31.7h-6.7c-1.2,0-1.5-0.3-1.5-1.5c0.1-1.5-1.1-2.8-2.7-2.9
		c-1.5-0.1-2.7,1-2.9,2.5c0,0.1,0,0.2,0,0.3c0,1.4-0.3,1.6-1.7,1.6h-6.6v6.1c2.6,0.6,4.1,2.1,4.3,4.3c0.1,1.1-0.1,2.3-0.7,3.3
		c-0.8,1.3-2.1,2.1-3.6,2.3v6.1L48.6,53.8z"/>
</g>
<circle className="st4" cx="51.4" cy="12.6" r="3.6"/>
<line className="st4" x1="36.6" y1="12.6" x2="47.7" y2="12.6"/>
<line className="st4" x1="38.9" y1="9.2" x2="38.9" y2="12.2"/>
<line className="st4" x1="41.9" y1="10.7" x2="41.9" y2="12.2"/>
</svg>
