<svg xmlns="http://www.w3.org/2000/svg" width="62.431" height="62.463" viewBox="0 0 62.431 62.463"><defs><style>.a{fill:#fff;}.b{fill:#12b2f3;}</style></defs><g transform="translate(-1408.564 -348.617)"><path className="a" d="M1720.405,608.977c0-4.51-.005-9.02.009-13.53a1.017,1.017,0,0,0-.439-.913c-1.187-.915-2.348-1.865-3.55-2.828a4.423,4.423,0,0,1-2.7,1.575,4.193,4.193,0,1,1,3.006-6.148,5.731,5.731,0,0,1,.5,2.035,1.123,1.123,0,0,0,.461.9q1.988,1.563,3.95,3.157a9.494,9.494,0,0,1,.833.868v14.884Zm-7.257-21.855a2.084,2.084,0,0,0-2.114,2.066,2.12,2.12,0,0,0,2.054,2.082,2.077,2.077,0,0,0,2.1-2.083A2.041,2.041,0,0,0,1713.148,587.122Z" transform="translate(-251.483 -197.897)"/><path className="a" d="M1412.729,609.66a4.664,4.664,0,0,1-2.856-1.916,4.131,4.131,0,0,1,1.943-6.084.693.693,0,0,0,.524-.792c-.025-1.158.007-2.317-.015-3.475a1.28,1.28,0,0,1,.81-1.292c2.313-1.138,4.608-2.311,6.923-3.444a.9.9,0,0,0,.61-.957c-.037-1.768-.014-3.536-.014-5.3v-.638h2.078v2.813c0,1.382-.018,2.765.008,4.146a1.328,1.328,0,0,1-.834,1.344c-2.348,1.157-4.683,2.341-7.032,3.5a.692.692,0,0,0-.469.734c.029.914.019,1.829,0,2.744a.517.517,0,0,0,.382.582,4.07,4.07,0,0,1,2.7,4.245,4.143,4.143,0,0,1-3.1,3.661,3.034,3.034,0,0,0-.325.138Zm.627-6.242a2.077,2.077,0,0,0-2.076,2.04,2.124,2.124,0,0,0,2.09,2.107,2.083,2.083,0,0,0,2.059-2.06A2.039,2.039,0,0,0,1413.355,603.418Z" transform="translate(-0.648 -198.58)"/><path className="a" d="M1578.221,609.7c0-1.788.017-3.576,0-5.364a.751.751,0,0,0-.286-.531q-2.517-1.715-5.065-3.384a1.756,1.756,0,0,0-.624-.219,4.113,4.113,0,0,1-.73-7.878.65.65,0,0,0,.493-.749c-.019-1.907-.009-3.815-.009-5.77h2.078v2.3c0,1.2-.014,2.4.014,3.6a.687.687,0,0,0,.315.532,4.161,4.161,0,0,1,1.2,7.194,2.054,2.054,0,0,0-.171.19c.714.479,1.412.948,2.112,1.416.726.485,1.482.932,2.164,1.472a1.52,1.52,0,0,1,.576.981c.046,2.071.013,4.144.006,6.216Zm-5.21-15.618a2.074,2.074,0,1,0,2.1,2.073A2.063,2.063,0,0,0,1573.011,594.08Z" transform="translate(-134.304 -198.617)"/><path className="a" d="M1528.333,609.666c0-2.478,0-4.957-.028-7.435a1.647,1.647,0,0,0-.323-.923c-1.105-1.43-2.264-2.818-3.363-4.253a2.084,2.084,0,0,1-.445-1.146c-.034-3.27-.02-6.541-.018-9.812,0-.1.017-.2.03-.333h2.05v.694c0,2.925-.01,5.851.014,8.776a1.641,1.641,0,0,0,.32.926c1.093,1.414,2.249,2.779,3.322,4.207a2.521,2.521,0,0,1,.485,1.377c.048,2.64.028,5.281.031,7.922Z" transform="translate(-96.858 -198.586)"/><path className="a" d="M1489.914,364.734c0-1.338.009-2.594,0-3.851a5.252,5.252,0,0,1,2.085-4.455,4.726,4.726,0,0,1,2.874-1.034c2.335-.023,4.68-.109,7,.064a5.005,5.005,0,0,1,4.674,5.158c.026,1.339,0,2.68,0,4.118.628,0,1.228,0,1.828,0a2.1,2.1,0,0,1,2.335,2.335c.007.948,0,1.9,0,2.859,1.053-.286,1.06-.294,1.06-1.25q0-9.025,0-18.05c0-1.208.3-1.508,1.512-1.509q1.616,0,3.231,0c1.166,0,1.483.317,1.491,1.479,0,.178,0,.356,0,.6.37,0,.691-.019,1.008,0a1.039,1.039,0,0,1,1.063,1.1q.031,1.493,0,2.988a1.038,1.038,0,0,1-1.056,1.108c-.316.03-.638.005-.985.005V358.5c.608,0,1.21-.006,1.811,0,.892.011,1.27.363,1.284,1.252q.029,1.859,0,3.72c-.014.881-.407,1.25-1.283,1.263-.586.008-1.173,0-1.841,0,0,1.145.061,2.259-.018,3.363a1.807,1.807,0,0,0,1.113,2.012,8.22,8.22,0,0,1,4.012,8.375,8.314,8.314,0,0,1-6.248,6.82,8.129,8.129,0,0,1-5.795-.713c-.126-.066-.251-.134-.379-.195a.878.878,0,0,0-.191-.025c-.543,1.1-1.567,1.194-2.669,1.192q-9.633-.019-19.266-.006c-.2,0-.407.006-.61,0a2.076,2.076,0,0,1-2.211-2.23q-.029-8.171,0-16.343a2.076,2.076,0,0,1,2.308-2.246C1488.644,364.73,1489.233,364.734,1489.914,364.734Zm18.714,2.078c-.992,0-1.885,0-2.778,0-1,0-1.37-.365-1.373-1.354-.006-1.525,0-3.049,0-4.574a3.16,3.16,0,0,0-3.4-3.444q-2.835-.017-5.67,0a3.151,3.151,0,0,0-3.407,3.429c-.008,1.443,0,2.887,0,4.33,0,1.328-.286,1.614-1.607,1.615h-2.515v16.627h20.881a4.714,4.714,0,0,0-.454-1.127,8.289,8.289,0,0,1-.012-10.132c.134-.171.319-.372.322-.562C1508.639,370.038,1508.628,368.458,1508.628,366.812Zm5.25-15.584c-.009.21-.022.37-.022.53q0,3.385,0,6.771,0,5.673,0,11.346c0,.894-.16,1.121-1,1.46-.188.076-.376.151-.564.229a6.221,6.221,0,0,0,2.267,11.88,6.231,6.231,0,0,0,2.4-12.1c-.9-.344-1.024-.551-1.025-1.492q0-2.836,0-5.673c0-1.218.3-1.523,1.5-1.525H1519v-2.08c-.66,0-1.268.014-1.876,0-.731-.022-1.167-.383-1.18-1.046-.027-1.382-.025-2.765,0-4.147a.994.994,0,0,1,1.048-1.035c.319-.02.64,0,.982,0v-.916c-.61-.158-1.329-.138-1.67-.488-.359-.369-.357-1.09-.527-1.709Z" transform="translate(-64.702 -0.503)"/><path className="a" d="M1658.313,600.758c.2-.328.367-.629.565-.9a4.143,4.143,0,1,1,3.682,6.588,4.207,4.207,0,0,1-4.335-2.954,1.36,1.36,0,0,0-.616-.722c-1.654-.865-3.326-1.7-5-2.517a1.313,1.313,0,0,1-.815-1.3q.01-6.4.005-12.806a4.176,4.176,0,0,1,.048-.44h2.033v.733c0,3.842.006,7.684-.008,11.525a.781.781,0,0,0,.5.841C1655.69,599.424,1656.984,600.094,1658.313,600.758Zm3.879,3.623a2.08,2.08,0,0,0,2.1-2.078,2.105,2.105,0,0,0-2.06-2.07,2.07,2.07,0,0,0-2.085,2.09A2.044,2.044,0,0,0,1662.192,604.381Z" transform="translate(-203.699 -198.535)"/><path className="b" d="M1537.824,479.7c0-.264-.007-.528,0-.792a4.161,4.161,0,0,0-.547-2.412,3.994,3.994,0,0,1,1.182-5.16,4.159,4.159,0,0,1,5.979,5.6,2.441,2.441,0,0,0-.347,1.169c-.045,1.176-.008,2.355-.019,3.532-.009.979-.35,1.328-1.316,1.338q-1.8.019-3.593,0c-.96-.01-1.323-.377-1.337-1.329C1537.816,481,1537.824,480.347,1537.824,479.7Zm4.075,1.159c.035-.069.068-.1.068-.138.009-.974.039-1.948.013-2.92a2.627,2.627,0,0,1,.631-1.95,1.957,1.957,0,0,0-.275-2.738,2.059,2.059,0,0,0-2.726-.031,1.96,1.96,0,0,0-.333,2.73,2.783,2.783,0,0,1,.636,2.068c-.031.986-.007,1.974-.007,2.979Z" transform="translate(-107.423 -102.101)"/><path className="a" d="M1541,420.121c-.955,0-1.911.008-2.866,0-.848-.01-1.221-.381-1.228-1.238-.011-1.3-.018-2.6,0-3.9a2.017,2.017,0,0,1,2.042-2.13c1.4-.053,2.806-.053,4.206,0a2.046,2.046,0,0,1,2.06,2.185c.013,1.281.011,2.561,0,3.842-.007.848-.39,1.235-1.23,1.245C1542.992,420.13,1542,420.121,1541,420.121Zm2.1-2.09v-3.07h-4.066v3.07Z" transform="translate(-107.526 -53.813)"/><path className="b" d="M1643.246,504.324a4.156,4.156,0,1,1,4.158-4.127A4.179,4.179,0,0,1,1643.246,504.324Zm2.07-4.177a2.082,2.082,0,0,0-2.063-2.054,2.113,2.113,0,0,0-2.081,2.112,2.07,2.07,0,0,0,2.138,2.034A2.041,2.041,0,0,0,1645.316,500.147Z" transform="translate(-193.066 -123.458)"/></g></svg>