<svg xmlns="http://www.w3.org/2000/svg" width="67.421" height="67.421" viewBox="0 0 67.421 67.421"><defs><style>.a{fill:#fff;}.b{fill:#12b2f3;}</style></defs><g transform="translate(-1376.258 -141.912)"><path className="a" d="M1376.258,164.163c.077-.15.16-.3.229-.449a2.842,2.842,0,0,1,2.525-1.82,2.745,2.745,0,0,1,2.747,1.446.852.852,0,0,0,.871.5c1.641-.022,3.281-.009,4.982-.009.014-.3.035-.534.035-.768,0-1.646-.009-3.292.007-4.938a1.57,1.57,0,0,1,1.374-1.8,41.666,41.666,0,0,0,11.147-4.749,19.2,19.2,0,0,1,9.138-2.6,19.431,19.431,0,0,1,10,2.346c1.216.653,2.416,1.338,3.625,2,.185.1.385.18.664.308,0-1.951.016-3.813-.024-5.673,0-.192-.314-.419-.529-.557a2.958,2.958,0,1,1,4.371-3.364,2.884,2.884,0,0,1-1.364,3.385.8.8,0,0,0-.483.814q.028,2.9,0,5.794a.667.667,0,0,0,.539.755c1.566.49,3.119,1.024,4.691,1.5,1.1.329,1.488.763,1.491,1.921.009,2.875,0,5.75,0,8.625,0,.564-.113,1.063-.728,1.255a.941.941,0,0,1-1.212-.86c-.056-.588-.035-1.183-.036-1.775q-.005-3.325,0-6.65c0-.361-.037-.6-.474-.709a38.04,38.04,0,0,1-10.134-4.291,19.152,19.152,0,0,0-7.415-2.712,17.283,17.283,0,0,0-10.744,1.993,53.813,53.813,0,0,1-8.7,4.174q-1.338.452-2.7.814a.586.586,0,0,0-.531.671c.03,6.32-.027,12.643.1,18.961a18.2,18.2,0,0,0,2.89,9.248c.2.317.421.617.6.942a.986.986,0,0,1-.273,1.393.955.955,0,0,1-1.373-.345,33.835,33.835,0,0,1-1.771-3.072,23.126,23.126,0,0,1-2.141-10.733c.009-.523,0-1.047,0-1.67-.833,0-1.616-.034-2.391.027-.173.014-.34.349-.475.558a2.954,2.954,0,1,1-3.776-4.243,2.9,2.9,0,0,1,3.817,1.184.832.832,0,0,0,.878.494c.61-.031,1.222-.008,1.89-.008V165.81h-1.077c-1.317,0-2.634-.016-3.95.015a.918.918,0,0,0-.677.324,2.907,2.907,0,0,1-2.94,1.591,2.839,2.839,0,0,1-2.568-2.121c-.018-.054-.079-.093-.12-.139Zm48.314-20.269a.978.978,0,1,0,.976.944A.986.986,0,0,0,1424.572,143.894Zm-45.351,21.891a.962.962,0,1,0-.977-.947A.986.986,0,0,0,1379.221,165.785Zm3.057,5.714a.961.961,0,0,0-.025,1.923.962.962,0,1,0,.025-1.923Z" transform="translate(0)"/><path className="a" d="M1515.542,396.719c-.15-.077-.3-.16-.449-.229a2.843,2.843,0,0,1-1.82-2.525,2.746,2.746,0,0,1,1.447-2.747.854.854,0,0,0,.5-.871c-.019-2.107.01-4.214-.029-6.321a1.468,1.468,0,0,0-.439-.927c-1.206-1.15-2.473-2.236-3.67-3.394a1.529,1.529,0,0,1-.459-1.071c.078-.826,1.04-1.046,1.719-.423.937.86,1.821,1.782,2.785,2.61a39.191,39.191,0,0,0,11.173,6.7.9.9,0,0,0,.612,0,37.767,37.767,0,0,0,16.288-12.078,17.416,17.416,0,0,0,3.522-9.087c.217-2.331.168-4.687.222-7.032.025-1.064.329-1.556,1.013-1.539.656.016.946.472.969,1.515,0,.172.024.344.043.614h2.167c.966,0,1.933.026,2.9-.019a1,1,0,0,0,.7-.4,2.968,2.968,0,0,1,5.577,1.408,2.963,2.963,0,0,1-5.574,1.384c-.1-.163-.3-.377-.451-.379-1.751-.027-3.5-.017-5.282-.017-.11,1.884-.218,3.712-.331,5.648.839,0,1.73.03,2.615-.025.174-.011.356-.331.488-.538a2.955,2.955,0,0,1,3.322-1.275,2.942,2.942,0,0,1,.006,5.67,2.864,2.864,0,0,1-3.338-1.336.881.881,0,0,0-.931-.517c-.723.03-1.449.025-2.172,0a.552.552,0,0,0-.656.466c-1.547,5.77-5.458,9.8-9.933,13.394a41.561,41.561,0,0,1-10.519,6.031,2.368,2.368,0,0,1-1.9,0,44.087,44.087,0,0,1-7.852-4.108c-.158-.106-.326-.2-.613-.369v1.726c0,1.273-.015,2.546.015,3.819a.84.84,0,0,0,.322.614,2.9,2.9,0,0,1,1.593,2.938A2.839,2.839,0,0,1,1517,396.6c-.054.018-.093.079-.139.12Zm42.789-35.793a.977.977,0,1,0-.987.936A.976.976,0,0,0,1558.33,360.926Zm-3.062,7.621a.977.977,0,0,0-.95-.972.962.962,0,1,0-.02,1.923A.973.973,0,0,0,1555.269,368.547Zm-39.059,24.232a.977.977,0,1,0,.953.97A.979.979,0,0,0,1516.21,392.779Z" transform="translate(-116.633 -187.386)"/><path className="a" d="M1492.52,241.81q0-4.049,0-8.1c0-1.254.268-1.594,1.428-2.054,1.669-.662,3.327-1.351,4.983-2.044.53-.222,1.019-.3,1.423.205.43.544.2,1.242-.571,1.573q-2.383,1.026-4.794,1.986a.655.655,0,0,0-.5.711c.03,5.179-.036,10.36.087,15.536a14.979,14.979,0,0,0,3.954,9.8,34.988,34.988,0,0,0,11.841,8.7,1.176,1.176,0,0,0,.845.087,33.852,33.852,0,0,0,12.731-9.639,15.831,15.831,0,0,0,3.338-10.239q.012-7.078-.013-14.156c0-.244-.17-.645-.351-.706-3.51-1.186-6.672-3.087-9.958-4.743a13.228,13.228,0,0,0-12.162-.017c-.356.169-.7.363-1.051.544-.692.359-1.248.258-1.544-.279-.287-.52-.1-1.031.538-1.418a15.773,15.773,0,0,1,16.159-.082,48.574,48.574,0,0,0,9.092,4.257,1.559,1.559,0,0,1,1.263,1.763c-.012,5.53.078,11.064-.1,16.589a16.446,16.446,0,0,1-4.215,10.411,37.232,37.232,0,0,1-13.1,9.624,2.14,2.14,0,0,1-1.887.009,37.143,37.143,0,0,1-13.144-9.668,17.049,17.049,0,0,1-4.216-10.682c-.111-2.65-.021-5.309-.021-7.964Z" transform="translate(-100.92 -72.375)"/><path className="b" d="M1576.883,323.66c.031-.688.044-1.364.1-2.038a4.9,4.9,0,0,1,9.762-.017c.051.674.064,1.351.1,2.049.147.034.269.073.394.091a2.276,2.276,0,0,1,2.2,2.471c.025,1.689.007,3.378.007,5.068,0,.834.019,1.668-.006,2.5a2.269,2.269,0,0,1-2.425,2.445q-5.133.044-10.267,0a2.252,2.252,0,0,1-2.438-2.429q-.047-3.817,0-7.634a2.257,2.257,0,0,1,2.176-2.42C1576.6,323.729,1576.725,323.694,1576.883,323.66Zm4.964,2.045c-1.6,0-3.2.02-4.8-.01-.6-.011-.8.208-.794.8q.036,3.484,0,6.968c-.006.587.177.813.787.808q4.832-.033,9.663,0c.576,0,.765-.2.76-.768-.021-2.344-.025-4.689,0-7.034.007-.626-.249-.783-.821-.774C1585.046,325.722,1583.447,325.706,1581.847,325.706Zm2.934-2.017c0-.7.044-1.31-.009-1.916a2.851,2.851,0,0,0-2.59-2.609,2.805,2.805,0,0,0-3.108,2.047,15.718,15.718,0,0,0-.229,2.478Z" transform="translate(-171.889 -152.126)"/><path className="b" d="M1615.266,387.493a2.77,2.77,0,0,1-1.455,2.42.842.842,0,0,0-.514.861c.02,1.073-.317,1.55-1,1.533-.654-.016-.98-.487-.956-1.51a.894.894,0,0,0-.551-.906,2.908,2.908,0,0,1-1.219-3.6,2.951,2.951,0,0,1,5.694,1.2Zm-1.983-.114a.963.963,0,1,0-.946.978A.986.986,0,0,0,1613.282,387.379Z" transform="translate(-202.348 -210.509)"/><path className="a" d="M1625.454,399.454Z" transform="translate(-215.468 -223.56)"/></g></svg>