<svg xmlns="http://www.w3.org/2000/svg" width="55.515" height="55.618" viewBox="0 0 55.515 55.618"><defs><style>.a{fill:#fff;}.b{fill:#12b2f3;}</style></defs><g transform="translate(-720 -300.948)"><path className="a" d="M720,303.228a8,8,0,0,1,.612-1.191,2.851,2.851,0,0,1,2.479-1.089q8.336.012,16.672,0,9.911,0,19.822,0a2.791,2.791,0,0,1,2.939,2.078,4.444,4.444,0,0,1,.1,1.076q.009,8.309,0,16.618a2.742,2.742,0,0,1-.053.647.9.9,0,0,1-1.722.054,2.882,2.882,0,0,1-.079-.805q-.006-8.173,0-16.347c0-1.23-.238-1.471-1.447-1.471H723.32c-1.219,0-1.47.249-1.47,1.456q0,24.52,0,49.04c0,1.148.265,1.416,1.4,1.416h36.115c1.148,0,1.408-.257,1.408-1.4q0-4.155,0-8.309a2.911,2.911,0,0,1,.072-.752.9.9,0,0,1,1.735.061,3.447,3.447,0,0,1,.047.7c0,2.643-.054,5.287.022,7.928.05,1.758-.493,3.031-2.24,3.619h-38.13A3.162,3.162,0,0,1,720,354.284Z"/><path className="a" d="M720,760.293a3.161,3.161,0,0,0,2.281,2.281H720Z" transform="translate(0 -406.009)"/><path className="a" d="M941.521,408.749c-.116.194-.219.361-.316.531-2.428,4.215-4.814,8.455-7.308,12.63a42.493,42.493,0,0,1-2.772,3.607c-.652.864-1.294,1.739-1.877,2.65a2.979,2.979,0,0,1-2.991,1.553.72.72,0,0,0-.526.241c-.615.736-1.192,1.5-1.8,2.248a1.865,1.865,0,0,1-3.381-.483c-.157-.377-.308-.756-.491-1.206-.2.277-.352.5-.516.7a1.734,1.734,0,0,1-1.839.646,1.636,1.636,0,0,1-1.361-1.383c-.149-1.036-.22-2.084-.325-3.127a1.191,1.191,0,0,0-.168-.578c-.16.468-.322.935-.478,1.4-.542,1.628-1.08,3.258-1.625,4.886-.236.705-.649.98-1.179.8-.6-.2-.806-.688-.567-1.408q1.065-3.216,2.145-6.426a1.861,1.861,0,0,1,3.672.4c.121,1.123.194,2.252.3,3.49.214-.293.349-.5.5-.688a1.805,1.805,0,0,1,3.013.247c.279.5.468,1.053.729,1.654.665-.814,1.307-1.583,1.92-2.375.072-.093.025-.334-.041-.471a2.584,2.584,0,0,1-.033-2.5,50.364,50.364,0,0,0,2.757-6.593,8.068,8.068,0,0,1,.482-1.028q3.639-6.324,7.292-12.641c.09-.156.175-.315.273-.492-.579-.451-1.655-.707-1.091-1.713s1.341-.246,2.05.072c.714-1.219,1.417-2.418,2.12-3.616.462-.788.594-.856,1.517-.772a3.353,3.353,0,0,1,2.254-2.068,2.767,2.767,0,0,1,1.992.317c1.5.876,1.674,2.276.581,4.624.562.506.441,1.045.085,1.637-.707,1.178-1.378,2.377-2.1,3.625.217.132.424.261.634.386a2.788,2.788,0,0,1,1.087,4.044c-1.152,2.028-2.324,4.045-3.494,6.063-.368.634-.895.83-1.384.537s-.572-.818-.195-1.475q1.607-2.8,3.226-5.592C943.071,409.769,942.979,409.474,941.521,408.749Zm-9.049,11.89,7.411-12.843-3.207-1.853-7.412,12.844Zm10.192-17.653-3.206-1.852L937.6,404.34l3.207,1.849Zm-14.17,17.489-1.312,3.518,1.829,1.066,2.4-2.9Zm12.688-20.482,1.61.918c.3-.577.835-1.047.443-1.68a1.16,1.16,0,0,0-.829-.459C941.656,398.749,941.541,399.463,941.182,399.992Zm-13.157,26.649-1.6-.908c-.308.562-.821,1.037-.441,1.665a1.141,1.141,0,0,0,.824.462C927.542,427.874,927.678,427.181,928.025,426.641Z" transform="translate(-169.623 -84.789)"/><path className="a" d="M793.774,350.673v1.855h.7q10.943,0,21.886,0a3.858,3.858,0,0,1,.754.059.9.9,0,0,1-.053,1.758,4.387,4.387,0,0,1-.649.037q-11.541,0-23.081,0c-1.2,0-1.439-.232-1.439-1.414,0-.978,0-1.955,0-2.933,0-.891.319-1.215,1.21-1.218,2.01-.006,4.019,0,6.028,0q8.635,0,17.27,0a2.889,2.889,0,0,1,.8.085.819.819,0,0,1,.606.915.833.833,0,0,1-.735.818,4.306,4.306,0,0,1-.7.032h-22.6Z" transform="translate(-63.546 -42.311)"/><path className="b" d="M759.61,612.354a8.032,8.032,0,0,1,4.357,1.257c.818.529,1.037,1.023.688,1.559s-.875.523-1.71-.014a5.87,5.87,0,0,0-2.964-.934,6.016,6.016,0,1,0,5.668,7.016c.053-.32.064-.646.1-.97a.942.942,0,0,1,.977-.949.929.929,0,0,1,.867,1.043,7.87,7.87,0,1,1-9.017-7.9C758.987,612.407,759.4,612.375,759.61,612.354Z" transform="translate(-28.142 -275.247)"/><path className="a" d="M858.992,470.409q-4.857,0-9.714,0a2.98,2.98,0,0,1-.648-.036.832.832,0,0,1-.691-.8.82.82,0,0,1,.536-.907,2.1,2.1,0,0,1,.743-.108q9.823-.008,19.646,0a2.02,2.02,0,0,1,.692.1.9.9,0,0,1-.146,1.72,3.393,3.393,0,0,1-.649.033Q863.876,470.411,858.992,470.409Z" transform="translate(-113.078 -148.146)"/><path className="a" d="M786.161,518.327h-8.625c-.181,0-.363.006-.542-.01a.908.908,0,0,1-.94-.916.918.918,0,0,1,.938-.923,4.587,4.587,0,0,1,.488-.011q8.761,0,17.522,0a2.936,2.936,0,0,1,.752.069.9.9,0,0,1-.05,1.734,3.38,3.38,0,0,1-.7.051Q790.583,518.33,786.161,518.327Z" transform="translate(-49.545 -190.494)"/><path className="a" d="M826.126,412.786q4.422,0,8.844,0c.935,0,1.377.3,1.37.933s-.452.924-1.388.924q-8.789,0-17.578,0a2.935,2.935,0,0,1-.751-.072.9.9,0,0,1,.068-1.735,3.733,3.733,0,0,1,.7-.046Q821.759,412.784,826.126,412.786Z" transform="translate(-84.841 -98.852)"/><path className="a" d="M781.539,558.229c-1.448,0-2.9,0-4.344,0-.748,0-1.156-.334-1.156-.92s.42-.927,1.16-.928q4.4-.006,8.8,0c.676,0,1.083.321,1.13.851a.927.927,0,0,1-1.026.994C784.58,558.236,783.059,558.229,781.539,558.229Z" transform="translate(-49.533 -225.77)"/><path className="b" d="M790.748,660.659c1.081-1.091,2.061-2.1,3.073-3.082a1.305,1.305,0,0,1,.826-.419,1.236,1.236,0,0,1,.807.5.824.824,0,0,1-.2,1.079c-1.055,1.066-2.118,2.124-3.178,3.185-.025.025-.056.046-.084.069a1.8,1.8,0,0,1-2.426,0c-.711-.64-1.381-1.327-2.042-2.02a.919.919,0,1,1,1.326-1.27C789.479,659.32,790.08,659.969,790.748,660.659Z" transform="translate(-59.419 -314.848)"/><path className="a" d="M971.77,518.33c-.94,0-1.879,0-2.819,0a2.443,2.443,0,0,1-.645-.061.9.9,0,0,1-.051-1.712,1.95,1.95,0,0,1,.641-.08q2.927-.008,5.855,0a2.4,2.4,0,0,1,.483.051.842.842,0,0,1,.724.88.832.832,0,0,1-.776.884c-.5.051-1.009.037-1.515.042C973.035,518.334,972.4,518.33,971.77,518.33Z" transform="translate(-218.908 -190.497)"/><path className="a" d="M891.783,558.213c-1.012,0-2.025.006-3.037,0-.676-.005-1.112-.386-1.1-.935a.964.964,0,0,1,1.08-.91q3.092-.015,6.184,0a.963.963,0,0,1,1.07.918c.007.552-.424.922-1.105.927C893.844,558.219,892.814,558.213,891.783,558.213Z" transform="translate(-148.18 -225.754)"/></g></svg>