<svg width="1440" height="811" viewBox="0 0 1440 811" fill="none" xmlns="http://www.w3.org/2000/svg">
<mask id="mask0_33_7" style="mask-type:alpha" maskUnits="userSpaceOnUse" x="0" y="-402" width="1440" height="1213">
<path d="M1440 -401.322H0V810.146H1440V-401.322Z" fill="#F2F3F7"/>
</mask>
<g mask="url(#mask0_33_7)">
<path d="M482.376 576.377C668.699 527.602 854.44 407.256 961.326 167.012C1000.17 87.8879 1072.53 -32.5827 1161 -137.488C1205.24 -189.942 1253.5 -238.498 1303.6 -276.049C1353.65 -313.559 1405.53 -340.078 1457.07 -348.538C1547.21 -194.804 1633.16 -10.0296 1684.68 173.298C1736.23 356.69 1753.32 538.604 1705.71 686.547C1658.12 834.467 1545.84 948.461 1338.57 996.017C1131.3 1043.57 829.027 1024.69 401.475 906.827C378.988 860.61 333.58 804.363 266.367 743.948C199.798 684.111 111.828 620.176 3.52544 557.836C113.256 602.852 298.106 624.614 482.376 576.377Z" stroke="#3B3F6D" stroke-width="0.5"/>
<path d="M166.5 597.107C166.5 597.107 350.5 606.484 640.8 909.413" stroke="#3B3F6D" stroke-width="0.5" stroke-linecap="round" stroke-linejoin="round"/>
<path d="M936.6 905.538C936.6 905.538 671.2 581.104 343.9 599.733" stroke="#3B3F6D" stroke-width="0.5" stroke-linecap="round" stroke-linejoin="round"/>
<path d="M521.801 564.852C521.801 564.852 717.401 550.474 881.801 614.736C1046.2 679.122 1461 901.162 1461 901.162" stroke="#3B3F6D" stroke-width="0.5" stroke-linecap="round" stroke-linejoin="round"/>
<path d="M1470.9 537.221C1470.9 537.221 1246.6 485.587 1056 458.582C1001.6 450.831 946.8 450.08 892.3 456.332C808.7 465.958 774.5 462.333 675.1 495.088" stroke="#3B3F6D" stroke-width="0.5" stroke-linecap="round" stroke-linejoin="round"/>
<path d="M1467.4 238.292C1467.4 238.292 1234.2 244.169 1082.9 285.926C931.601 327.809 776.301 422.826 776.301 422.826" stroke="#3B3F6D" stroke-width="0.5" stroke-linecap="round" stroke-linejoin="round"/>
<path d="M1467.4 -9.00171C1467.4 -9.00171 1261.7 69.6374 1176.6 105.144C1091.5 140.65 858.5 335.81 858.5 335.81" stroke="#3B3F6D" stroke-width="0.5" stroke-linecap="round" stroke-linejoin="round"/>
<path d="M1449.2 -211.412C1449.2 -211.412 1245.9 -90.2656 1157.4 -9.12601C1068.8 71.8885 919.5 246.42 919.5 246.42" stroke="#3B3F6D" stroke-width="0.5" stroke-linecap="round" stroke-linejoin="round"/>
<path d="M323.4 656.743C325.057 656.743 326.4 655.063 326.4 652.992C326.4 650.92 325.057 649.241 323.4 649.241C321.744 649.241 320.4 650.92 320.4 652.992C320.4 655.063 321.744 656.743 323.4 656.743Z" fill="#CC10C6"/>
<path d="M1378.8 28.505C1380.46 28.505 1381.8 26.8258 1381.8 24.7543C1381.8 22.6829 1380.46 21.0037 1378.8 21.0037C1377.14 21.0037 1375.8 22.6829 1375.8 24.7543C1375.8 26.8258 1377.14 28.505 1378.8 28.505Z" fill="#CC10C6"/>
<path d="M936.6 641.24C938.92 641.24 940.8 638.889 940.8 635.989C940.8 633.089 938.92 630.738 936.6 630.738C934.281 630.738 932.4 633.089 932.4 635.989C932.4 638.889 934.281 641.24 936.6 641.24Z" fill="#CC10C6"/>
<path d="M776.3 765.012C781.492 765.012 785.7 759.75 785.7 753.26C785.7 746.769 781.492 741.508 776.3 741.508C771.109 741.508 766.9 746.769 766.9 753.26C766.9 759.75 771.109 765.012 776.3 765.012Z" fill="#CC10C6"/>
<path d="M1338.2 526.344C1345.16 526.344 1350.8 519.292 1350.8 510.592C1350.8 501.892 1345.16 494.839 1338.2 494.839C1331.24 494.839 1325.6 501.892 1325.6 510.592C1325.6 519.292 1331.24 526.344 1338.2 526.344Z" fill="#CC10C6"/>
<path d="M1106.5 290.052C1102.36 290.052 1099 285.854 1099 280.675C1099 275.497 1102.36 271.299 1106.5 271.299C1110.64 271.299 1114 275.497 1114 280.675C1114 285.854 1110.64 290.052 1106.5 290.052Z" fill="#CC10C6"/>
<path d="M496.699 673.12C498.356 673.12 499.699 671.441 499.699 669.37C499.699 667.298 498.356 665.619 496.699 665.619C495.042 665.619 493.699 667.298 493.699 669.37C493.699 671.441 495.042 673.12 496.699 673.12Z" stroke="#3B3F6D" stroke-width="0.5" stroke-linecap="round" stroke-linejoin="round"/>
<path d="M975.001 757.385C977.32 757.385 979.201 755.034 979.201 752.134C979.201 749.234 977.32 746.884 975.001 746.884C972.681 746.884 970.801 749.234 970.801 752.134C970.801 755.034 972.681 757.385 975.001 757.385Z" stroke="#3B3F6D" stroke-width="0.5" stroke-linecap="round" stroke-linejoin="round"/>
<path d="M1418.1 338.06C1421.41 338.06 1424.1 334.702 1424.1 330.559C1424.1 326.416 1421.41 323.058 1418.1 323.058C1414.79 323.058 1412.1 326.416 1412.1 330.559C1412.1 334.702 1414.79 338.06 1418.1 338.06Z" stroke="#3B3F6D" stroke-width="0.5" stroke-linecap="round" stroke-linejoin="round"/>
<path d="M1335.1 732.256C1340.29 732.256 1344.5 726.994 1344.5 720.504C1344.5 714.013 1340.29 708.751 1335.1 708.751C1329.91 708.751 1325.7 714.013 1325.7 720.504C1325.7 726.994 1329.91 732.256 1335.1 732.256Z" stroke="#3B3F6D" stroke-width="0.5" stroke-linecap="round" stroke-linejoin="round"/>
<path d="M1254 -84.8906L1229.69 -49.5098C1215.69 -29.1313 1209.41 -4.43118 1211.97 20.1605L1219 87.6404" stroke="#3B3F6D" stroke-width="0.5"/>
<path d="M1327 506.466L1187.88 484.055C1161.93 479.874 1135.38 481.299 1110.02 488.234L1104.87 489.643C1031.18 509.796 970.346 561.818 939 631.488V631.488" stroke="#3B3F6D" stroke-width="0.5"/>
<path d="M326.001 651.491L374.216 634.583C420.578 618.324 471.464 616.12 521.366 628.209L586 643.866" stroke="#3B3F6D" stroke-width="0.5"/>
<path d="M933 637.114V637.114C873.099 639.83 818.976 673.663 790.293 726.321L781 743.383" stroke="#3B3F6D" stroke-width="0.5"/>
</g>
</svg>
