<svg id="design" xmlns="http://www.w3.org/2000/svg" xmlns:xlink="http://www.w3.org/1999/xlink" viewBox="0 0 56 56"><defs><style>.cls-1{fill:url(#linear-gradient);}.cls-2{fill:#b3deff;}.cls-3{fill:url(#linear-gradient-2);}.cls-4{fill:#333;}.cls-5{fill:none;stroke:#333;stroke-linecap:round;stroke-linejoin:round;stroke-width:2px;}</style><linearGradient id="linear-gradient" x1="44.97" y1="52.31" x2="44.97" y2="46.55" gradientUnits="userSpaceOnUse"><stop offset="0" stopColor="#b2deff"/><stop offset="0.04" stopColor="#b5dffe" stop-opacity="0.91"/><stop offset="0.15" stopColor="#bbe2fc" stop-opacity="0.67"/><stop offset="0.26" stopColor="#c1e5fa" stop-opacity="0.47"/><stop offset="0.37" stopColor="#c6e7f9" stop-opacity="0.3"/><stop offset="0.48" stopColor="#c9e9f8" stop-opacity="0.17"/><stop offset="0.58" stopColor="#cceaf7" stop-opacity="0.08"/><stop offset="0.67" stopColor="#cdebf6" stop-opacity="0.02"/><stop offset="0.75" stopColor="#ceebf6" stop-opacity="0"/></linearGradient><linearGradient id="linear-gradient-2" x1="11.04" y1="52.31" x2="11.04" y2="46.55" xlink:href="#linear-gradient"/></defs><path className="cls-1" d="M53.7,52.31H35.54V50.76a3.63,3.63,0,0,1,2.64-3.89c.2-.08.42-.13.61-.22a.93.93,0,0,1,1,.09c1.29.78,2.61,1.52,3.9,2.3a2.29,2.29,0,0,0,2.57,0c1-.63,2.16-1.16,3.14-1.88a2.37,2.37,0,0,1,2.84-.09,3.31,3.31,0,0,1,2,2.31c.16.94.14,1.91.21,2.92Z"/><rect className="cls-2" x="16.5" y="2.03" width="22" height="36" rx="4.5"/><path className="cls-3" d="M19.77,52.31H1.61V50.76a3.63,3.63,0,0,1,2.64-3.89c.2-.08.42-.13.61-.22a.93.93,0,0,1,1,.09c1.29.78,2.61,1.52,3.9,2.3a2.29,2.29,0,0,0,2.57,0c1-.63,2.16-1.16,3.14-1.88a2.37,2.37,0,0,1,2.84-.09,3.31,3.31,0,0,1,2,2.31c.16.94.14,1.91.21,2.92Z"/><path className="cls-4" d="M18.59,45.42a26,26,0,0,0-2.76-.87,1.08,1.08,0,0,1-.86-.87l.48-.37a8.75,8.75,0,0,0,3.62-5.66,15.22,15.22,0,0,0-.28-6.08,8,8,0,0,0-15.25-.78,14.06,14.06,0,0,0-.48,7.07,8.74,8.74,0,0,0,3.7,5.55l.37.29a1.16,1.16,0,0,1-.93.86c-.74.18-1.48.4-2.2.65-2.09.75-3.6,2-3.94,4.38,0,0,0,0-.06.08V53a1.79,1.79,0,0,0,1.86,1c1.79,0,3.58,0,5.36,0H20.59a1.39,1.39,0,0,0,1.49-1.46c0-.62,0-1.24,0-1.86A5.16,5.16,0,0,0,18.59,45.42Zm-8-18.26a6.51,6.51,0,0,1,6.89,6.44,6.07,6.07,0,0,1-1-.75A2.82,2.82,0,0,0,13,32a5.58,5.58,0,0,1-4.1,0,2.73,2.73,0,0,0-3.24.85,8,8,0,0,1-1,.82A6.47,6.47,0,0,1,10.56,27.16ZM4.69,37.75a9.61,9.61,0,0,1-.13-2.22.48.48,0,0,1,.26-.33,4.82,4.82,0,0,0,2.26-1.47,1,1,0,0,1,1.12-.3l.48.13a6.52,6.52,0,0,0,4.74,0,1.62,1.62,0,0,1,1.93.48,15,15,0,0,0,2.16,1.44,7.51,7.51,0,0,1-4.94,7.6,4,4,0,0,1-3.13,0A7.86,7.86,0,0,1,4.69,37.75Zm9.8,8.12c-1.05.62-2.13,1.25-3.22,1.87a.61.61,0,0,1-.46,0c-1.09-.62-2.16-1.25-3.21-1.87l1.09-1.36a5.85,5.85,0,0,0,4.71,0Zm5.94,6.41-.38,0H1.64V50.8a3.65,3.65,0,0,1,2.75-4,2,2,0,0,1,.61-.2,1.43,1.43,0,0,1,.75.08q2,1.14,4,2.34a2.31,2.31,0,0,0,2.57,0c1.11-.67,2.28-1.24,3.33-2A2,2,0,0,1,18,46.93,3.77,3.77,0,0,1,20.18,49,9.33,9.33,0,0,1,20.43,52.28Z"/><path className="cls-4" d="M56,50.25a4.83,4.83,0,0,0-2.8-4.48,23.39,23.39,0,0,0-3.38-1.2,1.24,1.24,0,0,1-.94-.88l.45-.34A8.88,8.88,0,0,0,53,37.82,15.62,15.62,0,0,0,52.81,32a8,8,0,0,0-15.58-.55A18.38,18.38,0,0,0,36.8,36,8,8,0,0,0,39,41.83c.61.69,1.33,1.28,2,1.94a1.13,1.13,0,0,1-.89.79,25.69,25.69,0,0,0-3,1,5,5,0,0,0-3.21,4.89c0,.62,0,1.24,0,1.86A1.45,1.45,0,0,0,35.54,54h19A1.39,1.39,0,0,0,56,52.49C56,51.74,56,51,56,50.25ZM45.07,27.14a6.57,6.57,0,0,1,6.29,6.47,6.59,6.59,0,0,1-1-.8A2.77,2.77,0,0,0,47,32a5.8,5.8,0,0,1-4.2,0,2.68,2.68,0,0,0-3.16.83,8.75,8.75,0,0,1-1.1.89A6.59,6.59,0,0,1,45.07,27.14Zm-6.5,10.61a2.32,2.32,0,0,1-.07-.38c0-.32,0-.65-.06-1-.15-.76.08-1.19.9-1.46a4.89,4.89,0,0,0,1.6-1.18,1.1,1.1,0,0,1,1.23-.3c.12,0,.25.06.37.1a6.62,6.62,0,0,0,4.8,0,1.58,1.58,0,0,1,1.89.45,11.26,11.26,0,0,0,1.86,1.17.75.75,0,0,1,.34.44,7.49,7.49,0,0,1-5.33,7.55,4,4,0,0,1-2.19,0A7.8,7.8,0,0,1,38.57,37.75Zm9.82,8.13c-1,.61-2.13,1.25-3.21,1.86a.57.57,0,0,1-.46,0c-1.09-.62-2.17-1.25-3.22-1.87l1.1-1.36a5.75,5.75,0,0,0,4.7,0Zm5.31,6.43H35.54V50.76a3.63,3.63,0,0,1,2.64-3.89c.2-.08.42-.13.61-.22a.93.93,0,0,1,1,.09c1.29.78,2.61,1.52,3.9,2.3a2.29,2.29,0,0,0,2.57,0c1-.63,2.16-1.16,3.14-1.88a2.37,2.37,0,0,1,2.84-.09,3.31,3.31,0,0,1,2,2.31c.16.94.14,1.91.21,2.92Z"/><path className="cls-5" d="M23.28,18.67l-2.78,3m0,0h10m-10,0,2.78,3"/><path className="cls-5" d="M31.72,32.67l2.78-3m0,0h-10m10,0-2.78-3"/></svg>