<svg xmlns="http://www.w3.org/2000/svg" width="130" height="130" viewBox="0 0 130 130"><defs><style>.a{fill:#f3fcff;stroke:#d6f3ff;}.b{fill:#0c9eda;}.c{stroke:none;}.d{fill:none;}</style></defs><g transform="translate(-435 -3046)"><g className="a" transform="translate(435 3046)"><circle className="c" cx="65" cy="65" r="65"/><circle className="d" cx="65" cy="65" r="64.5"/></g><g transform="translate(-457.855 2362.274)"><path d="M936.627,778.3a1.841,1.841,0,0,0-.248-.123,3.413,3.413,0,0,1-2.515-3.383c-.016-4.052-.008-8.1,0-12.157,0-.677.343-1.079.876-1.081s.864.4.864,1.079q.006,5.874,0,11.75c0,1.588.585,2.17,2.174,2.17h32.749c1.1,0,1.646-.359,1.907-1.3h-3.251c-.543,0-1.086.01-1.629,0-.682-.016-1.054-.351-1.039-.91.015-.54.365-.829,1.038-.83,2.365,0,4.731,0,7.1,0,1.411,0,2.125-.855,1.9-2.332h-.723q-14.949,0-29.9,0a3.956,3.956,0,0,1-2.477-.668,3.524,3.524,0,0,1-1.433-3.026q.01-5.991,0-11.982,0-10.936,0-21.872a3.144,3.144,0,0,1,.058-.749.847.847,0,0,1,1.655.079,5.017,5.017,0,0,1,.028.754q0,16.724,0,33.447a5.145,5.145,0,0,0,.051.869,1.535,1.535,0,0,0,1.229,1.316,4.19,4.19,0,0,0,.98.081q16.2.005,32.4,0c1.707,0,2.272-.563,2.272-2.259V730.82h-.68c-1.977,0-3.955,0-5.933,0a3.457,3.457,0,0,1-3.721-3.746c0-2.17,0-4.339,0-6.593H945.813c-1.43,0-2.044.617-2.047,2.062,0,2,0,3.994,0,5.991,0,.136,0,.271,0,.407-.005.851-.284,1.237-.884,1.226s-.859-.405-.86-1.261q0-1.832,0-3.664v-.612c-1.474-.239-2.333.457-2.334,1.87q-.007,22.54,0,45.081c0,1.291.681,1.933,2.013,1.933q10.7,0,21.406,0c.916,0,1.317.255,1.327.842.011.613-.42.9-1.348.9q-10.644,0-21.29,0a3.5,3.5,0,0,1-3.856-3.859q0-21.493,0-42.986v-.727a1.8,1.8,0,0,0-2.334,1.995q0,14.193,0,28.386a5.931,5.931,0,0,1-.013.639.787.787,0,0,1-.794.771.8.8,0,0,1-.894-.661,2.34,2.34,0,0,1-.042-.577q0-14.338,0-28.677a3.46,3.46,0,0,1,3.606-3.7c.236-.009.463.062.568-.313a3.383,3.383,0,0,1,3.544-2.737c.132,0,.263-.023.447-.039,0-.233-.01-.443,0-.652a3.414,3.414,0,0,1,3.553-3.382q7.854-.01,15.706,0c3.2,0,6.4.008,9.6-.009a1.594,1.594,0,0,1,1.231.516q4.861,4.887,9.749,9.747a1.862,1.862,0,0,1,.591,1.438q-.018,18.439-.01,36.879a3.491,3.491,0,0,1-3.728,3.874c-.094,0-.188.016-.341.03a3.608,3.608,0,0,1-4.1,4.047,3.611,3.611,0,0,1-2.857,3.048Zm42.615-49.231-7.123-7.119c0,1.815-.029,3.708.013,5.6a1.606,1.606,0,0,0,1.689,1.512C975.641,729.089,977.461,729.073,979.243,729.073Z" transform="translate(0)"/><path className="b" d="M967.828,752.932h11.1a4.739,4.739,0,0,1,.58.013.8.8,0,0,1,.767.806.791.791,0,0,1-.62.868,2.633,2.633,0,0,1-.689.056q-11.186,0-22.373,0a2.838,2.838,0,0,1-.579-.021.817.817,0,0,1-.735-.9.784.784,0,0,1,.811-.815c.678-.026,1.356-.012,2.034-.012Z" transform="translate(-5.542 -8.849)"/><path className="b" d="M967.751,745.937h-11.1a4.579,4.579,0,0,1-.638-.018.788.788,0,0,1-.735-.77.8.8,0,0,1,.64-.909,2.461,2.461,0,0,1,.633-.045q11.215,0,22.43,0c.136,0,.272-.007.407,0a.893.893,0,0,1,.9.883.85.85,0,0,1-.912.85c-1.162.017-2.325.008-3.487.008Z" transform="translate(-5.541 -6.587)"/><path className="b" d="M967.724,763.383h-11.11a4.919,4.919,0,0,1-.581-.017.784.784,0,0,1-.755-.81.792.792,0,0,1,.683-.875,2.726,2.726,0,0,1,.577-.041q11.227,0,22.453,0a2.865,2.865,0,0,1,.634.053.851.851,0,0,1-.094,1.671,5.252,5.252,0,0,1-.639.019Z" transform="translate(-5.542 -11.102)"/></g></g></svg>