<svg xmlns="http://www.w3.org/2000/svg" width="130" height="130" viewBox="0 0 130 130"><defs><style>.a{fill:#f3fcff;stroke:#d6f3ff;}.b{fill:#fff;}.c{fill:#0c9eda;}.d{stroke:none;}.e{fill:none;}</style></defs><g transform="translate(-895 -3046)"><g className="a" transform="translate(895 3046)"><circle className="d" cx="65" cy="65" r="65"/><circle className="e" cx="65" cy="65" r="64.5"/></g><g transform="translate(-105.913 2437.742)"><path d="M1065.2,644.258c1.53.491,2.048,1.611,1.88,3.2.717,0,1.372,0,2.027,0a2.467,2.467,0,0,1,2.2,1.16.81.81,0,0,0,.589.275c2.516.018,5.031.01,7.546.013a2.946,2.946,0,0,1,3.26,3.266q0,3.319,0,6.639c0,.132,0,.265-.006.4a.84.84,0,0,1-1.679.043c-.036-.394-.017-.793-.017-1.191,0-1.986,0-3.972,0-5.958,0-1.059-.429-1.491-1.471-1.493q-3.718-.007-7.434,0h-.437v1.7h.627c1.721,0,3.442,0,5.163,0a1.62,1.62,0,0,1,1.848,1.839q.007,5.845,0,11.689v.614l.105.056c.105-.159.214-.317.316-.478q2.168-3.425,4.337-6.85a3.134,3.134,0,0,1,4.676-1.069c.369.23.739.458,1.1.7a3.075,3.075,0,0,1,.931,4.372c-1.419,2.279-2.866,4.538-4.3,6.807q-3.44,5.439-6.867,10.885a1.986,1.986,0,0,0-.286,1c-.017,5.012-.012,10.025-.013,15.037,0,1.517-.536,2.058-2.034,2.058h-30.925c-1.457,0-2.023-.565-2.023-2.019V654.33c0-1.46.559-2.021,2.016-2.022h5.649v-1.677c-.16-.008-.34-.024-.519-.024q-3.66,0-7.319,0c-1.106,0-1.529.435-1.529,1.558q0,23.463,0,46.926c0,1.148.426,1.574,1.573,1.574h35.237c1.164,0,1.576-.405,1.577-1.564q0-9.135,0-18.271a2.856,2.856,0,0,1,.064-.729.83.83,0,0,1,1.617.113,3.951,3.951,0,0,1,.02.566c0,6.091-.04,12.182.022,18.272a3.167,3.167,0,0,1-3.349,3.339c-11.727-.043-23.454-.022-35.18-.023a2.977,2.977,0,0,1-3.286-3.309q0-23.434,0-46.87a2.968,2.968,0,0,1,3.305-3.284q3.745,0,7.49,0a.67.67,0,0,0,.685-.352,2.255,2.255,0,0,1,2.051-1.1c.676,0,1.354,0,2.129,0a2.626,2.626,0,0,1,1.816-3.2ZM1067.539,691l15.853-25.034-1.142-.719c-.132.2-.239.353-.34.512q-5.744,9.077-11.489,18.155a5.252,5.252,0,0,1-.313.473.824.824,0,0,1-1.152.229.849.849,0,0,1-.255-1.151c.087-.168.195-.324.3-.484q4.153-6.563,8.3-13.133a1.984,1.984,0,0,0,.294-.993c.019-4.728.013-9.456.013-14.184v-.626h-31.544V697.22h16.785c.267-1.12.561-2.195.774-3.286a16.244,16.244,0,0,1,2.88-7c.368-.479.835-.636,1.257-.357a.843.843,0,0,1,.194,1.244c-.25.422-.528.829-.784,1.247-.3.492-.59.989-.9,1.513Zm2.357-38.714c0-.864.021-1.709-.009-2.554-.014-.411-.325-.569-.711-.572-.473,0-.947-.027-1.418,0-1.882.123-2.487-.485-2.368-2.3.047-.7-.206-.9-.913-.9q-2.438-.005-4.877,0c-1.344,0-1.344,0-1.35,1.371,0,.057,0,.114,0,.17a1.5,1.5,0,0,1-1.648,1.655c-.7.009-1.4,0-2.1,0-.376,0-.73.111-.751.523-.042.859-.013,1.722-.013,2.6Zm7.678,31.948-.1-.025c-1.514,2.391-3.081,4.752-4.524,7.185a15.083,15.083,0,0,1-4.315,4.8c-.419.294-.8.644-1.266,1.026h10.208Zm7.258-17.358q-7.961,12.573-15.85,25.029l.958,1.013,16.027-25.321Zm.024-5.807,3.754,2.373c.415-.865,1.419-1.552.82-2.576a3.345,3.345,0,0,0-2.579-1.635C1085.657,659.122,1085.474,660.32,1084.856,661.069Zm-19.078,31.212-1.157,4.812.111.053,3.839-3.1A4.086,4.086,0,0,0,1065.778,692.281Zm17.377-28.485,3.722,2.357.807-1.277-3.72-2.356Z"/><path className="b" d="M1080.493,688.643v12.99h-10.208c.467-.382.847-.732,1.266-1.026a15.084,15.084,0,0,0,4.315-4.8c1.443-2.433,3.01-4.794,4.524-7.185Z" transform="translate(-2.919 -4.409)"/><path className="b" d="M1087.929,669.372l1.135.721-16.027,25.321-.958-1.013Q1079.987,681.914,1087.929,669.372Z" transform="translate(-3.097 -2.496)"/><path className="b" d="M1089.7,662.72c.618-.748.8-1.947,1.995-1.837a3.345,3.345,0,0,1,2.579,1.635c.6,1.024-.405,1.71-.82,2.576Z" transform="translate(-4.849 -1.652)"/><path className="b" d="M1087.817,665.811l.81-1.276,3.72,2.356-.807,1.277Z" transform="translate(-4.662 -2.015)"/><path className="c" d="M1054.941,688.229c1.077,0,2.154-.008,3.231,0a2.123,2.123,0,0,1,2.214,2.211q.019,3.231,0,6.462a2.128,2.128,0,0,1-2.169,2.21q-3.258.039-6.518,0a2.145,2.145,0,0,1-2.2-2.195q-.034-3.258,0-6.518a2.134,2.134,0,0,1,2.207-2.172C1052.788,688.221,1053.865,688.229,1054.941,688.229Zm-.012,9.193c1.021,0,2.042-.01,3.063,0,.507.007.705-.207.7-.717q-.023-3.033,0-6.067c.005-.552-.223-.722-.749-.718q-3.006.027-6.011,0c-.54-.005-.746.2-.742.734.014,2,0,4.008.007,6.011,0,.62.14.749.78.752C1052.963,697.425,1053.947,697.421,1054.929,697.421Z" transform="translate(-0.852 -4.37)"/><path className="c" d="M1060.389,663.318c0,1.077.011,2.154,0,3.231a2.134,2.134,0,0,1-2.22,2.212q-3.23.014-6.461,0a2.127,2.127,0,0,1-2.2-2.125q-.047-3.315,0-6.63a2.129,2.129,0,0,1,2.2-2.129q3.26-.019,6.518,0a2.126,2.126,0,0,1,2.163,2.154C1060.4,661.127,1060.389,662.223,1060.389,663.318Zm-1.7.014c0-1.02-.011-2.042,0-3.062.008-.468-.156-.7-.654-.7q-3.091.016-6.181,0c-.453,0-.66.195-.659.646q.005,3.091,0,6.181c0,.482.213.672.693.668q3.062-.018,6.125,0c.482,0,.686-.186.678-.672C1058.677,665.373,1058.687,664.352,1058.687,663.332Z" transform="translate(-0.852 -1.352)"/><path className="c" d="M1060.39,678.505c0,1.058.008,2.116,0,3.174a2.107,2.107,0,0,1-2.178,2.246q-3.258.05-6.517,0a2.129,2.129,0,0,1-2.193-2.245q-.022-3.175,0-6.348a2.158,2.158,0,0,1,2.277-2.283q3.173-.028,6.348,0a2.138,2.138,0,0,1,2.265,2.282C1060.4,676.39,1060.39,677.448,1060.39,678.505Zm-1.7-.006c0-1-.019-2,.008-3,.014-.531-.178-.757-.72-.754q-3.033.02-6.065,0c-.5,0-.72.2-.717.708q.019,3.033,0,6.065c0,.5.193.726.7.724q3.061-.014,6.122,0c.471,0,.685-.188.676-.68C1058.674,680.54,1058.688,679.52,1058.688,678.5Z" transform="translate(-0.852 -2.86)"/><path d="M1070.547,661.009c1.681,0,3.362,0,5.043,0,.675,0,1.04.306,1.039.845s-.374.854-1.041.855q-5.071.005-10.142,0c-.649,0-1.028-.346-1.011-.884.016-.517.371-.812,1.012-.814C1067.149,661.006,1068.848,661.009,1070.547,661.009Z" transform="translate(-2.338 -1.665)"/><path d="M1068.766,677.866c-1.114,0-2.227.005-3.341,0-.639,0-.985-.307-.989-.834s.359-.858.978-.861q3.369-.015,6.738,0c.64,0,1.046.365,1.029.879s-.391.814-1.019.818C1071.031,677.87,1069.9,677.866,1068.766,677.866Z" transform="translate(-2.338 -3.171)"/><path d="M1067.9,666.643c-.831,0-1.663.006-2.5,0-.6-.005-.946-.3-.967-.8a.848.848,0,0,1,.946-.893q2.525-.019,5.049,0a.873.873,0,0,1,.953.843c.008.5-.378.846-.988.851C1069.564,666.648,1068.732,666.643,1067.9,666.643Z" transform="translate(-2.338 -2.055)"/><path d="M1067.9,680.132c.831,0,1.663-.008,2.495,0,.613.009,1,.352.989.852s-.391.839-1.01.842q-2.467.016-4.934,0c-.637,0-.994-.32-1-.835-.011-.54.35-.853,1.025-.861C1066.274,680.125,1067.087,680.132,1067.9,680.132Z" transform="translate(-2.338 -3.565)"/><path className="c" d="M1054.715,694.285c.551-.748,1.049-1.436,1.558-2.115.407-.544.866-.658,1.3-.34s.46.805.071,1.342c-.62.856-1.241,1.71-1.878,2.553a1.206,1.206,0,0,1-2.142-.029c-.282-.378-.568-.754-.832-1.144a.859.859,0,0,1,.135-1.215.843.843,0,0,1,1.238.221C1054.345,693.775,1054.506,694.005,1054.715,694.285Z" transform="translate(-1.162 -4.711)"/><path className="c" d="M1054.718,663.935c.554-.753,1.053-1.438,1.56-2.117.4-.531.876-.647,1.3-.328s.452.8.059,1.343c-.62.855-1.242,1.708-1.877,2.551a1.2,1.2,0,0,1-2.106.012c-.3-.389-.59-.784-.865-1.189a.857.857,0,0,1,.134-1.213.866.866,0,0,1,1.241.221C1054.346,663.43,1054.509,663.659,1054.718,663.935Z" transform="translate(-1.162 -1.695)"/><path className="c" d="M1054.715,679.443c.557-.756,1.056-1.442,1.563-2.121.394-.528.88-.645,1.3-.327s.451.8.059,1.343c-.62.855-1.241,1.708-1.876,2.551a1.2,1.2,0,0,1-2.108.012c-.3-.39-.589-.784-.864-1.19a.856.856,0,0,1,.134-1.213.867.867,0,0,1,1.241.219C1054.345,678.934,1054.505,679.163,1054.715,679.443Z" transform="translate(-1.162 -3.236)"/></g></g></svg>