<?xml version="1.0" encoding="utf-8"?>
<!-- Generator: Adobe Illustrator 24.2.1, SVG Export Plug-In . SVG Version: 6.00 Build 0)  -->
<svg version="1.1" id="design" xmlns="http://www.w3.org/2000/svg" xmlns:xlink="http://www.w3.org/1999/xlink" x="0px" y="0px"
	 viewBox="0 0 100 100" style="enable-background:new 0 0 100 100;" xml:space="preserve">
<style type="text/css">
	.st0{fill:url(#SVGID_1_);}
	.st1{fill:url(#SVGID_2_);}
</style>
<g>
	<linearGradient id="SVGID_1_" gradientUnits="userSpaceOnUse" x1="50" y1="100" x2="50" y2="-9.094947e-13">
		<stop  offset="0" style="stopColor:#FBB040"/>
		<stop  offset="1" style="stopColor:#ED8B00"/>
	</linearGradient>
	<path className="st0" d="M89.7,51.6c-5-5-12.8-5.8-18.7-1.8c-5.4,3.6-9,12-4.1,20.1c-2.7,2.7-5.4,5.4-8.1,8.1c0-8.9,0-17.8,0-26.8
		c3.6-1.3,6.9-3.3,9.6-6.1c7.3-7.6,9.8-16.6,6.6-26.7C71.9,8.4,64.7,2.4,54.3,0.4c-0.7-0.1-1.4-0.2-2.1-0.4c-1.4,0-2.9,0-4.3,0
		c-1.9,0.4-3.8,0.7-5.6,1.2c-9.9,2.9-17.5,12.1-18.4,22.3C22.7,35.7,29.2,46.4,40.6,51c0.2,0.1,0.4,0.2,0.5,0.2c0,8.7,0,17.4,0,26.3
		c-0.5-0.5-0.9-0.9-1.3-1.3c-2-2.1-4-4.2-6-6.3c-0.4-0.4-0.5-0.8-0.2-1.3c4.5-8.7-0.5-19.1-10.1-21.1c-7.9-1.7-16,3.8-17.3,11.8
		c-1.4,8.2,4.2,15.9,12.3,17c3.7,0.5,7.1-0.3,10.2-2.3c0.1-0.1,0.3-0.2,0.4-0.3c0.1,0,0.1,0,0.3-0.1c1.3,1.4,2.7,2.8,4,4.2
		c2.2,2.4,4.5,4.7,6.7,7.1c0.5,0.5,0.5,0.9,0.3,1.5c-1.7,4.4-5.9,7.5-10.6,7.6c-3.6,0.1-7.2,0-10.8,0c-0.4,0-0.7,0-1.2,0
		c0,2,0,3.9,0,5.9c21.5,0,43,0,64.5,0c0-1.9,0-3.8,0-5.9c-0.4,0-0.8,0-1.1,0c-3.6,0-7.2,0.1-10.8,0c-5-0.2-8.6-2.7-10.6-7.3
		c-0.2-0.5-0.3-0.8,0.1-1.3c3.7-3.7,7.4-7.4,11.1-11c0.1-0.1,0.2-0.2,0.4-0.3c8,4.9,16.3,1.5,20.1-3.9
		C95.3,64.6,94.7,56.7,89.7,51.6z M20.7,70.7c-4.8,0-8.8-3.9-8.8-8.8c0-4.9,3.9-8.8,8.8-8.8c4.8,0,8.8,3.9,8.8,8.8
		C29.5,66.7,25.5,70.7,20.7,70.7z M29.5,26.3C29.5,15,38.7,5.8,50,5.9c11.3,0,20.5,9.3,20.5,20.6c0,11.3-9.3,20.4-20.6,20.4
		C38.6,46.8,29.5,37.6,29.5,26.3z M42.7,94.1c0.2-0.2,0.3-0.4,0.4-0.6c2.6-3.3,3.9-7.1,3.9-11.3c0-9.5,0-18.9,0-28.4
		c0-0.4,0-0.8,0-1.2c2,0,3.9,0,5.9,0c0,0.3,0,0.7,0,1.1c0,9,0.1,18.1,0,27.1c-0.1,4.9,1.1,9.3,4.4,13.2
		C52.4,94.1,47.6,94.1,42.7,94.1z M79.3,70.7c-4.8,0-8.8-3.9-8.8-8.8c0-4.9,3.9-8.8,8.8-8.8c4.8,0,8.8,3.9,8.8,8.8
		C88.1,66.7,84.1,70.7,79.3,70.7z"/>
	<linearGradient id="SVGID_2_" gradientUnits="userSpaceOnUse" x1="50.0114" y1="38.4561" x2="50.0114" y2="14.1958">
		<stop  offset="0" style="stopColor:#FBB040"/>
		<stop  offset="1" style="stopColor:#ED8B00"/>
	</linearGradient>
	<path className="st1" d="M62.1,26.4c-4-4-8.1-8.2-12.2-12.2c-4,4-8.1,8.1-12.1,12.1c4.1,4.1,8.2,8.2,12.2,12.2
		C54.1,34.5,58.2,30.4,62.1,26.4z M50,22.5c1.2,1.2,2.6,2.6,3.9,3.9c-1.2,1.2-2.6,2.6-3.8,3.8c-1.3-1.3-2.7-2.7-3.9-3.9
		C47.4,25.1,48.7,23.8,50,22.5z"/>
</g>
</svg>
